<svg width="25" height="25" viewBox="0 0 25 25" fill="none" xmlns="http://www.w3.org/2000/svg">
<path d="M9.18266 4.91864H6.8017C6.29653 4.91864 5.81205 5.11932 5.45483 5.47653C5.09762 5.83374 4.89694 6.31823 4.89694 6.8234V20.1567C4.89694 20.6619 5.09762 21.1464 5.45483 21.5036C5.81205 21.8608 6.29653 22.0615 6.8017 22.0615H18.2303C18.7354 22.0615 19.2199 21.8608 19.5771 21.5036C19.9344 21.1464 20.135 20.6619 20.135 20.1567V6.8234C20.135 6.31823 19.9344 5.83374 19.5771 5.47653C19.2199 5.11932 18.7354 4.91864 18.2303 4.91864H15.8493" stroke="#505050" stroke-width="1.5" stroke-linecap="round"/>
<path d="M8.70647 7.20438V5.39486C8.70647 5.26856 8.75664 5.14744 8.84594 5.05814C8.93524 4.96884 9.05636 4.91867 9.18266 4.91867C9.44551 4.91867 9.66266 4.70533 9.70837 4.44629C9.84932 3.63486 10.396 2.06152 12.516 2.06152C14.636 2.06152 15.1827 3.63486 15.3236 4.44629C15.3693 4.70533 15.5865 4.91867 15.8493 4.91867C15.9756 4.91867 16.0967 4.96884 16.186 5.05814C16.2753 5.14744 16.3255 5.26856 16.3255 5.39486V7.20438C16.3255 7.35593 16.2653 7.50128 16.1581 7.60844C16.051 7.71561 15.9056 7.77581 15.7541 7.77581H9.2779C9.12634 7.77581 8.981 7.71561 8.87383 7.60844C8.76667 7.50128 8.70647 7.35593 8.70647 7.20438Z" stroke="#505050" stroke-width="1.5" stroke-linecap="round"/>
</svg>
