<svg width="25" height="25" viewBox="0 0 25 25" fill="none" xmlns="http://www.w3.org/2000/svg">
<g clip-path="url(#clip0_394_248)">
<path d="M9.01599 4.06155H6.51599C5.98556 4.06155 5.47685 4.27227 5.10178 4.64734C4.7267 5.02241 4.51599 5.53112 4.51599 6.06155V20.0616C4.51599 20.592 4.7267 21.1007 5.10178 21.4758C5.47685 21.8508 5.98556 22.0616 6.51599 22.0616H12.516M16.016 4.06155H18.516C19.0464 4.06155 19.5551 4.27227 19.9302 4.64734C20.3053 5.02241 20.516 5.53112 20.516 6.06155V15.0616" stroke="#505050" stroke-width="1.5" stroke-linecap="round"/>
<path d="M8.51599 6.46155V4.56155C8.51599 4.42895 8.56867 4.30177 8.66244 4.208C8.75621 4.11423 8.88338 4.06155 9.01599 4.06155C9.29199 4.06155 9.51999 3.83755 9.56799 3.56555C9.71599 2.71355 10.29 1.06155 12.516 1.06155C14.742 1.06155 15.316 2.71355 15.464 3.56555C15.512 3.83755 15.74 4.06155 16.016 4.06155C16.1486 4.06155 16.2758 4.11423 16.3695 4.208C16.4633 4.30177 16.516 4.42895 16.516 4.56155V6.46155C16.516 6.62068 16.4528 6.7733 16.3403 6.88582C16.2277 6.99834 16.0751 7.06155 15.916 7.06155H9.11599C8.95686 7.06155 8.80425 6.99834 8.69173 6.88582C8.5792 6.7733 8.51599 6.62068 8.51599 6.46155Z" stroke="#505050" stroke-width="1.5" stroke-linecap="round"/>
<path d="M16.016 20.5616L18.016 22.5616L23.016 17.5616" stroke="#505050" stroke-width="1.5" stroke-linecap="round" stroke-linejoin="round"/>
</g>
<defs>
<clipPath id="clip0_394_248">
<rect width="24" height="24" fill="white" transform="translate(0.515991 0.061554)"/>
</clipPath>
</defs>
</svg>
