<svg width="25" height="25" viewBox="0 0 25 25" fill="none" xmlns="http://www.w3.org/2000/svg">
<path d="M16.016 16.5615L12.516 13.0615L9.01599 16.5615M16.016 10.5615L12.516 7.06152L9.01599 10.5615" stroke="#505050" stroke-width="1.5" stroke-linecap="round" stroke-linejoin="round"/>
<path d="M3.51599 20.4615V3.66152C3.51599 3.50239 3.57921 3.34978 3.69173 3.23726C3.80425 3.12474 3.95686 3.06152 4.11599 3.06152H20.916C21.0751 3.06152 21.2277 3.12474 21.3403 3.23726C21.4528 3.34978 21.516 3.50239 21.516 3.66152V20.4615C21.516 20.6207 21.4528 20.7733 21.3403 20.8858C21.2277 20.9983 21.0751 21.0615 20.916 21.0615H4.11599C3.95686 21.0615 3.80425 20.9983 3.69173 20.8858C3.57921 20.7733 3.51599 20.6207 3.51599 20.4615Z" stroke="#505050" stroke-width="1.5"/>
</svg>
