<svg width="24" height="25" viewBox="0 0 24 25" fill="none" xmlns="http://www.w3.org/2000/svg">
<path d="M1.09262 12.0615C1.09262 12.1668 1.12034 12.2703 1.173 12.3615H1.174L6.327 21.2875C6.37969 21.3788 6.4555 21.4546 6.54678 21.5072C6.63807 21.5599 6.74161 21.5876 6.847 21.5875H17.153C17.2584 21.5876 17.3619 21.5599 17.4532 21.5072C17.5445 21.4546 17.6203 21.3788 17.673 21.2875L22.827 12.3615C22.8797 12.2703 22.9074 12.1668 22.9074 12.0615C22.9074 11.9562 22.8797 11.8527 22.827 11.7615L17.674 2.83552C17.6213 2.74425 17.5455 2.66848 17.4542 2.61581C17.3629 2.56315 17.2594 2.53546 17.154 2.53552H6.847C6.74161 2.53546 6.63807 2.56315 6.54678 2.61581C6.4555 2.66848 6.37969 2.74425 6.327 2.83552L1.173 11.7615C1.12034 11.8527 1.09262 11.9562 1.09262 12.0615Z" stroke="#505050" stroke-width="1.5" stroke-linecap="round" stroke-linejoin="round"/>
<path d="M11.99 8.05652V12.0565M11.99 16.0665L12 16.0555" stroke="#505050" stroke-width="1.5625" stroke-linecap="round" stroke-linejoin="round"/>
</svg>
