<svg width="24" height="24" viewBox="0 0 24 24" fill="none" xmlns="http://www.w3.org/2000/svg">
<path d="M20.043 21H3.95695C2.41895 21 1.45695 19.336 2.22295 18.003L10.266 4.015C11.036 2.678 12.965 2.678 13.734 4.015L21.777 18.003C22.543 19.336 21.58 21 20.043 21ZM12 9V13Z" fill="#FFCC00"/>
<path d="M12 9V13M20.043 21H3.95695C2.41895 21 1.45695 19.336 2.22295 18.003L10.266 4.015C11.036 2.678 12.965 2.678 13.734 4.015L21.777 18.003C22.543 19.336 21.58 21 20.043 21Z" stroke="#505050" stroke-width="1.5" stroke-linecap="round"/>
<path d="M12 17.01L12.01 16.999" stroke="#505050" stroke-width="1.5" stroke-linecap="round" stroke-linejoin="round"/>
</svg>
