<svg width="25" height="25" viewBox="0 0 25 25" fill="none" xmlns="http://www.w3.org/2000/svg">
<path d="M2.51599 19.0616V9.06155C2.51599 8.53112 2.7267 8.02241 3.10178 7.64734C3.47685 7.27227 3.98556 7.06155 4.51599 7.06155H5.01599C5.32648 7.06155 5.63271 6.98926 5.91042 6.85041C6.18813 6.71155 6.4297 6.50995 6.61599 6.26155L8.83599 3.30155C8.89188 3.22704 8.96435 3.16655 9.04766 3.1249C9.13098 3.08324 9.22284 3.06155 9.31599 3.06155H15.716C15.8091 3.06155 15.901 3.08324 15.9843 3.1249C16.0676 3.16655 16.1401 3.22704 16.196 3.30155L18.416 6.26155C18.6023 6.50995 18.8439 6.71155 19.1216 6.85041C19.3993 6.98926 19.7055 7.06155 20.016 7.06155H20.516C21.0464 7.06155 21.5551 7.27227 21.9302 7.64734C22.3053 8.02241 22.516 8.53112 22.516 9.06155V19.0616C22.516 19.592 22.3053 20.1007 21.9302 20.4758C21.5551 20.8508 21.0464 21.0616 20.516 21.0616H4.51599C3.98556 21.0616 3.47685 20.8508 3.10178 20.4758C2.7267 20.1007 2.51599 19.592 2.51599 19.0616Z" stroke="#505050" stroke-width="1.5" stroke-linecap="round" stroke-linejoin="round"/>
<path d="M12.516 17.0616C13.5769 17.0616 14.5943 16.6401 15.3444 15.89C16.0946 15.1398 16.516 14.1224 16.516 13.0616C16.516 12.0007 16.0946 10.9833 15.3444 10.2331C14.5943 9.48298 13.5769 9.06155 12.516 9.06155C11.4551 9.06155 10.4377 9.48298 9.68756 10.2331C8.93742 10.9833 8.51599 12.0007 8.51599 13.0616C8.51599 14.1224 8.93742 15.1398 9.68756 15.89C10.4377 16.6401 11.4551 17.0616 12.516 17.0616Z" stroke="#505050" stroke-width="1.5" stroke-linecap="round" stroke-linejoin="round"/>
</svg>
