<svg width="25" height="25" viewBox="0 0 25 25" fill="none" xmlns="http://www.w3.org/2000/svg">
<g opacity="0.3">
<path d="M12.5004 2.06155C10.5226 2.06155 8.58916 2.64804 6.94467 3.74686C5.30018 4.84567 4.01845 6.40746 3.26158 8.23472C2.5047 10.062 2.30667 12.0726 2.69252 14.0125C3.07837 15.9523 4.03078 17.7341 5.4293 19.1326C6.82783 20.5311 8.60966 21.4836 10.5495 21.8694C12.4893 22.2553 14.4999 22.0572 16.3272 21.3004C18.1545 20.5435 19.7163 19.2617 20.8151 17.6173C21.9139 15.9728 22.5004 14.0394 22.5004 12.0616C22.5004 9.40939 21.4468 6.86585 19.5714 4.99049C17.6961 3.11512 15.1525 2.06155 12.5004 2.06155ZM14.5866 15.9603C14.7599 16.1348 14.8571 16.3707 14.8571 16.6166C14.8571 16.8624 14.7599 17.0983 14.5866 17.2728C14.5009 17.3587 14.399 17.4268 14.2868 17.473C14.1745 17.5193 14.0542 17.5428 13.9329 17.5422C13.6857 17.5418 13.4487 17.4434 13.2741 17.2684L8.75475 12.7347C8.59434 12.5587 8.50785 12.3276 8.5132 12.0896C8.51855 11.8515 8.61534 11.6246 8.7835 11.4559L13.3697 6.85468C13.5444 6.68353 13.7795 6.58821 14.0241 6.58944C14.2686 6.59068 14.5027 6.68837 14.6757 6.86127C14.8486 7.03418 14.9462 7.26834 14.9475 7.51287C14.9487 7.7574 14.8534 7.99253 14.6822 8.16718L10.7447 12.0616L14.5866 15.9603Z" fill="#C2C2C2"/>
</g>
</svg>
