<svg width="25" height="25" viewBox="0 0 25 25" fill="none" xmlns="http://www.w3.org/2000/svg">
<path d="M5.76785 7.43976C5.69796 7.35131 5.65439 7.24495 5.64216 7.13288C5.62992 7.02082 5.6495 6.90757 5.69866 6.80612C5.74782 6.70466 5.82457 6.61911 5.92011 6.55927C6.01565 6.49943 6.12612 6.46771 6.23885 6.46776L18.7628 6.46776C18.8755 6.4679 18.9858 6.49975 19.0812 6.55967C19.1766 6.61959 19.2532 6.70515 19.3023 6.80657C19.3513 6.90798 19.3708 7.02115 19.3585 7.13313C19.3462 7.24511 19.3027 7.35137 19.2329 7.43976L12.9718 15.3708C12.9157 15.4419 12.8441 15.4994 12.7626 15.539C12.681 15.5785 12.5915 15.5991 12.5008 15.5991C12.4102 15.5991 12.3207 15.5785 12.2391 15.539C12.1576 15.4994 12.086 15.4419 12.0299 15.3708L5.76785 7.43976Z" fill="#C2C2C2"/>
<path d="M17.5629 17.6553L7.43787 17.6553" stroke="#C2C2C2" stroke-width="1.5" stroke-linecap="round"/>
</svg>
