<svg width="25" height="25" viewBox="0 0 25 25" fill="none" xmlns="http://www.w3.org/2000/svg">
<path d="M12.5004 22.0616C10.5226 22.0616 8.58916 21.4751 6.94467 20.3762C5.30018 19.2774 4.01845 17.7156 3.26157 15.8884C2.5047 14.0611 2.30667 12.0505 2.69252 10.1107C3.07837 8.17084 4.03078 6.38901 5.4293 4.99049C6.82783 3.59196 8.60966 2.63956 10.5495 2.2537C12.4893 1.86785 14.4999 2.06588 16.3272 2.82276C18.1545 3.57964 19.7163 4.86136 20.8151 6.50585C21.9139 8.15035 22.5004 10.0837 22.5004 12.0616C22.5004 14.7137 21.4468 17.2573 19.5714 19.1326C17.6961 21.008 15.1525 22.0616 12.5004 22.0616ZM14.5866 8.16281C14.7599 7.98835 14.8571 7.75244 14.8571 7.50656C14.8571 7.26067 14.7599 7.02476 14.5866 6.85031C14.5009 6.76437 14.399 6.69631 14.2868 6.65007C14.1745 6.60382 14.0542 6.58033 13.9329 6.58093C13.6857 6.58126 13.4487 6.67973 13.2741 6.85468L8.75474 11.3884C8.59434 11.5645 8.50784 11.7955 8.5132 12.0336C8.51855 12.2716 8.61534 12.4985 8.78349 12.6672L13.3704 17.2684C13.545 17.4396 13.7801 17.5349 14.0247 17.5337C14.2692 17.5324 14.5034 17.4347 14.6763 17.2618C14.8492 17.0889 14.9469 16.8548 14.9481 16.6102C14.9493 16.3657 14.854 16.1306 14.6829 15.9559L10.7454 12.0616L14.5866 8.16281Z" fill="#C2C2C2"/>
</svg>
