<svg width="25" height="25" viewBox="0 0 25 25" fill="none" xmlns="http://www.w3.org/2000/svg">
<path d="M12.5004 16.7121L8.77995 12.9917M12.5004 16.7121L16.2208 12.8363M12.5004 16.7121L12.5004 8.34113M12.8947 21.8983C12.7901 22.0029 12.6483 22.0616 12.5004 22.0616C12.3525 22.0616 12.2106 22.0029 12.106 21.8983L2.66357 12.4559C2.55907 12.3513 2.50037 12.2094 2.50037 12.0616C2.50037 11.9137 2.55907 11.7718 2.66357 11.6672L12.106 2.22476C12.2106 2.12025 12.3525 2.06155 12.5004 2.06155C12.6483 2.06155 12.7901 2.12025 12.8947 2.22476L22.3372 11.6672C22.4417 11.7718 22.5004 11.9137 22.5004 12.0616C22.5004 12.2094 22.4417 12.3513 22.3372 12.4559L12.8947 21.8983Z" stroke="#C2C2C2" stroke-width="1.2" stroke-linecap="round" stroke-linejoin="round"/>
</svg>
