<svg width="25" height="25" viewBox="0 0 25 25" fill="none" xmlns="http://www.w3.org/2000/svg">
<g opacity="0.3">
<path d="M12.5004 2.06155C14.4782 2.06155 16.4116 2.64804 18.0561 3.74686C19.7006 4.84567 20.9823 6.40746 21.7392 8.23472C22.496 10.062 22.6941 12.0726 22.3082 14.0125C21.9224 15.9523 20.97 17.7341 19.5714 19.1326C18.1729 20.5311 16.3911 21.4836 14.4513 21.8694C12.5115 22.2553 10.5008 22.0572 8.67353 21.3004C6.84627 20.5435 5.28448 19.2617 4.18567 17.6173C3.08686 15.9728 2.50037 14.0394 2.50037 12.0616C2.50037 9.40939 3.55393 6.86585 5.4293 4.99049C7.30466 3.11512 9.8482 2.06155 12.5004 2.06155ZM10.4141 15.9603C10.2408 16.1348 10.1436 16.3707 10.1436 16.6166C10.1436 16.8624 10.2408 17.0983 10.4141 17.2728C10.4998 17.3587 10.6018 17.4268 10.714 17.473C10.8262 17.5193 10.9465 17.5428 11.0679 17.5422C11.3151 17.5418 11.552 17.4434 11.7266 17.2684L16.246 12.7347C16.4064 12.5587 16.4929 12.3276 16.4875 12.0896C16.4822 11.8515 16.3854 11.6246 16.2172 11.4559L11.6304 6.85468C11.4557 6.68353 11.2206 6.58821 10.9761 6.58944C10.7315 6.59068 10.4974 6.68837 10.3245 6.86127C10.1516 7.03418 10.0539 7.26834 10.0526 7.51287C10.0514 7.7574 10.1467 7.99253 10.3179 8.16718L14.2554 12.0616L10.4141 15.9603Z" fill="#C2C2C2"/>
</g>
</svg>
