<svg width="25" height="25" viewBox="0 0 25 25" fill="none" xmlns="http://www.w3.org/2000/svg">
<path d="M18.9827 16.6833C19.0526 16.7717 19.0962 16.8781 19.1084 16.9902C19.1206 17.1022 19.101 17.2155 19.0519 17.3169C19.0027 17.4184 18.926 17.5039 18.8304 17.5638C18.7349 17.6236 18.6244 17.6553 18.5117 17.6553L5.9877 17.6553C5.87505 17.6551 5.76472 17.6233 5.66932 17.5634C5.57393 17.5035 5.49733 17.4179 5.44829 17.3165C5.39926 17.2151 5.37976 17.1019 5.39203 16.9899C5.40431 16.8779 5.44786 16.7717 5.5177 16.6833L11.7787 8.75229C11.8349 8.68113 11.9064 8.62361 11.988 8.58407C12.0696 8.54453 12.159 8.52399 12.2497 8.52399C12.3404 8.52399 12.4298 8.54453 12.5114 8.58407C12.593 8.62361 12.6645 8.68113 12.7207 8.75229L18.9827 16.6833Z" fill="#C2C2C2"/>
<path d="M7.18768 6.46777H17.3127" stroke="#C2C2C2" stroke-width="1.5" stroke-linecap="round"/>
</svg>
