<svg width="25" height="25" viewBox="0 0 25 25" fill="none" xmlns="http://www.w3.org/2000/svg">
<path d="M9.00037 17.5616H9.70037L14.0129 13.2491L13.3129 12.5491L9.00037 16.8616V17.5616ZM16.1504 12.5241L14.0254 10.4241L14.7254 9.72405C14.917 9.53239 15.1525 9.43655 15.4319 9.43655C15.7112 9.43655 15.9465 9.53239 16.1379 9.72405L16.8379 10.4241C17.0295 10.6157 17.1295 10.8471 17.1379 11.1181C17.1462 11.3891 17.0545 11.6202 16.8629 11.8116L16.1504 12.5241ZM15.4254 13.2616L10.1254 18.5616H8.00037V16.4366L13.3004 11.1366L15.4254 13.2616ZM13.6629 12.8991L13.3129 12.5491L14.0129 13.2491L13.6629 12.8991Z" fill="#C2C2C2"/>
<path d="M2.50037 19.0616V5.06155C2.50037 4.53112 2.71108 4.02241 3.08615 3.64734C3.46123 3.27227 3.96993 3.06155 4.50037 3.06155H20.5004C21.0308 3.06155 21.5395 3.27227 21.9146 3.64734C22.2897 4.02241 22.5004 4.53112 22.5004 5.06155V19.0616C22.5004 19.592 22.2897 20.1007 21.9146 20.4758C21.5395 20.8508 21.0308 21.0616 20.5004 21.0616H4.50037C3.96993 21.0616 3.46123 20.8508 3.08615 20.4758C2.71108 20.1007 2.50037 19.592 2.50037 19.0616Z" stroke="#C2C2C2" stroke-width="1.5"/>
<path d="M2.50037 7.06155H22.5004" stroke="#C2C2C2" stroke-width="1.5" stroke-linecap="round" stroke-linejoin="round"/>
</svg>
