<svg width="25" height="25" viewBox="0 0 25 25" fill="none" xmlns="http://www.w3.org/2000/svg">
<g clip-path="url(#clip0_254_27)">
<path d="M9.36432 20.0606C9.08824 20.0606 8.86435 19.8367 8.86435 19.5606V19.106C8.86435 18.8298 9.08824 18.6061 9.36432 18.6061H19.9996C20.2757 18.6061 20.4996 18.8298 20.4996 19.106V19.5606C20.4996 19.8367 20.2757 20.0606 19.9996 20.0606H9.36432ZM4.50061 12.7876L8.86386 15.6963L4.50061 18.6056V12.7876ZM9.36432 12.7876C9.08824 12.7876 8.86435 12.5638 8.86435 12.2876V8.92429C8.86435 8.6483 9.08824 8.42432 9.36432 8.42432H19.9996C20.2757 8.42432 20.4996 8.6483 20.4996 8.92429V12.2876C20.4996 12.5638 20.2757 12.7876 19.9996 12.7876H9.36432ZM9.36432 5.51508C9.08824 5.51508 8.86435 5.29134 8.86435 5.01511V4.56006C8.86435 4.28408 9.08824 4.06009 9.36432 4.06009H19.9996C20.2757 4.06009 20.4996 4.28408 20.4996 4.56006V5.01511C20.4996 5.29134 20.2757 5.51508 19.9996 5.51508H9.36432Z" fill="#C2C2C2"/>
</g>
<defs>
<clipPath id="clip0_254_27">
<rect width="16" height="16" fill="white" transform="translate(4.50037 4.06155)"/>
</clipPath>
</defs>
</svg>
