<svg width="25" height="25" viewBox="0 0 25 25" fill="none" xmlns="http://www.w3.org/2000/svg">
<path d="M2.50037 19.0616V5.06155C2.50037 4.53112 2.71108 4.02241 3.08615 3.64734C3.46123 3.27227 3.96993 3.06155 4.50037 3.06155H20.5004C21.0308 3.06155 21.5395 3.27227 21.9146 3.64734C22.2897 4.02241 22.5004 4.53112 22.5004 5.06155V19.0616C22.5004 19.592 22.2897 20.1007 21.9146 20.4758C21.5395 20.8508 21.0308 21.0616 20.5004 21.0616H4.50037C3.96993 21.0616 3.46123 20.8508 3.08615 20.4758C2.71108 20.1007 2.50037 19.592 2.50037 19.0616Z" stroke="#C2C2C2" stroke-width="1.5"/>
<path d="M2.50037 7.06155H22.5004" stroke="#C2C2C2" stroke-width="1.5" stroke-linecap="round" stroke-linejoin="round"/>
<path d="M10.5004 16.3036L12.6214 14.1826M12.6214 14.1826L14.7424 12.0616M12.6214 14.1826L10.5004 12.0616M12.6214 14.1826L14.7424 16.3036" stroke="#C2C2C2" stroke-width="1.5" stroke-linecap="round" stroke-linejoin="round"/>
</svg>
