<svg width="25" height="25" viewBox="0 0 25 25" fill="none" xmlns="http://www.w3.org/2000/svg">
<path d="M9.36408 20.0625C9.08799 20.0625 8.86411 19.8386 8.86411 19.5625V19.108C8.86411 18.8318 9.08799 18.608 9.36408 18.608H19.9994C20.2755 18.608 20.4994 18.8318 20.4994 19.108V19.5625C20.4994 19.8386 20.2755 20.0625 19.9994 20.0625H9.36408ZM9.36408 15.7893C9.08799 15.7893 8.86411 15.5656 8.86411 15.2894V11.9251C8.86411 11.6491 9.08799 11.4251 9.36408 11.4251H19.9994C20.2755 11.4251 20.4994 11.6491 20.4994 11.9251V15.2894C20.4994 15.5656 20.2755 15.7893 19.9994 15.7893H9.36408ZM4.50037 5.60809L8.86362 8.51684L4.50037 11.4256V5.60809ZM9.36408 5.51654C9.08799 5.51654 8.86411 5.29271 8.86411 5.01657V4.56152C8.86411 4.28554 9.08799 4.06155 9.36408 4.06155H19.9994C20.2755 4.06155 20.4994 4.28554 20.4994 4.56152V5.01657C20.4994 5.29271 20.2755 5.51654 19.9994 5.51654H9.36408Z" fill="#C2C2C2"/>
</svg>
