<svg width="25" height="25" viewBox="0 0 25 25" fill="none" xmlns="http://www.w3.org/2000/svg">
<path d="M19.516 15.0616V11.9986C19.5157 10.9543 19.1007 9.95292 18.3622 9.21461C17.6237 8.47631 16.6222 8.06155 15.578 8.06155H9.45499C8.93776 8.06142 8.42557 8.16319 7.94768 8.36103C7.46978 8.55887 7.03554 8.84892 6.66976 9.21461C6.30398 9.5803 6.01381 10.0145 5.81585 10.4923C5.61788 10.9702 5.51599 11.4823 5.51599 11.9996V15.0616C5.51599 15.9808 5.69705 16.8911 6.04883 17.7403C6.40062 18.5896 6.91623 19.3613 7.56624 20.0113C8.21625 20.6613 8.98793 21.1769 9.83721 21.5287C10.6865 21.8805 11.5967 22.0616 12.516 22.0616C13.4352 22.0616 14.3455 21.8805 15.1948 21.5287C16.0441 21.1769 16.8157 20.6613 17.4657 20.0113C18.1157 19.3613 18.6314 18.5896 18.9831 17.7403C19.3349 16.8911 19.516 15.9808 19.516 15.0616Z" stroke="#505050" stroke-width="1.5"/>
<path d="M17.016 8.56155V7.56155C17.016 6.36808 16.5419 5.22349 15.698 4.37957C14.8541 3.53566 13.7095 3.06155 12.516 3.06155C11.3225 3.06155 10.1779 3.53566 9.33401 4.37957C8.4901 5.22349 8.01599 6.36808 8.01599 7.56155V8.56155" stroke="#505050" stroke-width="1.5"/>
<path d="M19.516 14.0616H22.516M5.51599 14.0616H2.51599M15.016 3.56155L17.516 2.06155M10.016 3.56155L7.51599 2.06155M21.016 20.0616L19.016 19.2616M21.016 8.06155L19.016 8.86155M4.01599 20.0616L6.01599 19.2616M4.01599 8.06155L6.01599 8.86155M12.516 21.5616V15.0616" stroke="#505050" stroke-width="1.5" stroke-linecap="round"/>
</svg>
