<svg width="25" height="25" viewBox="0 0 25 25" fill="none" xmlns="http://www.w3.org/2000/svg">
<path fill-rule="evenodd" clip-rule="evenodd" d="M7.71599 1.66156C7.92816 1.66156 8.13165 1.74585 8.28167 1.89587C8.4317 2.0459 8.51599 2.24939 8.51599 2.46156V3.26156H16.516V2.46156C16.516 2.24939 16.6003 2.0459 16.7503 1.89587C16.9003 1.74585 17.1038 1.66156 17.316 1.66156C17.5282 1.66156 17.7316 1.74585 17.8817 1.89587C18.0317 2.0459 18.116 2.24939 18.116 2.46156V3.26156H20.516C21.1525 3.26156 21.763 3.51442 22.213 3.9645C22.6631 4.41459 22.916 5.02504 22.916 5.66156V20.0616C22.916 20.6981 22.6631 21.3085 22.213 21.7586C21.763 22.2087 21.1525 22.4616 20.516 22.4616H4.51599C3.87947 22.4616 3.26902 22.2087 2.81893 21.7586C2.36885 21.3085 2.11599 20.6981 2.11599 20.0616V5.66156C2.11599 5.02504 2.36885 4.41459 2.81893 3.9645C3.26902 3.51442 3.87947 3.26156 4.51599 3.26156H6.91599V2.46156C6.91599 2.24939 7.00028 2.0459 7.1503 1.89587C7.30033 1.74585 7.50382 1.66156 7.71599 1.66156ZM16.516 4.86156V5.66156C16.516 5.87373 16.6003 6.07722 16.7503 6.22724C16.9003 6.37727 17.1038 6.46156 17.316 6.46156C17.5282 6.46156 17.7316 6.37727 17.8817 6.22724C18.0317 6.07722 18.116 5.87373 18.116 5.66156V4.86156H20.516C20.7282 4.86156 20.9316 4.94585 21.0817 5.09587C21.2317 5.2459 21.316 5.44939 21.316 5.66156V8.06156H3.71599V5.66156C3.71599 5.44939 3.80028 5.2459 3.9503 5.09587C4.10033 4.94585 4.30382 4.86156 4.51599 4.86156H6.91599V5.66156C6.91599 5.87373 7.00028 6.07722 7.1503 6.22724C7.30033 6.37727 7.50382 6.46156 7.71599 6.46156C7.92816 6.46156 8.13165 6.37727 8.28167 6.22724C8.4317 6.07722 8.51599 5.87373 8.51599 5.66156V4.86156H16.516ZM3.71599 9.66156V20.0616C3.71599 20.2737 3.80028 20.4772 3.9503 20.6272C4.10033 20.7773 4.30382 20.8616 4.51599 20.8616H20.516C20.7282 20.8616 20.9316 20.7773 21.0817 20.6272C21.2317 20.4772 21.316 20.2737 21.316 20.0616V9.66156H3.71599ZM11.716 12.0616C11.716 11.8494 11.8003 11.6459 11.9503 11.4959C12.1003 11.3458 12.3038 11.2616 12.516 11.2616C12.7282 11.2616 12.9316 11.3458 13.0817 11.4959C13.2317 11.6459 13.316 11.8494 13.316 12.0616C13.316 12.2737 13.2317 12.4772 13.0817 12.6272C12.9316 12.7773 12.7282 12.8616 12.516 12.8616C12.3038 12.8616 12.1003 12.7773 11.9503 12.6272C11.8003 12.4772 11.716 12.2737 11.716 12.0616ZM15.716 11.2616C15.5038 11.2616 15.3003 11.3458 15.1503 11.4959C15.0003 11.6459 14.916 11.8494 14.916 12.0616C14.916 12.2737 15.0003 12.4772 15.1503 12.6272C15.3003 12.7773 15.5038 12.8616 15.716 12.8616C15.9282 12.8616 16.1316 12.7773 16.2817 12.6272C16.4317 12.4772 16.516 12.2737 16.516 12.0616C16.516 11.8494 16.4317 11.6459 16.2817 11.4959C16.1316 11.3458 15.9282 11.2616 15.716 11.2616ZM18.116 12.0616C18.116 11.8494 18.2003 11.6459 18.3503 11.4959C18.5003 11.3458 18.7038 11.2616 18.916 11.2616C19.1282 11.2616 19.3316 11.3458 19.4817 11.4959C19.6317 11.6459 19.716 11.8494 19.716 12.0616C19.716 12.2737 19.6317 12.4772 19.4817 12.6272C19.3316 12.7773 19.1282 12.8616 18.916 12.8616C18.7038 12.8616 18.5003 12.7773 18.3503 12.6272C18.2003 12.4772 18.116 12.2737 18.116 12.0616ZM18.916 14.4616C18.7038 14.4616 18.5003 14.5458 18.3503 14.6959C18.2003 14.8459 18.116 15.0494 18.116 15.2616C18.116 15.4737 18.2003 15.6772 18.3503 15.8272C18.5003 15.9773 18.7038 16.0616 18.916 16.0616C19.1282 16.0616 19.3316 15.9773 19.4817 15.8272C19.6317 15.6772 19.716 15.4737 19.716 15.2616C19.716 15.0494 19.6317 14.8459 19.4817 14.6959C19.3316 14.5458 19.1282 14.4616 18.916 14.4616ZM14.916 15.2616C14.916 15.0494 15.0003 14.8459 15.1503 14.6959C15.3003 14.5458 15.5038 14.4616 15.716 14.4616C15.9282 14.4616 16.1316 14.5458 16.2817 14.6959C16.4317 14.8459 16.516 15.0494 16.516 15.2616C16.516 15.4737 16.4317 15.6772 16.2817 15.8272C16.1316 15.9773 15.9282 16.0616 15.716 16.0616C15.5038 16.0616 15.3003 15.9773 15.1503 15.8272C15.0003 15.6772 14.916 15.4737 14.916 15.2616ZM12.516 14.4616C12.3038 14.4616 12.1003 14.5458 11.9503 14.6959C11.8003 14.8459 11.716 15.0494 11.716 15.2616C11.716 15.4737 11.8003 15.6772 11.9503 15.8272C12.1003 15.9773 12.3038 16.0616 12.516 16.0616C12.7282 16.0616 12.9316 15.9773 13.0817 15.8272C13.2317 15.6772 13.316 15.4737 13.316 15.2616C13.316 15.0494 13.2317 14.8459 13.0817 14.6959C12.9316 14.5458 12.7282 14.4616 12.516 14.4616ZM8.51599 15.2616C8.51599 15.0494 8.60028 14.8459 8.7503 14.6959C8.90033 14.5458 9.10382 14.4616 9.31599 14.4616C9.52816 14.4616 9.73165 14.5458 9.88167 14.6959C10.0317 14.8459 10.116 15.0494 10.116 15.2616C10.116 15.4737 10.0317 15.6772 9.88167 15.8272C9.73165 15.9773 9.52816 16.0616 9.31599 16.0616C9.10382 16.0616 8.90033 15.9773 8.7503 15.8272C8.60028 15.6772 8.51599 15.4737 8.51599 15.2616ZM6.11599 14.4616C5.90382 14.4616 5.70033 14.5458 5.5503 14.6959C5.40028 14.8459 5.31599 15.0494 5.31599 15.2616C5.31599 15.4737 5.40028 15.6772 5.5503 15.8272C5.70033 15.9773 5.90382 16.0616 6.11599 16.0616C6.32816 16.0616 6.53165 15.9773 6.68167 15.8272C6.8317 15.6772 6.91599 15.4737 6.91599 15.2616C6.91599 15.0494 6.8317 14.8459 6.68167 14.6959C6.53165 14.5458 6.32816 14.4616 6.11599 14.4616ZM5.31599 18.4616C5.31599 18.2494 5.40028 18.0459 5.5503 17.8959C5.70033 17.7458 5.90382 17.6616 6.11599 17.6616C6.32816 17.6616 6.53165 17.7458 6.68167 17.8959C6.8317 18.0459 6.91599 18.2494 6.91599 18.4616C6.91599 18.6737 6.8317 18.8772 6.68167 19.0272C6.53165 19.1773 6.32816 19.2616 6.11599 19.2616C5.90382 19.2616 5.70033 19.1773 5.5503 19.0272C5.40028 18.8772 5.31599 18.6737 5.31599 18.4616ZM9.31599 17.6616C9.10382 17.6616 8.90033 17.7458 8.7503 17.8959C8.60028 18.0459 8.51599 18.2494 8.51599 18.4616C8.51599 18.6737 8.60028 18.8772 8.7503 19.0272C8.90033 19.1773 9.10382 19.2616 9.31599 19.2616C9.52816 19.2616 9.73165 19.1773 9.88167 19.0272C10.0317 18.8772 10.116 18.6737 10.116 18.4616C10.116 18.2494 10.0317 18.0459 9.88167 17.8959C9.73165 17.7458 9.52816 17.6616 9.31599 17.6616ZM11.716 18.4616C11.716 18.2494 11.8003 18.0459 11.9503 17.8959C12.1003 17.7458 12.3038 17.6616 12.516 17.6616C12.7282 17.6616 12.9316 17.7458 13.0817 17.8959C13.2317 18.0459 13.316 18.2494 13.316 18.4616C13.316 18.6737 13.2317 18.8772 13.0817 19.0272C12.9316 19.1773 12.7282 19.2616 12.516 19.2616C12.3038 19.2616 12.1003 19.1773 11.9503 19.0272C11.8003 18.8772 11.716 18.6737 11.716 18.4616ZM15.716 17.6616C15.5038 17.6616 15.3003 17.7458 15.1503 17.8959C15.0003 18.0459 14.916 18.2494 14.916 18.4616C14.916 18.6737 15.0003 18.8772 15.1503 19.0272C15.3003 19.1773 15.5038 19.2616 15.716 19.2616C15.9282 19.2616 16.1316 19.1773 16.2817 19.0272C16.4317 18.8772 16.516 18.6737 16.516 18.4616C16.516 18.2494 16.4317 18.0459 16.2817 17.8959C16.1316 17.7458 15.9282 17.6616 15.716 17.6616Z" fill="#505050"/>
</svg>
