<svg width="25" height="25" viewBox="0 0 25 25" fill="none" xmlns="http://www.w3.org/2000/svg">
<g clip-path="url(#clip0_394_165)">
<path d="M11.516 21.0616H3.51599C2.98556 21.0616 2.47685 20.8508 2.10178 20.4758C1.7267 20.1007 1.51599 19.592 1.51599 19.0616V10.0616M1.51599 10.0616H19.516M1.51599 10.0616V6.06155C1.51599 5.53112 1.7267 5.02241 2.10178 4.64734C2.47685 4.27227 2.98556 4.06155 3.51599 4.06155H5.51599M19.516 10.0616V13.0616M19.516 10.0616V6.06155C19.516 5.53112 19.3053 5.02241 18.9302 4.64734C18.5551 4.27227 18.0464 4.06155 17.516 4.06155H17.016M13.516 4.06155V2.06155M13.516 4.06155V6.06155M13.516 4.06155H9.01599M5.51599 2.06155V6.06155M13.508 18.0616H16.508M16.508 18.0616H19.516M16.508 18.0616V15.0616M16.508 18.0616V21.0616" stroke="#505050" stroke-width="1.5" stroke-linecap="round" stroke-linejoin="round"/>
</g>
<defs>
<clipPath id="clip0_394_165">
<rect width="24" height="24" fill="white" transform="translate(0.515991 0.061554)"/>
</clipPath>
</defs>
</svg>
