<svg width="25" height="25" viewBox="0 0 25 25" fill="none" xmlns="http://www.w3.org/2000/svg">
<path d="M10.395 14.1826L12.516 12.0616M12.516 12.0616L14.637 9.94055M12.516 12.0616L10.395 9.94055M12.516 12.0616L14.637 14.1826M21.516 3.66155V20.4616C21.516 20.6207 21.4528 20.7733 21.3403 20.8858C21.2277 20.9983 21.0751 21.0616 20.916 21.0616H4.11599C3.95686 21.0616 3.80425 20.9983 3.69173 20.8858C3.57921 20.7733 3.51599 20.6207 3.51599 20.4616V3.66155C3.51599 3.50242 3.57921 3.34981 3.69173 3.23729C3.80425 3.12477 3.95686 3.06155 4.11599 3.06155H20.916C21.0751 3.06155 21.2277 3.12477 21.3403 3.23729C21.4528 3.34981 21.516 3.50242 21.516 3.66155Z" stroke="#505050" stroke-width="1.5" stroke-linecap="round" stroke-linejoin="round"/>
</svg>
