<svg width="25" height="25" viewBox="0 0 25 25" fill="none" xmlns="http://www.w3.org/2000/svg">
<g clip-path="url(#clip0_394_605)">
<path d="M10.566 10.6685L3.49599 17.7386C3.31004 17.9243 3.16252 18.1449 3.06187 18.3877C2.96122 18.6305 2.90942 18.8907 2.90942 19.1535C2.90942 19.4164 2.96122 19.6766 3.06187 19.9194C3.16252 20.1622 3.31004 20.3828 3.49599 20.5686C3.87104 20.9435 4.37966 21.1541 4.90999 21.1541C5.44032 21.1541 5.94893 20.9435 6.32399 20.5686L13.394 13.4965M17.709 13.8615L21.587 17.7395C21.9619 18.1146 22.1726 18.6232 22.1726 19.1535C22.1726 19.6839 21.9619 20.1925 21.587 20.5676C21.2119 20.9425 20.7033 21.1531 20.173 21.1531C19.6427 21.1531 19.134 20.9425 18.759 20.5676L12.55 14.3595M7.24899 5.96555L5.12599 6.67155L3.00599 3.13655L4.41999 1.72255L7.95599 3.84355L7.24899 5.96555ZM7.24899 5.96555L10.079 8.79555" stroke="#505050" stroke-width="1.5" stroke-linecap="round" stroke-linejoin="round"/>
<path d="M10.566 10.6686C9.72199 8.51556 9.88699 5.69056 11.627 3.95056C13.367 2.21056 16.577 1.82956 18.344 2.89056L15.304 5.93056L15.021 9.04156L18.132 8.75956L21.172 5.71856C22.234 7.48656 21.852 10.6966 20.112 12.4356C18.372 14.1756 15.548 14.3406 13.395 13.4966" stroke="#505050" stroke-width="1.5" stroke-linecap="round" stroke-linejoin="round"/>
</g>
<defs>
<clipPath id="clip0_394_605">
<rect width="24" height="24" fill="white" transform="translate(0.515991 0.061554)"/>
</clipPath>
</defs>
</svg>
