<svg width="25" height="25" viewBox="0 0 25 25" fill="none" xmlns="http://www.w3.org/2000/svg">
<path d="M19.916 20.0615H10.116C9.95686 20.0615 9.80425 19.9983 9.69173 19.8858C9.5792 19.7733 9.51599 19.6207 9.51599 19.4615V9.66152C9.51599 9.50239 9.5792 9.34978 9.69173 9.23726C9.80425 9.12474 9.95686 9.06152 10.116 9.06152H19.916C20.0751 9.06152 20.2277 9.12474 20.3403 9.23726C20.4528 9.34978 20.516 9.50239 20.516 9.66152V19.4615C20.516 19.6207 20.4528 19.7733 20.3403 19.8858C20.2277 19.9983 20.0751 20.0615 19.916 20.0615Z" stroke="#505050" stroke-width="1.5" stroke-linecap="round" stroke-linejoin="round"/>
<path d="M15.516 9.06152V4.66152C15.516 4.50239 15.4528 4.34978 15.3403 4.23726C15.2277 4.12474 15.0751 4.06152 14.916 4.06152H5.11599C4.95686 4.06152 4.80425 4.12474 4.69173 4.23726C4.57921 4.34978 4.51599 4.50239 4.51599 4.66152V14.4615C4.51599 14.6207 4.57921 14.7733 4.69173 14.8858C4.80425 14.9983 4.95686 15.0615 5.11599 15.0615H9.51599" stroke="#505050" stroke-width="1.5" stroke-linecap="round" stroke-linejoin="round"/>
</svg>
