<svg width="24" height="24" viewBox="0 0 24 24" fill="none" xmlns="http://www.w3.org/2000/svg">
<path d="M15 8L19 4M19 4V7.55556M19 4H15.4444" stroke="#505050" stroke-width="1.3" stroke-linecap="round"/>
<path d="M5.5 8V4H11" stroke="#505050" stroke-width="1.3" stroke-linecap="round"/>
<path d="M5 21C5.50909 21 14.5455 21 19 21V19" stroke="#505050" stroke-width="1.3" stroke-linecap="round"/>
<path d="M6.10952 11.03C5.809 11.03 5.5422 11.0872 5.30914 11.2016C5.07608 11.3161 4.87675 11.4814 4.71116 11.6975C4.55169 11.9137 4.42903 12.1744 4.34317 12.4796C4.26344 12.7847 4.22357 13.1281 4.22357 13.5095C4.22357 14.0245 4.29103 14.4664 4.42596 14.8352C4.56089 15.1975 4.76636 15.4773 5.04235 15.6744C5.32448 15.8715 5.67713 15.97 6.10032 15.97C6.38245 15.97 6.65231 15.9414 6.9099 15.8842C7.17363 15.8206 7.44962 15.738 7.73788 15.6362V16.6757C7.46802 16.7902 7.1951 16.8728 6.9191 16.9237C6.64924 16.9746 6.33645 17 5.98073 17C5.30608 17 4.74796 16.8569 4.30637 16.5708C3.86478 16.2784 3.53665 15.8715 3.32199 15.3501C3.10733 14.8224 3 14.2057 3 13.5C3 12.985 3.06746 12.5145 3.20239 12.0886C3.34346 11.6626 3.54279 11.2938 3.80038 10.9823C4.06411 10.6708 4.38917 10.4292 4.77556 10.2575C5.16195 10.0858 5.6066 10 6.10952 10C6.44071 10 6.76577 10.0413 7.0847 10.124C7.40976 10.2003 7.71335 10.3084 7.99548 10.4482L7.59069 11.4496C7.35763 11.3415 7.11536 11.2461 6.8639 11.1635C6.61858 11.0745 6.36712 11.03 6.10952 11.03Z" fill="#505050"/>
<path d="M13.8904 15.045C13.8904 15.4455 13.7953 15.792 13.6052 16.0845C13.4151 16.3769 13.1391 16.6026 12.7772 16.7616C12.4215 16.9205 11.9952 17 11.4984 17C11.2592 17 11.0292 16.9841 10.8084 16.9523C10.5938 16.9269 10.3883 16.8856 10.1921 16.8283C10.0019 16.7711 9.82407 16.7012 9.65848 16.6185V15.4741C9.93447 15.6013 10.2381 15.7189 10.5693 15.827C10.9004 15.9287 11.2378 15.9796 11.5812 15.9796C11.845 15.9796 12.0596 15.9446 12.2252 15.8747C12.3969 15.7984 12.5227 15.6966 12.6024 15.5695C12.6821 15.436 12.722 15.2834 12.722 15.1117C12.722 14.921 12.6699 14.7589 12.5656 14.6253C12.4613 14.4918 12.308 14.3678 12.1056 14.2534C11.9032 14.139 11.6518 14.0182 11.3512 13.891C11.1488 13.802 10.9495 13.7035 10.7533 13.5954C10.5631 13.4809 10.3914 13.3442 10.2381 13.1853C10.0847 13.0263 9.96207 12.8388 9.87007 12.6226C9.77808 12.4064 9.73208 12.1521 9.73208 11.8597C9.73208 11.4718 9.82101 11.1381 9.99887 10.8583C10.1829 10.5786 10.4374 10.3656 10.7625 10.2193C11.0936 10.0731 11.477 10 11.9124 10C12.262 10 12.5901 10.0381 12.8968 10.1144C13.2035 10.1907 13.507 10.2988 13.8076 10.4387L13.4304 11.421C13.1605 11.3002 12.8999 11.2048 12.6484 11.1349C12.3969 11.0649 12.1394 11.03 11.8756 11.03C11.6671 11.03 11.4892 11.0649 11.342 11.1349C11.1948 11.1985 11.0844 11.2906 11.0108 11.4114C10.9372 11.5322 10.9004 11.6721 10.9004 11.8311C10.9004 12.0154 10.9464 12.1712 11.0384 12.2984C11.1304 12.4255 11.2715 12.5463 11.4616 12.6608C11.6579 12.7688 11.9094 12.8928 12.216 13.0327C12.5717 13.1916 12.8723 13.3569 13.1176 13.5286C13.3629 13.7003 13.553 13.9069 13.688 14.1485C13.8229 14.3901 13.8904 14.6889 13.8904 15.045Z" fill="#505050"/>
<path d="M21 10.0954L18.7277 16.9046H17.4673L15.1949 10.0954H16.4001L17.7249 14.2629C17.7678 14.3774 17.8107 14.5268 17.8537 14.7112C17.9027 14.8892 17.9487 15.0736 17.9917 15.2643C18.0407 15.4487 18.0775 15.614 18.1021 15.7602C18.1205 15.614 18.1511 15.4487 18.1941 15.2643C18.2431 15.0736 18.2922 14.8892 18.3413 14.7112C18.3903 14.5268 18.4333 14.3774 18.4701 14.2629L19.7948 10.0954H21Z" fill="#505050"/>
</svg>
