<svg width="25" height="25" viewBox="0 0 25 25" fill="none" xmlns="http://www.w3.org/2000/svg">
<path d="M9.01599 17.5616H9.71599L14.0285 13.2491L13.3285 12.5491L9.01599 16.8616V17.5616ZM16.166 12.5241L14.041 10.4241L14.741 9.72405C14.9327 9.53239 15.1682 9.43655 15.4475 9.43655C15.7268 9.43655 15.9622 9.53239 16.1535 9.72405L16.8535 10.4241C17.0452 10.6157 17.1452 10.8471 17.1535 11.1181C17.1618 11.3891 17.0702 11.6202 16.8785 11.8116L16.166 12.5241ZM15.441 13.2616L10.141 18.5616H8.01599V16.4366L13.316 11.1366L15.441 13.2616ZM13.6785 12.8991L13.3285 12.5491L14.0285 13.2491L13.6785 12.8991Z" fill="#505050"/>
<path d="M2.51599 19.0616V5.06155C2.51599 4.53112 2.7267 4.02241 3.10178 3.64734C3.47685 3.27227 3.98556 3.06155 4.51599 3.06155H20.516C21.0464 3.06155 21.5551 3.27227 21.9302 3.64734C22.3053 4.02241 22.516 4.53112 22.516 5.06155V19.0616C22.516 19.592 22.3053 20.1007 21.9302 20.4758C21.5551 20.8508 21.0464 21.0616 20.516 21.0616H4.51599C3.98556 21.0616 3.47685 20.8508 3.10178 20.4758C2.7267 20.1007 2.51599 19.592 2.51599 19.0616Z" stroke="#505050" stroke-width="1.5"/>
<path d="M2.51599 7.06155H22.516" stroke="#505050" stroke-width="1.5" stroke-linecap="round" stroke-linejoin="round"/>
</svg>
