<svg width="25" height="25" viewBox="0 0 25 25" fill="none" xmlns="http://www.w3.org/2000/svg">
<path d="M12.516 12.0615H19.516M19.516 12.0615L16.516 15.0615M19.516 12.0615L16.516 9.06152M19.516 6.06152V5.06152C19.516 4.53109 19.3053 4.02238 18.9302 3.64731C18.5551 3.27224 18.0464 3.06152 17.516 3.06152H7.51599C6.98556 3.06152 6.47685 3.27224 6.10178 3.64731C5.7267 4.02238 5.51599 4.53109 5.51599 5.06152V19.0615C5.51599 19.592 5.7267 20.1007 6.10178 20.4757C6.47685 20.8508 6.98556 21.0615 7.51599 21.0615H17.516C18.0464 21.0615 18.5551 20.8508 18.9302 20.4757C19.3053 20.1007 19.516 19.592 19.516 19.0615V18.0615" stroke="#505050" stroke-width="1.5" stroke-linecap="round" stroke-linejoin="round"/>
</svg>
