<svg width="25" height="25" viewBox="0 0 25 25" fill="none" xmlns="http://www.w3.org/2000/svg">
<path d="M7.05912 19.9615V18.9566H17.4721V17.583H18.4721V19.9615H7.05912ZM11.1851 16.1614C10.809 16.0041 10.4665 15.776 10.1761 15.49L10.7181 14.8511C10.9547 15.0711 11.2257 15.2503 11.5205 15.3821C11.8204 15.5156 12.1454 15.5838 12.4736 15.5821C12.7917 15.6023 13.1077 15.5184 13.3736 15.3426C13.5748 15.1988 13.6919 14.9649 13.6871 14.7176C13.6908 14.5876 13.6635 14.4586 13.6071 14.3416C13.552 14.2406 13.4771 14.1511 13.3871 14.0791C13.2834 13.9986 13.1702 13.9314 13.0501 13.8792C12.9201 13.8195 12.7765 13.7591 12.6216 13.6951L11.7621 13.3101C11.6007 13.2451 11.4445 13.1681 11.2946 13.0796C11.1403 12.9903 10.9988 12.8799 10.8741 12.7522C10.7482 12.6209 10.6459 12.4686 10.5716 12.3023C10.4907 12.1141 10.4509 11.9105 10.4551 11.7054C10.4531 11.4744 10.5045 11.2461 10.6051 11.0384C10.7051 10.8304 10.8504 10.6472 11.0302 10.5025C11.2249 10.3471 11.446 10.2286 11.6831 10.1524C11.9531 10.0652 12.2356 10.0226 12.5192 10.0254C12.8849 10.0228 13.2472 10.0932 13.5848 10.2329C13.903 10.3617 14.1919 10.5532 14.4347 10.7959L13.9497 11.396C13.7572 11.2249 13.5376 11.0871 13.2997 10.9881C13.0365 10.8853 12.7551 10.8356 12.4722 10.8421C12.196 10.8286 11.9227 10.9044 11.6927 11.0581C11.5009 11.193 11.3904 11.4155 11.3987 11.6497C11.3961 11.77 11.4263 11.8887 11.4862 11.9927C11.5481 12.0928 11.6295 12.1796 11.7257 12.2471C11.8318 12.3229 11.9462 12.3861 12.0667 12.4351L12.4627 12.5992L13.2942 12.9651C13.4786 13.036 13.6566 13.1227 13.8262 13.2237C13.9829 13.317 14.1263 13.431 14.2527 13.562C14.3752 13.6929 14.4717 13.8457 14.5373 14.012C14.608 14.2028 14.6418 14.4058 14.6372 14.6094C14.6378 14.8491 14.5867 15.0856 14.4872 15.3035C14.3858 15.5255 14.2354 15.7216 14.0473 15.877C13.8399 16.0475 13.6025 16.178 13.3473 16.2615C13.0461 16.3595 12.7308 16.4073 12.4139 16.4026C11.9922 16.4054 11.5741 16.3237 11.1846 16.1617L11.1851 16.1614ZM6.16008 16.189C5.83068 16.0493 5.5365 15.838 5.2996 15.5696C5.0464 15.2779 4.85185 14.9397 4.7266 14.574C4.57935 14.1395 4.50834 13.6829 4.51664 13.2239C4.50954 12.7671 4.58065 12.3123 4.7266 11.8794C4.85245 11.5098 5.04918 11.1683 5.30558 10.8738C5.54878 10.6011 5.84862 10.3848 6.18412 10.2403C6.53687 10.0901 6.91718 10.0149 7.30058 10.0193C7.64788 10.0126 7.99138 10.0918 8.30058 10.2503C8.56903 10.3846 8.81269 10.5638 9.02104 10.7798L8.49699 11.3714C8.34624 11.2131 8.16963 11.0817 7.97453 10.9829C7.76518 10.8817 7.53498 10.8317 7.30253 10.8369C7.04318 10.8329 6.78633 10.8896 6.55253 11.002C6.32768 11.1123 6.13102 11.273 5.97807 11.4715C5.81017 11.6933 5.68519 11.9444 5.60954 12.2124C5.51839 12.5314 5.4744 12.8624 5.47905 13.1944C5.4738 13.5308 5.51779 13.8665 5.60954 14.1905C5.68519 14.4616 5.81165 14.716 5.9821 14.9405C6.13675 15.1405 6.33534 15.3028 6.56254 15.4146C6.79824 15.5274 7.05707 15.5841 7.31852 15.5796C7.56842 15.5838 7.81547 15.5257 8.03752 15.4107C8.26152 15.2882 8.46097 15.1252 8.62602 14.9307L9.15007 15.5047C8.92057 15.7817 8.63576 16.0071 8.31401 16.1673C7.97331 16.3257 7.60087 16.4041 7.22502 16.3963C6.85967 16.4011 6.49721 16.3312 6.15971 16.1909L6.16008 16.189ZM17.4986 16.2891L15.5656 10.1341H16.5556L17.4806 13.3382C17.5865 13.6947 17.6806 14.0324 17.7612 14.3487C17.8417 14.6652 17.9357 15.0017 18.0402 15.3582H18.0787C18.1901 15.0017 18.2866 14.6647 18.3676 14.3487C18.4485 14.0329 18.5421 13.6947 18.6481 13.3382L19.5641 10.1341H20.5157L18.5906 16.2891H17.4986ZM13.6161 8.13919L16.7452 5.06619H14.6896V4.06155H18.4731V7.86649H17.4731V5.75858L14.3166 8.85867L13.6161 8.13919ZM6.55912 8.49881V4.06155H12.5157V5.06644H7.55766V8.49832L6.55912 8.49881Z" fill="#505050"/>
</svg>
