<svg width="25" height="25" viewBox="0 0 25 25" fill="none" xmlns="http://www.w3.org/2000/svg">
<path d="M17.4888 7.49262V9.37317L20.7762 6.0858L17.4901 3.06155V4.84586C15.0099 5.05952 13.1049 7.13438 13.1034 9.62378C13.1034 9.73003 13.1034 9.83315 13.1134 9.93627C14.0559 8.42349 15.709 7.50052 17.4913 7.492" fill="#505050"/>
<path d="M22.4524 10.1444L18.9575 20.4115C18.8901 20.6121 18.7017 20.7469 18.49 20.7459H8.71044H7.67923H4.99559C4.7673 20.7463 4.56862 20.5898 4.51561 20.3678L2.53444 11.7337C2.48476 11.5169 2.53662 11.2892 2.67532 11.1152C2.81401 10.9412 3.02442 10.8399 3.24691 10.84H7.75298L8.17608 9.59008C8.39015 8.95629 8.98394 8.5291 9.6529 8.52762H12.4603C12.3852 8.85215 12.3554 9.1855 12.3715 9.5182H9.6529C9.40802 9.51768 9.19049 9.67446 9.11354 9.90694L8.80106 10.8331H8.92605C9.44853 10.8347 9.93118 11.1126 10.1947 11.5637L10.7985 12.5962C10.8104 12.6177 10.8332 12.6309 10.8578 12.6306H16.2476C16.7829 12.631 17.2473 13.0003 17.3682 13.5218L18.5357 18.5785L21.5149 9.82694C21.5401 9.75664 21.5281 9.67837 21.483 9.61883C21.4403 9.55758 21.3702 9.52133 21.2955 9.52195H18.5082C18.8594 9.20947 19.27 8.84073 19.6112 8.53137H21.2987C21.6916 8.53222 22.0601 8.72227 22.2885 9.04195C22.517 9.36162 22.5775 9.77177 22.4511 10.1438" fill="#505050"/>
</svg>
