<svg width="25" height="25" viewBox="0 0 25 25" fill="none" xmlns="http://www.w3.org/2000/svg">
<path d="M4.51599 3.06155H20.516C20.7812 3.06155 21.0356 3.16691 21.2231 3.35445C21.4106 3.54198 21.516 3.79634 21.516 4.06155V5.64755C21.5159 5.91275 21.4105 6.16706 21.223 6.35455L14.808 12.7686C14.6208 12.9562 14.5158 13.2105 14.516 13.4756V19.7806C14.516 19.9326 14.4813 20.0826 14.4147 20.2192C14.348 20.3558 14.251 20.4754 14.1312 20.5689C14.0114 20.6624 13.8718 20.7274 13.7231 20.7589C13.5744 20.7903 13.4204 20.7875 13.273 20.7506L11.273 20.2506C11.0567 20.1964 10.8648 20.0715 10.7276 19.8958C10.5905 19.72 10.516 19.5035 10.516 19.2806V13.4756C10.5159 13.2104 10.4105 12.956 10.223 12.7686L3.80799 6.35455C3.62081 6.1669 3.51578 5.91261 3.51599 5.64755V4.06155C3.51599 3.79634 3.62135 3.54198 3.80888 3.35445C3.99642 3.16691 4.25078 3.06155 4.51599 3.06155Z" stroke="#505050" stroke-width="1.5" stroke-linecap="round" stroke-linejoin="round"/>
</svg>
