<svg width="25" height="25" viewBox="0 0 25 25" fill="none" xmlns="http://www.w3.org/2000/svg">
<path d="M2.51599 11.0616V4.66155C2.51599 4.50242 2.57921 4.34981 2.69173 4.23729C2.80425 4.12477 2.95686 4.06155 3.11599 4.06155H9.29399C9.437 4.06154 9.57531 4.11261 9.68399 4.20555L12.848 6.91755C12.9567 7.0105 13.095 7.06156 13.238 7.06155H21.916C21.9948 7.06155 22.0728 7.07707 22.1456 7.10723C22.2184 7.13738 22.2845 7.18157 22.3403 7.23729C22.396 7.29301 22.4402 7.35915 22.4703 7.43194C22.5005 7.50474 22.516 7.58276 22.516 7.66155V11.0616M2.51599 11.0616V19.4616C2.51599 19.6207 2.57921 19.7733 2.69173 19.8858C2.80425 19.9983 2.95686 20.0616 3.11599 20.0616H21.916C22.0751 20.0616 22.2277 19.9983 22.3403 19.8858C22.4528 19.7733 22.516 19.6207 22.516 19.4616V11.0616M2.51599 11.0616H22.516" stroke="#505050" stroke-width="1.5" stroke-linecap="round" stroke-linejoin="round"/>
</svg>
