<svg width="25" height="25" viewBox="0 0 25 25" fill="none" xmlns="http://www.w3.org/2000/svg">
<g clip-path="url(#clip0_394_692)">
<path d="M13.783 15.2718C13.6767 15.2718 13.57 15.2679 13.463 15.2603C12.1695 15.1679 10.98 14.5179 10.2035 13.4793C10.0543 13.2798 10.0229 13.0159 10.1211 12.7871C10.2192 12.5582 10.432 12.399 10.6793 12.3695C10.9266 12.3401 11.1708 12.4448 11.32 12.6443C11.8545 13.3588 12.673 13.806 13.5632 13.8697C14.4533 13.9335 15.3271 13.6074 15.958 12.9763L18.2215 10.7128C18.9985 9.9357 19.302 8.80312 19.0176 7.74165C18.7332 6.68018 17.9041 5.85107 16.8426 5.56665C15.7811 5.28223 14.6485 5.5857 13.8715 6.36276L12.5715 7.65476C12.2961 7.90881 11.8691 7.89965 11.6048 7.63403C11.3405 7.36841 11.3335 6.94138 11.589 6.66726L12.889 5.37676C14.6417 3.67384 17.4372 3.69452 19.1645 5.4232C20.8918 7.15187 20.9103 9.94741 19.206 11.6988L16.9425 13.9623C16.1048 14.8007 14.9682 15.2717 13.783 15.2718Z" fill="#505050"/>
<path d="M8.98499 20.0523C7.17743 20.0531 5.5475 18.9646 4.85567 17.2947C4.16384 15.6247 4.54645 13.7025 5.82499 12.4248L8.08849 10.1613C9.00534 9.24415 10.2753 8.77047 11.5688 8.86316C12.8623 8.95586 14.0518 9.60578 14.8285 10.6443C14.9776 10.8437 15.0091 11.1076 14.9109 11.3365C14.8128 11.5654 14.6 11.7245 14.3527 11.754C14.1054 11.7834 13.8611 11.6787 13.712 11.4793C13.1775 10.7647 12.3589 10.3175 11.4688 10.2538C10.5787 10.1901 9.70484 10.5161 9.07399 11.1473L6.81099 13.4108C6.03394 14.1878 5.73046 15.3204 6.01488 16.3819C6.29931 17.4433 7.12841 18.2724 8.18988 18.5569C9.25136 18.8413 10.3839 18.5378 11.161 17.7608L12.4505 16.4703C12.7226 16.198 13.164 16.1979 13.4362 16.47C13.7085 16.7421 13.7086 17.1835 13.4365 17.4558L12.1445 18.7453C11.307 19.5837 10.1701 20.0541 8.98499 20.0523Z" fill="#505050"/>
</g>
<defs>
<clipPath id="clip0_394_692">
<rect width="16" height="16" fill="white" transform="translate(4.51599 4.06152)"/>
</clipPath>
</defs>
</svg>
