<svg width="25" height="25" viewBox="0 0 25 25" fill="none" xmlns="http://www.w3.org/2000/svg">
<path fill-rule="evenodd" clip-rule="evenodd" d="M13.87 8.81156H4.51599C4.31708 8.81156 4.12631 8.73254 3.98566 8.59189C3.84501 8.45124 3.76599 8.26047 3.76599 8.06156C3.76599 7.86265 3.84501 7.67188 3.98566 7.53123C4.12631 7.39058 4.31708 7.31156 4.51599 7.31156H13.87C14.0334 6.73564 14.3803 6.22875 14.8579 5.86781C15.3355 5.50687 15.9178 5.31158 16.5165 5.31158C17.1152 5.31158 17.6975 5.50687 18.1751 5.86781C18.6527 6.22875 18.9996 6.73564 19.163 7.31156H20.516C20.7149 7.31156 20.9057 7.39058 21.0463 7.53123C21.187 7.67188 21.266 7.86265 21.266 8.06156C21.266 8.26047 21.187 8.45124 21.0463 8.59189C20.9057 8.73254 20.7149 8.81156 20.516 8.81156H19.162C18.9986 9.38748 18.6517 9.89437 18.1741 10.2553C17.6965 10.6162 17.1142 10.8115 16.5155 10.8115C15.9168 10.8115 15.3345 10.6162 14.8569 10.2553C14.3793 9.89437 14.0324 9.38748 13.869 8.81156H13.87ZM15.266 8.06156C15.266 7.73004 15.3977 7.4121 15.6321 7.17768C15.8665 6.94326 16.1845 6.81156 16.516 6.81156C16.8475 6.81156 17.1655 6.94326 17.3999 7.17768C17.6343 7.4121 17.766 7.73004 17.766 8.06156C17.766 8.39308 17.6343 8.71102 17.3999 8.94544C17.1655 9.17986 16.8475 9.31156 16.516 9.31156C16.1845 9.31156 15.8665 9.17986 15.6321 8.94544C15.3977 8.71102 15.266 8.39308 15.266 8.06156ZM11.162 16.8116H20.516C20.7149 16.8116 20.9057 16.7325 21.0463 16.5919C21.187 16.4512 21.266 16.2605 21.266 16.0616C21.266 15.8626 21.187 15.6719 21.0463 15.5312C20.9057 15.3906 20.7149 15.3116 20.516 15.3116H11.162C10.9983 14.736 10.6514 14.2296 10.1739 13.869C9.69638 13.5084 9.11434 13.3133 8.51599 13.3133C7.91764 13.3133 7.33561 13.5084 6.85812 13.869C6.38063 14.2296 6.03372 14.736 5.86999 15.3116H4.51599C4.31708 15.3116 4.12631 15.3906 3.98566 15.5312C3.84501 15.6719 3.76599 15.8626 3.76599 16.0616C3.76599 16.2605 3.84501 16.4512 3.98566 16.5919C4.12631 16.7325 4.31708 16.8116 4.51599 16.8116H5.86999C6.03372 17.3871 6.38063 17.8935 6.85812 18.2541C7.33561 18.6147 7.91764 18.8098 8.51599 18.8098C9.11434 18.8098 9.69638 18.6147 10.1739 18.2541C10.6514 17.8935 10.9983 17.3871 11.162 16.8116ZM7.26599 16.0616C7.26599 15.73 7.39769 15.4121 7.63211 15.1777C7.86653 14.9433 8.18447 14.8116 8.51599 14.8116C8.84751 14.8116 9.16545 14.9433 9.39987 15.1777C9.63429 15.4121 9.76599 15.73 9.76599 16.0616C9.76599 16.3931 9.63429 16.711 9.39987 16.9454C9.16545 17.1799 8.84751 17.3116 8.51599 17.3116C8.18447 17.3116 7.86653 17.1799 7.63211 16.9454C7.39769 16.711 7.26599 16.3931 7.26599 16.0616Z" fill="#505050"/>
</svg>
