<svg width="25" height="25" viewBox="0 0 25 25" fill="none" xmlns="http://www.w3.org/2000/svg">
<path d="M6.16443 1.60371C5.60662 1.74433 5.12381 2.27402 5.03943 2.84121L5.00662 3.06152H4.50506C3.67537 3.06152 3.18318 3.24433 2.69099 3.73652C2.37693 4.05058 2.19412 4.36464 2.08631 4.78183C1.97849 5.18495 1.97849 18.9381 2.08631 19.3412C2.30662 20.1803 3.01443 20.8553 3.83943 21.0146C3.99412 21.0428 5.17537 21.0615 6.86287 21.0615H9.63318L9.77381 21.3334C9.94724 21.6709 10.4066 22.135 10.7254 22.299C11.2551 22.5662 11.1613 22.5615 15.4738 22.5615C17.9769 22.5615 19.5332 22.5428 19.6926 22.5146C20.5504 22.3506 21.3051 21.5959 21.4691 20.7381C21.5347 20.3912 21.5347 9.73183 21.4691 9.38495C21.3519 8.78027 20.8832 8.13339 20.3535 7.85214C19.8426 7.58027 19.6926 7.56152 17.8972 7.56152H16.266V6.34745C16.266 5.68183 16.2426 5.02558 16.2191 4.88495C16.1019 4.28027 15.6332 3.63339 15.1035 3.35214C14.7051 3.13652 14.3535 3.06152 13.7769 3.06152H13.2754L13.2426 2.84121C13.1722 2.38183 12.8535 1.95058 12.4082 1.71152L12.1644 1.58496L9.23474 1.57558C7.62224 1.57089 6.24412 1.58496 6.16443 1.60371ZM11.766 3.81152V4.56152H9.14099H6.51599V3.81152V3.06152H9.14099H11.766V3.81152ZM5.03943 4.78183C5.10506 5.24121 5.43318 5.67245 5.88318 5.91152L6.11756 6.03808H9.11756H12.1176L12.3801 5.9162C12.8347 5.70058 13.1722 5.25058 13.2472 4.75839L13.2801 4.55214L13.7863 4.57089C14.3301 4.58496 14.4379 4.62714 14.6441 4.90839C14.7379 5.03027 14.7426 5.10995 14.7566 6.30058L14.7707 7.56152H13.1394C11.3676 7.56152 11.2082 7.58027 10.7254 7.82402C10.4113 7.98339 9.93787 8.45683 9.77849 8.77089C9.50662 9.30527 9.51599 9.10839 9.51599 14.5553V19.5615L6.75506 19.5521C4.04568 19.5381 3.98943 19.5381 3.86287 19.4396C3.79256 19.3881 3.68943 19.285 3.63787 19.2146C3.53943 19.0881 3.53943 19.0693 3.52537 12.1881C3.52068 8.3912 3.52537 5.22245 3.53943 5.13808C3.57224 4.95058 3.76912 4.71152 3.96131 4.62714C4.04568 4.58964 4.28474 4.5662 4.55193 4.56152H5.00662L5.03943 4.78183ZM19.6691 9.18339C19.7394 9.23495 19.8426 9.33808 19.8941 9.40839C19.9926 9.53496 19.9926 9.55371 19.9926 15.0615C19.9926 20.5693 19.9926 20.5881 19.8941 20.7146C19.8426 20.785 19.7394 20.8881 19.6691 20.9396C19.5426 21.0381 19.5097 21.0381 15.516 21.0381C11.5222 21.0381 11.4894 21.0381 11.3629 20.9396C11.2926 20.8881 11.1894 20.785 11.1379 20.7146C11.0394 20.5881 11.0394 20.5553 11.0254 15.1881C11.0207 12.2162 11.0254 9.72246 11.0394 9.63808C11.0722 9.45058 11.2691 9.21152 11.4613 9.12714C11.5738 9.07558 12.3426 9.06621 15.5722 9.07558C19.5004 9.08495 19.5426 9.08495 19.6691 9.18339Z" fill="#505050"/>
<path d="M12.9613 10.6272C12.6472 10.7631 12.4691 11.124 12.5347 11.4756C12.5769 11.6959 12.8113 11.9537 13.0222 12.0147C13.1394 12.0522 14.0019 12.0615 15.6191 12.0522C17.9816 12.0381 18.0425 12.0334 18.1691 11.9397C18.4175 11.7568 18.4925 11.6068 18.4925 11.3115C18.4925 11.0162 18.4175 10.8662 18.1691 10.6834C18.0425 10.585 17.9816 10.585 15.5722 10.5756C13.5894 10.5662 13.0738 10.5756 12.9613 10.6272Z" fill="#505050"/>
<path d="M12.9613 12.8772C12.6472 13.0131 12.4691 13.374 12.5347 13.7256C12.5769 13.9459 12.8113 14.2037 13.0222 14.2647C13.1394 14.3022 14.0019 14.3115 15.6191 14.3022C17.9816 14.2881 18.0425 14.2834 18.1691 14.1897C18.4175 14.0068 18.4925 13.8568 18.4925 13.5615C18.4925 13.2662 18.4175 13.1162 18.1691 12.9334C18.0425 12.835 17.9816 12.835 15.5722 12.8256C13.5894 12.8162 13.0738 12.8256 12.9613 12.8772Z" fill="#505050"/>
<path d="M12.9613 15.1272C12.6472 15.2631 12.4691 15.624 12.5347 15.9756C12.5769 16.1959 12.8113 16.4537 13.0222 16.5147C13.1394 16.5522 14.0019 16.5615 15.6191 16.5522C17.9816 16.5381 18.0425 16.5334 18.1691 16.4397C18.4175 16.2568 18.4925 16.1068 18.4925 15.8115C18.4925 15.5162 18.4175 15.3662 18.1691 15.1834C18.0425 15.085 17.9816 15.085 15.5722 15.0756C13.5894 15.0662 13.0738 15.0756 12.9613 15.1272Z" fill="#505050"/>
<path d="M12.9613 17.3772C12.6472 17.5131 12.4691 17.874 12.5347 18.2256C12.5769 18.4459 12.8113 18.7037 13.0222 18.7647C13.1394 18.8022 14.0019 18.8115 15.6191 18.8022C17.9816 18.7881 18.0425 18.7834 18.1691 18.6897C18.4175 18.5068 18.4925 18.3568 18.4925 18.0615C18.4925 17.7662 18.4175 17.6162 18.1691 17.4334C18.0425 17.335 17.9816 17.335 15.5722 17.3256C13.5894 17.3162 13.0738 17.3256 12.9613 17.3772Z" fill="#505050"/>
</svg>
