<svg width="25" height="25" viewBox="0 0 25 25" fill="none" xmlns="http://www.w3.org/2000/svg">
<path d="M6.51599 18.4615V5.66152C6.51599 5.50239 6.57921 5.34978 6.69173 5.23726C6.80425 5.12474 6.95686 5.06152 7.11599 5.06152H9.91599C10.0751 5.06152 10.2277 5.12474 10.3403 5.23726C10.4528 5.34978 10.516 5.50239 10.516 5.66152V18.4615C10.516 18.6207 10.4528 18.7733 10.3403 18.8858C10.2277 18.9983 10.0751 19.0615 9.91599 19.0615H7.11599C6.95686 19.0615 6.80425 18.9983 6.69173 18.8858C6.57921 18.7733 6.51599 18.6207 6.51599 18.4615ZM14.516 18.4615V5.66152C14.516 5.50239 14.5792 5.34978 14.6917 5.23726C14.8042 5.12474 14.9569 5.06152 15.116 5.06152H17.916C18.0751 5.06152 18.2277 5.12474 18.3403 5.23726C18.4528 5.34978 18.516 5.50239 18.516 5.66152V18.4615C18.516 18.6207 18.4528 18.7733 18.3403 18.8858C18.2277 18.9983 18.0751 19.0615 17.916 19.0615H15.116C14.9569 19.0615 14.8042 18.9983 14.6917 18.8858C14.5792 18.7733 14.516 18.6207 14.516 18.4615Z" stroke="#505050" stroke-width="1.5"/>
</svg>
