<svg width="25" height="25" viewBox="0 0 25 25" fill="none" xmlns="http://www.w3.org/2000/svg">
<path d="M18.087 18.0615H20.916C21.0751 18.0615 21.2277 17.9983 21.3403 17.8858C21.4528 17.7733 21.516 17.6207 21.516 17.4615V11.0615C21.516 10.0007 21.0946 8.98324 20.3444 8.2331C19.5943 7.48295 18.5769 7.06152 17.516 7.06152H7.51599C6.45513 7.06152 5.43771 7.48295 4.68756 8.2331C3.93742 8.98324 3.51599 10.0007 3.51599 11.0615V17.4615C3.51599 17.6207 3.57921 17.7733 3.69173 17.8858C3.80425 17.9983 3.95686 18.0615 4.11599 18.0615H6.94499M8.51599 7.06152V3.66152C8.51599 3.50239 8.5792 3.34978 8.69173 3.23726C8.80425 3.12474 8.95686 3.06152 9.11599 3.06152H15.916C16.0751 3.06152 16.2277 3.12474 16.3403 3.23726C16.4528 3.34978 16.516 3.50239 16.516 3.66152V7.06152" stroke="#505050" stroke-width="1.5"/>
<path d="M6.61399 20.3765L6.94399 18.0615L7.44199 14.5765C7.46245 14.4336 7.53378 14.3028 7.6429 14.2082C7.75201 14.1136 7.89158 14.0615 8.03599 14.0615H16.996C17.1404 14.0615 17.28 14.1136 17.3891 14.2082C17.4982 14.3028 17.5695 14.4336 17.59 14.5765L18.086 18.0615L18.417 20.3765C18.4292 20.4616 18.4229 20.5484 18.3987 20.6309C18.3744 20.7133 18.3327 20.7896 18.2763 20.8546C18.22 20.9196 18.1504 20.9717 18.0722 21.0074C17.9939 21.0431 17.909 21.0615 17.823 21.0615H7.20799C7.12201 21.0615 7.03703 21.0431 6.95882 21.0074C6.8806 20.9717 6.81097 20.9196 6.75464 20.8546C6.69831 20.7896 6.6566 20.7133 6.63233 20.6309C6.60807 20.5484 6.60181 20.4616 6.61399 20.3765Z" stroke="#505050" stroke-width="1.5"/>
<path d="M17.516 10.0715L17.526 10.0605" stroke="#505050" stroke-width="1.5" stroke-linecap="round" stroke-linejoin="round"/>
</svg>
