<svg width="25" height="25" viewBox="0 0 25 25" fill="none" xmlns="http://www.w3.org/2000/svg">
<g clip-path="url(#clip0_394_467)">
<path d="M3.76598 12.6917C3.7835 7.61694 7.90562 3.51429 12.9803 3.52079C15.4714 3.51491 17.8588 4.51954 19.5961 6.30489V3.09187C19.5978 2.63305 19.9692 2.26157 20.4279 2.26035C20.8884 2.25973 21.2625 2.63235 21.2635 3.09276V9.56337H14.7628C14.302 9.56417 13.9277 9.19161 13.9267 8.73095C13.9277 8.2703 14.302 7.89768 14.7628 7.89853H18.7826C17.3481 6.17451 15.2202 5.17981 12.9778 5.18532C8.82512 5.1814 5.45221 8.5382 5.43635 12.6911C5.4519 16.8441 8.82482 20.2014 12.9778 20.1976C15.4819 20.2006 17.8246 18.9613 19.2315 16.8897C19.491 16.5083 20.0098 16.4083 20.3924 16.666C20.5762 16.7889 20.7032 16.9799 20.7454 17.1972C20.7875 17.4141 20.7414 17.6389 20.6171 17.8214C18.8994 20.3532 16.0375 21.8682 12.9778 21.8645C7.90345 21.8692 3.78245 17.7657 3.76598 12.6917Z" fill="#505050"/>
</g>
<defs>
<clipPath id="clip0_394_467">
<rect width="17.5" height="20" fill="white" transform="translate(3.76598 2.06152)"/>
</clipPath>
</defs>
</svg>
