<svg width="25" height="25" viewBox="0 0 25 25" fill="none" xmlns="http://www.w3.org/2000/svg">
<path d="M20.7447 8.46152C20.0438 6.85633 18.8898 5.49048 17.4242 4.53132C15.9586 3.57216 14.2451 3.06137 12.4935 3.06152C7.82701 3.06152 3.98851 6.61382 3.53851 11.1615" stroke="#505050" stroke-width="1.5" stroke-linecap="round" stroke-linejoin="round"/>
<path d="M16.9936 8.46155H20.9536C21.0245 8.46155 21.0947 8.44758 21.1602 8.42044C21.2257 8.39331 21.2853 8.35353 21.3354 8.30339C21.3856 8.25324 21.4253 8.19371 21.4525 8.1282C21.4796 8.06268 21.4936 7.99246 21.4936 7.92155V3.96155M4.28648 15.6615C5.67608 18.8403 8.84768 21.0615 12.5377 21.0615C17.2051 21.0615 21.0427 17.5092 21.4936 12.9615" stroke="#505050" stroke-width="1.5" stroke-linecap="round" stroke-linejoin="round"/>
<path d="M8.03851 14.5394H4.07851C3.9353 14.5394 3.79795 14.5963 3.69668 14.6975C3.59541 14.7988 3.53851 14.9362 3.53851 15.0794V19.0394" stroke="#505050" stroke-width="1.5" stroke-linecap="round" stroke-linejoin="round"/>
</svg>
