<svg width="25" height="25" viewBox="0 0 25 25" fill="none" xmlns="http://www.w3.org/2000/svg">
<path d="M3.51599 19.0616V5.06155C3.51599 4.53112 3.7267 4.02241 4.10178 3.64734C4.47685 3.27227 4.98556 3.06155 5.51599 3.06155H16.688C17.2184 3.06167 17.727 3.27246 18.102 3.64755L20.93 6.47555C21.3051 6.85054 21.5159 7.35916 21.516 7.88955V19.0616C21.516 19.592 21.3053 20.1007 20.9302 20.4758C20.5551 20.8508 20.0464 21.0616 19.516 21.0616H5.51599C4.98556 21.0616 4.47685 20.8508 4.10178 20.4758C3.7267 20.1007 3.51599 19.592 3.51599 19.0616Z" stroke="#505050" stroke-width="1.5"/>
<path d="M9.11599 9.06155H15.916C16.0751 9.06155 16.2277 8.99834 16.3403 8.88582C16.4528 8.7733 16.516 8.62068 16.516 8.46155V3.66155C16.516 3.50242 16.4528 3.34981 16.3403 3.23729C16.2277 3.12477 16.0751 3.06155 15.916 3.06155H9.11599C8.95686 3.06155 8.80425 3.12477 8.69173 3.23729C8.5792 3.34981 8.51599 3.50242 8.51599 3.66155V8.46155C8.51599 8.62068 8.5792 8.7733 8.69173 8.88582C8.80425 8.99834 8.95686 9.06155 9.11599 9.06155ZM6.51599 13.6616V21.0616H18.516V13.6616C18.516 13.5024 18.4528 13.3498 18.3403 13.2373C18.2277 13.1248 18.0751 13.0616 17.916 13.0616H7.11599C6.95686 13.0616 6.80425 13.1248 6.69173 13.2373C6.57921 13.3498 6.51599 13.5024 6.51599 13.6616Z" stroke="#505050" stroke-width="1.5"/>
</svg>
