<svg width="25" height="25" viewBox="0 0 25 25" fill="none" xmlns="http://www.w3.org/2000/svg">
<path d="M22.516 12.0616C22.516 6.53855 18.039 2.06155 12.516 2.06155C6.99299 2.06155 2.51599 6.53855 2.51599 12.0616C2.51599 17.5846 6.99299 22.0616 12.516 22.0616M13.516 2.11155C13.516 2.11155 16.516 6.06155 16.516 12.0616" stroke="#505050" stroke-width="1.5" stroke-linecap="round" stroke-linejoin="round"/>
<path d="M11.516 22.0116C11.516 22.0116 8.51599 18.0616 8.51599 12.0616C8.51599 6.06156 11.516 2.11156 11.516 2.11156M3.14599 15.5616H12.516M3.14599 8.56156H21.886" stroke="#505050" stroke-width="1.5" stroke-linecap="round" stroke-linejoin="round"/>
<path d="M22.395 17.9786C22.889 18.2826 22.858 19.0216 22.35 19.0796L19.783 19.3706L18.632 21.6826C18.404 22.1416 17.699 21.9166 17.582 21.3486L16.327 15.2326C16.228 14.7526 16.66 14.4506 17.077 14.7076L22.395 17.9786Z" stroke="#505050" stroke-width="1.5"/>
</svg>
