<svg width="25" height="25" viewBox="0 0 25 25" fill="none" xmlns="http://www.w3.org/2000/svg">
<path d="M12.516 2.06155C14.4938 2.06155 16.4272 2.64804 18.0717 3.74686C19.7162 4.84567 20.9979 6.40746 21.7548 8.23472C22.5117 10.062 22.7097 12.0726 22.3238 14.0125C21.938 15.9523 20.9856 17.7341 19.5871 19.1326C18.1885 20.5311 16.4067 21.4836 14.4669 21.8694C12.5271 22.2553 10.5164 22.0572 8.68916 21.3004C6.8619 20.5435 5.30011 19.2617 4.20129 17.6173C3.10248 15.9728 2.51599 14.0394 2.51599 12.0616C2.51599 9.40939 3.56956 6.86585 5.44492 4.99049C7.32029 3.11512 9.86383 2.06155 12.516 2.06155ZM10.4297 15.9603C10.2565 16.1348 10.1592 16.3707 10.1592 16.6166C10.1592 16.8624 10.2565 17.0983 10.4297 17.2728C10.5155 17.3587 10.6174 17.4268 10.7296 17.473C10.8418 17.5193 10.9621 17.5428 11.0835 17.5422C11.3307 17.5418 11.5676 17.4434 11.7422 17.2684L16.2616 12.7347C16.422 12.5587 16.5085 12.3276 16.5032 12.0896C16.4978 11.8515 16.401 11.6246 16.2329 11.4559L11.646 6.85468C11.4713 6.68353 11.2362 6.58821 10.9917 6.58944C10.7472 6.59068 10.513 6.68837 10.3401 6.86127C10.1672 7.03418 10.0695 7.26834 10.0683 7.51287C10.067 7.7574 10.1623 7.99253 10.3335 8.16718L14.271 12.0616L10.4297 15.9603Z" fill="#C2C2C2"/>
</svg>
