<svg width="25" height="25" viewBox="0 0 25 25" fill="none" xmlns="http://www.w3.org/2000/svg">
<path d="M12.516 2.06155C10.5382 2.06155 8.60478 2.64804 6.96029 3.74686C5.3158 4.84567 4.03408 6.40746 3.2772 8.23472C2.52032 10.062 2.32229 12.0726 2.70814 14.0125C3.094 15.9523 4.0464 17.7341 5.44493 19.1326C6.84345 20.5311 8.62528 21.4836 10.5651 21.8694C12.5049 22.2553 14.5156 22.0572 16.3428 21.3004C18.1701 20.5435 19.7319 19.2617 20.8307 17.6173C21.9295 15.9728 22.516 14.0394 22.516 12.0616C22.516 9.40939 21.4624 6.86585 19.5871 4.99049C17.7117 3.11512 15.1682 2.06155 12.516 2.06155ZM14.6022 15.9603C14.7755 16.1348 14.8728 16.3707 14.8728 16.6166C14.8728 16.8624 14.7755 17.0983 14.6022 17.2728C14.5165 17.3587 14.4146 17.4268 14.3024 17.473C14.1902 17.5193 14.0699 17.5428 13.9485 17.5422C13.7013 17.5418 13.4644 17.4434 13.2897 17.2684L8.77037 12.7347C8.60997 12.5587 8.52347 12.3276 8.52882 12.0896C8.53418 11.8515 8.63097 11.6246 8.79912 11.4559L13.3854 6.85468C13.56 6.68353 13.7952 6.58821 14.0397 6.58944C14.2842 6.59068 14.5184 6.68837 14.6913 6.86127C14.8642 7.03418 14.9619 7.26834 14.9631 7.51287C14.9643 7.7574 14.869 7.99253 14.6979 8.16718L10.7604 12.0616L14.6022 15.9603Z" fill="#C2C2C2"/>
</svg>
