<svg width="25" height="25" viewBox="0 0 25 25" fill="none" xmlns="http://www.w3.org/2000/svg">
<path d="M9.3797 20.0625C9.10362 20.0625 8.87973 19.8386 8.87973 19.5625V19.108C8.87973 18.8318 9.10362 18.608 9.3797 18.608H20.015C20.2911 18.608 20.515 18.8318 20.515 19.108V19.5625C20.515 19.8386 20.2911 20.0625 20.015 20.0625H9.3797ZM9.3797 15.7893C9.10362 15.7893 8.87973 15.5656 8.87973 15.2894V11.9251C8.87973 11.6491 9.10362 11.4251 9.3797 11.4251H20.015C20.2911 11.4251 20.515 11.6491 20.515 11.9251V15.2894C20.515 15.5656 20.2911 15.7893 20.015 15.7893H9.3797ZM4.51599 5.60809L8.87924 8.51684L4.51599 11.4256V5.60809ZM9.3797 5.51654C9.10362 5.51654 8.87973 5.29271 8.87973 5.01657V4.56152C8.87973 4.28554 9.10362 4.06155 9.3797 4.06155H20.015C20.2911 4.06155 20.515 4.28554 20.515 4.56152V5.01657C20.515 5.29271 20.2911 5.51654 20.015 5.51654H9.3797Z" fill="#505050"/>
</svg>
