<svg width="24" height="24" viewBox="0 0 24 24" fill="none" xmlns="http://www.w3.org/2000/svg">
<path d="M2 15.5017L5.74947 18.0015L2 20.5006V15.5017ZM2 9.25056L5.74947 11.7509L2 14.2488V9.25056ZM2 3L5.74947 5.50094L2 8.00068V3Z" fill="#FD0000"/>
<path d="M20.4886 17.6384L15.4376 12.5855L10.3866 17.6384C10.2345 17.7907 10.028 17.8762 9.81255 17.8757C9.59723 17.8762 9.39068 17.7907 9.23851 17.6384C9.08586 17.4859 9 17.2793 9 17.0635C9 16.8477 9.08586 16.6412 9.23851 16.4886L14.2895 11.4374L9.23851 6.38629C9.08586 6.23407 9 6.02769 9 5.81225C9 5.59663 9.08586 5.39007 9.23851 5.23821C9.39068 5.08599 9.59723 5 9.81255 5C10.028 5 10.2345 5.08599 10.3866 5.23821L15.4376 10.2873L20.4886 5.23821C20.641 5.08556 20.8476 5 21.0632 5C21.2787 5 21.4854 5.08556 21.6378 5.23821C21.7907 5.39007 21.8766 5.59663 21.8766 5.81225C21.8766 6.02769 21.7907 6.23407 21.6378 6.38629L16.5868 11.4374L21.6378 16.4886C21.7904 16.6408 21.8763 16.8477 21.8763 17.0635C21.8763 17.2793 21.7904 17.4862 21.6378 17.6384C21.485 17.79 21.2783 17.8756 21.0626 17.8757C20.8476 17.8756 20.6409 17.79 20.4886 17.6384Z" fill="#505050"/>
</svg>
