<svg width="24" height="24" viewBox="0 0 24 24" fill="none" xmlns="http://www.w3.org/2000/svg">
<g clip-path="url(#clip0_1010_17)">
<path d="M2.21834 15.5017L5.96781 18.0015L2.21834 20.5006V15.5017ZM20.3933 18.5755L15.3423 13.5226L10.2913 18.5755C10.1393 18.7277 9.93271 18.8132 9.71727 18.8128C9.50195 18.8132 9.2954 18.7277 9.14323 18.5755C8.99058 18.423 8.90472 18.2164 8.90472 18.0006C8.90472 17.7847 8.99058 17.5783 9.14323 17.4256L14.1942 12.3745L9.14323 7.32336C8.99058 7.17113 8.90472 6.96476 8.90472 6.74932C8.90472 6.53369 8.99058 6.32714 9.14323 6.17528C9.2954 6.02305 9.50195 5.93707 9.71727 5.93707C9.93271 5.93707 10.1393 6.02305 10.2913 6.17528L15.3423 11.2243L20.3933 6.17528C20.5457 6.02262 20.7524 5.93707 20.9679 5.93707C21.1834 5.93707 21.3901 6.02262 21.5426 6.17528C21.6954 6.32714 21.7814 6.53369 21.7814 6.74932C21.7814 6.96476 21.6954 7.17113 21.5426 7.32336L16.4916 12.3745L21.5426 17.4256C21.6951 17.5778 21.7811 17.7847 21.7811 18.0006C21.7811 18.2164 21.6951 18.4233 21.5426 18.5755C21.3897 18.7271 21.183 18.8126 20.9673 18.8128C20.7524 18.8126 20.5456 18.7271 20.3933 18.5755ZM2.21834 9.25055L5.96781 11.7509L2.21834 14.2488V9.25055ZM2.21834 3L5.96781 5.50094L2.21834 8.00068V3Z" fill="#FD0000"/>
</g>
<defs>
<clipPath id="clip0_1010_17">
<rect width="20" height="17.5" fill="white" transform="translate(2 3)"/>
</clipPath>
</defs>
</svg>
