<svg width="25" height="25" viewBox="0 0 25 25" fill="none" xmlns="http://www.w3.org/2000/svg">
<path d="M5.51599 22.0616C4.96599 22.0616 4.49499 21.8656 4.10299 21.4736C3.71099 21.0816 3.51533 20.6109 3.51599 20.0616V6.06155C3.51599 5.51155 3.71199 5.04055 4.10399 4.64855C4.49599 4.25655 4.96666 4.06089 5.51599 4.06155H6.51599V2.06155H8.51599V4.06155H16.516V2.06155H18.516V4.06155H19.516C20.066 4.06155 20.537 4.25755 20.929 4.64955C21.321 5.04155 21.5167 5.51222 21.516 6.06155V12.0616H19.516V10.0616H5.51599V20.0616H12.516V22.0616H5.51599ZM22.641 17.0616L20.516 14.9366L21.241 14.2116C21.4243 14.0282 21.6577 13.9366 21.941 13.9366C22.2243 13.9366 22.4577 14.0282 22.641 14.2116L23.366 14.9366C23.5493 15.1199 23.641 15.3532 23.641 15.6366C23.641 15.9199 23.5493 16.1532 23.366 16.3366L22.641 17.0616ZM14.516 23.0616V20.9366L19.816 15.6366L21.941 17.7616L16.641 23.0616H14.516ZM5.51599 8.06155H19.516V6.06155H5.51599V8.06155Z" fill="#505050"/>
</svg>
