<svg width="25" height="25" viewBox="0 0 25 25" fill="none" xmlns="http://www.w3.org/2000/svg">
<path d="M15.516 4.06155V2.06155M15.516 4.06155V6.06155M15.516 4.06155H11.016M3.51599 10.0616V19.0616C3.51599 19.592 3.7267 20.1007 4.10178 20.4758C4.47685 20.8508 4.98556 21.0616 5.51599 21.0616H19.516C20.0464 21.0616 20.5551 20.8508 20.9302 20.4758C21.3053 20.1007 21.516 19.592 21.516 19.0616V10.0616M3.51599 10.0616H21.516M3.51599 10.0616V6.06155C3.51599 5.53112 3.7267 5.02241 4.10178 4.64734C4.47685 4.27227 4.98556 4.06155 5.51599 4.06155H7.51599M21.516 10.0616V6.06155C21.516 5.53112 21.3053 5.02241 20.9302 4.64734C20.5551 4.27227 20.0464 4.06155 19.516 4.06155H19.016M7.51599 2.06155V6.06155" stroke="#505050" stroke-width="1.5" stroke-linecap="round" stroke-linejoin="round"/>
</svg>
