<svg width="25" height="25" viewBox="0 0 25 25" fill="none" xmlns="http://www.w3.org/2000/svg">
<path d="M12.516 22.0616C6.99299 22.0616 2.51599 17.5846 2.51599 12.0616C2.51599 6.53855 6.99299 2.06155 12.516 2.06155C18.039 2.06155 22.516 6.53855 22.516 12.0616C22.516 17.5846 18.039 22.0616 12.516 22.0616Z" stroke="#505050" stroke-width="1.5" stroke-linecap="round" stroke-linejoin="round"/>
<path d="M12.516 16.0616C11.4551 16.0616 10.4377 15.6401 9.68756 14.89M12.516 16.0616C13.5769 16.0616 14.5943 15.6401 15.3444 14.89M12.516 16.0616V22.0616M9.68756 14.89C8.93742 14.1398 8.51599 13.1224 8.51599 12.0616M9.68756 14.89L5.44499 19.1326M8.51599 12.0616C8.51599 11.0007 8.93742 9.98327 9.68756 9.23313C10.4377 8.48298 11.4551 8.06155 12.516 8.06155M8.51599 12.0616H2.51599M12.516 8.06155C13.5769 8.06155 14.5943 8.48298 15.3444 9.23313M12.516 8.06155V2.06155M15.3444 9.23313C16.0946 9.98327 16.516 11.0007 16.516 12.0616M15.3444 9.23313L19.587 4.99055M16.516 12.0616C16.516 13.1224 16.0946 14.1398 15.3444 14.89M16.516 12.0616H22.516M15.3444 14.89L19.587 19.1326M5.44499 4.99055L9.68799 9.23155" stroke="#505050" stroke-width="1.5" stroke-linecap="round" stroke-linejoin="round"/>
</svg>
