<svg width="25" height="25" viewBox="0 0 25 25" fill="none" xmlns="http://www.w3.org/2000/svg">
<path d="M12.516 15.0616C13.3116 15.0616 14.0747 14.7455 14.6373 14.1829C15.1999 13.6203 15.516 12.8572 15.516 12.0616C15.516 11.2659 15.1999 10.5028 14.6373 9.94023C14.0747 9.37762 13.3116 9.06155 12.516 9.06155C11.7203 9.06155 10.9573 9.37762 10.3947 9.94023C9.83206 10.5028 9.51599 11.2659 9.51599 12.0616C9.51599 12.8572 9.83206 13.6203 10.3947 14.1829C10.9573 14.7455 11.7203 15.0616 12.516 15.0616Z" stroke="#505050" stroke-width="1.5" stroke-linecap="round" stroke-linejoin="round"/>
<path d="M20.138 10.4566L19.041 7.80655L20.516 6.06155L18.516 4.06155L16.781 5.54455L14.074 4.43155L13.451 2.06155H11.497L10.865 4.46255L8.21999 5.57755L6.51599 4.06155L4.51599 6.06155L5.96899 7.85055L4.88899 10.5076L2.51599 11.0616V13.0616L4.91699 13.7166L6.03199 16.3616L4.51599 18.0616L6.51599 20.0616L8.30699 18.6016L10.913 19.6736L11.516 22.0616H13.516L14.12 19.6746L16.771 18.5766C17.213 18.8926 18.516 20.0616 18.516 20.0616L20.516 18.0616L19.032 16.3116L20.13 13.6596L22.516 13.0396V11.0616L20.138 10.4566Z" stroke="#505050" stroke-width="1.5" stroke-linecap="round" stroke-linejoin="round"/>
</svg>
