<svg width="25" height="25" viewBox="0 0 25 25" fill="none" xmlns="http://www.w3.org/2000/svg">
<g clip-path="url(#clip0_394_82)">
<path d="M17.5044 12.0615H18.5044M22.5044 12.0615H23.5044M6.74037 7.06152C7.00571 6.76832 7.21046 6.42556 7.34285 6.05295C7.47525 5.68034 7.53267 5.28523 7.51182 4.89035C7.49097 4.49547 7.39226 4.1086 7.22137 3.752C7.05047 3.39541 6.81076 3.07611 6.51603 2.81249C6.2213 2.54886 5.87735 2.3461 5.50398 2.21588C5.1306 2.08565 4.73517 2.03052 4.34041 2.05367C3.94566 2.07681 3.55937 2.17777 3.20377 2.35073C2.84818 2.5237 2.53028 2.76526 2.26837 3.06152C1.74339 3.65536 1.47475 4.43284 1.52114 5.22411C1.56753 6.01538 1.92518 6.75613 2.51596 7.28456C3.10674 7.81299 3.88264 8.08614 4.67417 8.04435C5.4657 8.00256 6.20852 7.64922 6.74037 7.06152ZM6.74037 7.06152L19.5044 18.0615M6.74037 17.0615C7.00571 17.3547 7.21046 17.6975 7.34285 18.0701C7.47525 18.4427 7.53267 18.8378 7.51182 19.2327C7.49097 19.6276 7.39226 20.0144 7.22137 20.371C7.05047 20.7276 6.81076 21.0469 6.51603 21.3106C6.2213 21.5742 5.87735 21.7769 5.50398 21.9072C5.1306 22.0374 4.73517 22.0925 4.34041 22.0694C3.94566 22.0462 3.55937 21.9453 3.20377 21.7723C2.84818 21.5993 2.53028 21.3578 2.26837 21.0615C1.74339 20.4677 1.47475 19.6902 1.52114 18.8989C1.56753 18.1077 1.92518 17.3669 2.51596 16.8385C3.10674 16.31 3.88264 16.0369 4.67417 16.0787C5.4657 16.1205 6.20852 16.4738 6.74037 17.0615ZM6.74037 17.0615L19.5044 6.06152" stroke="#505050" stroke-width="1.5" stroke-linecap="round" stroke-linejoin="round"/>
</g>
<defs>
<clipPath id="clip0_394_82">
<rect width="24" height="24" fill="white" transform="translate(0.515991 0.0615234)"/>
</clipPath>
</defs>
</svg>
