<svg width="25" height="25" viewBox="0 0 25 25" fill="none" xmlns="http://www.w3.org/2000/svg">
<path d="M5.51599 12.0616V18.0616C5.51599 18.0616 5.51599 21.0616 12.516 21.0616C19.516 21.0616 19.516 18.0616 19.516 18.0616V12.0616" stroke="#505050" stroke-width="1.5"/>
<path d="M5.51599 6.06155V12.0616C5.51599 12.0616 5.51599 15.0616 12.516 15.0616C19.516 15.0616 19.516 12.0616 19.516 12.0616V6.06155" stroke="#505050" stroke-width="1.5"/>
<path d="M12.516 3.06155C19.516 3.06155 19.516 6.06155 19.516 6.06155C19.516 6.06155 19.516 9.06155 12.516 9.06155C5.51599 9.06155 5.51599 6.06155 5.51599 6.06155C5.51599 6.06155 5.51599 3.06155 12.516 3.06155Z" stroke="#505050" stroke-width="1.5"/>
</svg>
