<svg width="25" height="25" viewBox="0 0 25 25" fill="none" xmlns="http://www.w3.org/2000/svg">
<path d="M4.51599 21.4616V2.66155C4.51599 2.50242 4.57921 2.34981 4.69173 2.23729C4.80425 2.12477 4.95686 2.06155 5.11599 2.06155H16.768C16.9271 2.06169 17.0796 2.125 17.192 2.23755L20.34 5.38555C20.396 5.44145 20.4403 5.50787 20.4705 5.58098C20.5007 5.65409 20.5162 5.73245 20.516 5.81155V21.4616C20.516 21.5403 20.5005 21.6184 20.4703 21.6912C20.4402 21.764 20.396 21.8301 20.3403 21.8858C20.2845 21.9415 20.2184 21.9857 20.1456 22.0159C20.0728 22.046 19.9948 22.0616 19.916 22.0616H5.11599C5.0372 22.0616 4.95918 22.046 4.88638 22.0159C4.81359 21.9857 4.74744 21.9415 4.69173 21.8858C4.63601 21.8301 4.59182 21.764 4.56166 21.6912C4.53151 21.6184 4.51599 21.5403 4.51599 21.4616Z" stroke="#505050" stroke-width="1.5" stroke-linecap="round" stroke-linejoin="round"/>
<path d="M16.516 2.06155V5.46155C16.516 5.62068 16.5792 5.7733 16.6917 5.88582C16.8042 5.99834 16.9569 6.06155 17.116 6.06155H20.516" stroke="#505050" stroke-width="1.5" stroke-linecap="round" stroke-linejoin="round"/>
<path d="M15.4768 13.0866C15.2234 14.7704 13.7705 16.0616 12.016 16.0616C10.0829 16.0616 8.51599 14.4946 8.51599 12.5616C8.51599 10.6285 10.0829 9.06155 12.016 9.06155C13.451 9.06155 14.6847 9.92535 15.2248 11.1616" stroke="#505050" stroke-width="1.2" stroke-linecap="round" stroke-linejoin="round"/>
<path d="M13.766 11.1616H15.306C15.3336 11.1616 15.3609 11.1562 15.3864 11.1456C15.4118 11.1351 15.435 11.1196 15.4545 11.1001C15.474 11.0806 15.4895 11.0575 15.5 11.032C15.5106 11.0065 15.516 10.9792 15.516 10.9516V9.41161" stroke="#505050" stroke-width="1.2" stroke-linecap="round" stroke-linejoin="round"/>
</svg>
