<svg width="25" height="25" viewBox="0 0 25 25" fill="none" xmlns="http://www.w3.org/2000/svg">
<path d="M4.07731 22.5615C3.86962 22.5603 3.67097 22.4766 3.52491 22.3289C3.37885 22.1812 3.29733 21.9816 3.29838 21.7739V6.28769C3.29415 6.17942 3.31224 6.07118 3.35141 5.97016C3.39057 5.86914 3.44993 5.77748 3.52603 5.70037L7.38846 1.79388C7.4618 1.7192 7.54964 1.66013 7.6464 1.62021C7.74315 1.58029 7.84693 1.56034 7.95159 1.56158H17.456C17.6637 1.56331 17.8623 1.64703 18.0086 1.79452C18.1549 1.94201 18.2371 2.14144 18.237 2.34916V8.27073C18.2377 8.37376 18.2178 8.4759 18.1789 8.57128C18.1399 8.66666 18.0826 8.75317 18.01 8.82633C17.9375 8.89948 17.8512 8.95768 17.7561 8.99743C17.6611 9.03717 17.5591 9.05773 17.456 9.05799C17.3532 9.05756 17.2515 9.03694 17.1566 8.99711C17.0617 8.95728 16.9757 8.89916 16.9033 8.82601C16.831 8.75286 16.7737 8.66625 16.7349 8.57096C16.6962 8.47566 16.6764 8.37361 16.6771 8.27073V3.13769H8.72059V6.25532C8.7206 6.4627 8.63893 6.66189 8.49309 6.80932C8.34726 6.95675 8.14902 7.04066 7.94166 7.0429H4.85751V20.9787H16.6771V17.8505C16.6771 17.6431 16.7589 17.4442 16.9048 17.2968C17.0506 17.1494 17.2487 17.0655 17.456 17.0632C17.6637 17.0649 17.8623 17.1487 18.0086 17.2962C18.1549 17.4436 18.2371 17.6428 18.237 17.8505V21.7682C18.2376 21.8712 18.2177 21.9734 18.1787 22.0687C18.1398 22.1641 18.0824 22.2506 18.0099 22.3238C17.9373 22.3969 17.8511 22.4551 17.7561 22.4949C17.6611 22.5347 17.559 22.5554 17.456 22.5558L4.07731 22.5615ZM11.381 19.1113V16.9286L17.7462 10.4979L19.903 12.6783L13.5419 19.1132L11.381 19.1113ZM6.35625 17.0152C6.27704 17.0149 6.19876 16.999 6.12571 16.9684C6.05267 16.9377 5.98642 16.893 5.93074 16.8367C5.87506 16.7803 5.83107 16.7134 5.80129 16.6399C5.77152 16.5665 5.75654 16.4881 5.75724 16.4089C5.75663 16.3297 5.77166 16.251 5.80145 16.1776C5.83124 16.1041 5.8751 16.0373 5.93074 15.9809C5.98638 15.9244 6.0527 15.8797 6.12571 15.8488C6.19872 15.818 6.277 15.8019 6.35625 15.8014H9.08025C9.24025 15.8026 9.39326 15.8672 9.5056 15.9812C9.61794 16.0951 9.68047 16.2489 9.67943 16.4089C9.68003 16.4881 9.66501 16.5666 9.63521 16.6399C9.6054 16.7133 9.56126 16.78 9.5056 16.8364C9.44994 16.8927 9.38379 16.9377 9.31079 16.9684C9.23779 16.9991 9.15944 17.0148 9.08025 17.0152H6.35625ZM6.35625 14.29C6.27709 14.2898 6.19887 14.2739 6.12587 14.2432C6.05287 14.2126 5.98657 14.1678 5.9309 14.1116C5.87523 14.0553 5.83127 13.9888 5.80145 13.9155C5.77164 13.8421 5.75663 13.7636 5.75724 13.6844C5.75663 13.6052 5.77166 13.5265 5.80145 13.4531C5.83125 13.3797 5.87525 13.3131 5.9309 13.2567C5.98655 13.2003 6.0527 13.1554 6.12571 13.1247C6.19872 13.0939 6.27703 13.0777 6.35625 13.0773H11.381C11.4603 13.0776 11.5387 13.0937 11.6118 13.1244C11.685 13.1551 11.7515 13.2 11.8073 13.2564C11.8631 13.3127 11.9072 13.3793 11.9372 13.4528C11.9672 13.5262 11.9824 13.6051 11.9819 13.6844C11.9823 13.7637 11.9671 13.8421 11.9371 13.9155C11.907 13.9888 11.8628 14.0556 11.807 14.1119C11.7512 14.1681 11.6848 14.2127 11.6117 14.2432C11.5386 14.2738 11.4602 14.2898 11.381 14.29H6.35625ZM18.359 9.87376L19.409 8.80935C19.4617 8.75532 19.5247 8.71242 19.5943 8.6831C19.6639 8.65379 19.7386 8.63857 19.8141 8.63857C19.8896 8.63857 19.9645 8.65379 20.0341 8.6831C20.1037 8.71242 20.1667 8.75532 20.2194 8.80935L21.566 10.1692C21.6738 10.2786 21.7342 10.426 21.7342 10.5796C21.7342 10.7332 21.6738 10.8807 21.566 10.9901L20.516 12.0548L18.359 9.87376ZM6.35625 11.6402C6.27698 11.6398 6.1986 11.6239 6.12555 11.5931C6.0525 11.5623 5.98624 11.5172 5.93058 11.4608C5.87492 11.4043 5.83105 11.3375 5.80129 11.264C5.77154 11.1906 5.75654 11.112 5.75724 11.0327C5.75672 10.9536 5.77177 10.875 5.80161 10.8017C5.83146 10.7284 5.87541 10.6618 5.93106 10.6056C5.98671 10.5493 6.05291 10.5045 6.12587 10.4739C6.19883 10.4433 6.27712 10.4271 6.35625 10.4268H13.881C13.9603 10.4271 14.0388 10.443 14.1119 10.4736C14.185 10.5042 14.2513 10.549 14.3072 10.6053C14.363 10.6615 14.4072 10.728 14.4373 10.8014C14.4673 10.8747 14.4825 10.9535 14.4821 11.0327C14.4825 11.1121 14.4674 11.1905 14.4374 11.264C14.4074 11.3375 14.3633 11.4043 14.3075 11.4608C14.2517 11.5172 14.1852 11.5623 14.112 11.5931C14.0389 11.6239 13.9604 11.6398 13.881 11.6402H6.35625ZM7.87742 8.91765C7.79805 8.91722 7.71956 8.90099 7.6464 8.87022C7.57324 8.83945 7.50676 8.79464 7.45095 8.73821C7.39513 8.68179 7.35099 8.61497 7.32102 8.54148C7.29104 8.46799 7.27589 8.38951 7.27632 8.31014C7.27589 8.2308 7.29104 8.15193 7.32102 8.07848C7.351 8.00503 7.39528 7.93844 7.45111 7.88207C7.50693 7.82569 7.57324 7.78076 7.6464 7.75006C7.71956 7.71936 7.79808 7.7033 7.87742 7.70296H15.2814C15.3607 7.7033 15.4392 7.71936 15.5124 7.75006C15.5856 7.78076 15.6519 7.82569 15.7077 7.88207C15.7635 7.93844 15.8078 8.00503 15.8378 8.07848C15.8678 8.15193 15.8829 8.2308 15.8825 8.31014C15.8829 8.38951 15.8678 8.46799 15.8378 8.54148C15.8078 8.61497 15.7637 8.68179 15.7079 8.73821C15.652 8.79464 15.5856 8.83945 15.5124 8.87022C15.4392 8.90099 15.3608 8.91722 15.2814 8.91765H7.87742Z" fill="#505050"/>
</svg>
