<svg width="25" height="25" viewBox="0 0 25 25" fill="none" xmlns="http://www.w3.org/2000/svg">
<path d="M3.51599 3.06155L21.516 21.0616M11.016 10.7386C10.6791 11.1201 10.5003 11.6157 10.516 12.1244C10.5318 12.6332 10.7409 13.1168 11.1008 13.4767C11.4608 13.8366 11.9444 14.0458 12.4531 14.0615C12.9619 14.0773 13.4575 13.8985 13.839 13.5616" stroke="#505050" stroke-width="1.5" stroke-linecap="round" stroke-linejoin="round"/>
<path d="M7.87799 7.62255C6.19599 8.80155 4.79499 10.4816 3.51599 12.0616C5.40499 15.0526 8.79799 18.0616 12.516 18.0616C14.066 18.0616 15.559 17.5386 16.911 16.7116M12.516 6.06155C16.524 6.06155 19.217 9.21955 21.516 12.0616C21.1865 12.5823 20.8265 13.0832 20.438 13.5616" stroke="#505050" stroke-width="1.5" stroke-linecap="round" stroke-linejoin="round"/>
</svg>
