<svg width="25" height="25" viewBox="0 0 25 25" fill="none" xmlns="http://www.w3.org/2000/svg">
<g clip-path="url(#clip0_394_567)">
<path d="M12.516 17.9681C12.352 17.9681 12.1947 18.0333 12.0787 18.1493C11.9627 18.2653 11.8976 18.4226 11.8976 18.5866V20.4431C11.8976 20.6072 11.9627 20.7645 12.0787 20.8804C12.1947 20.9964 12.352 21.0616 12.516 21.0616C12.68 21.0616 12.8373 20.9964 12.9533 20.8804C13.0693 20.7645 13.1344 20.6072 13.1344 20.4431V18.5866C13.1344 18.4226 13.0693 18.2653 12.9533 18.1493C12.8373 18.0333 12.68 17.9681 12.516 17.9681Z" fill="#505050"/>
<path d="M12.516 3.06155C12.352 3.06155 12.1947 3.12671 12.0787 3.24269C11.9627 3.35867 11.8976 3.51596 11.8976 3.67998V5.53655C11.8976 5.70057 11.9627 5.85787 12.0787 5.97385C12.1947 6.08983 12.352 6.15498 12.516 6.15498C12.68 6.15498 12.8373 6.08983 12.9533 5.97385C13.0693 5.85787 13.1344 5.70057 13.1344 5.53655V3.67998C13.1344 3.51596 13.0693 3.35867 12.9533 3.24269C12.8373 3.12671 12.68 3.06155 12.516 3.06155Z" fill="#505050"/>
<path d="M6.60942 12.0615C6.60942 11.8975 6.54426 11.7402 6.42829 11.6242C6.31231 11.5083 6.15501 11.4431 5.99099 11.4431H4.13442C3.9704 11.4431 3.8131 11.5083 3.69712 11.6242C3.58115 11.7402 3.51599 11.8975 3.51599 12.0615C3.51599 12.2256 3.58115 12.3829 3.69712 12.4988C3.8131 12.6148 3.9704 12.68 4.13442 12.68H5.99099C6.15501 12.68 6.31231 12.6148 6.42829 12.4988C6.54426 12.3829 6.60942 12.2256 6.60942 12.0615Z" fill="#505050"/>
<path d="M20.8976 11.4431H19.041C18.877 11.4431 18.7197 11.5083 18.6037 11.6242C18.4877 11.7402 18.4226 11.8975 18.4226 12.0615C18.4226 12.2256 18.4877 12.3829 18.6037 12.4988C18.7197 12.6148 18.877 12.68 19.041 12.68H20.8976C21.0616 12.68 21.2189 12.6148 21.3349 12.4988C21.4508 12.3829 21.516 12.2256 21.516 12.0615C21.516 11.8975 21.4508 11.7402 21.3349 11.6242C21.2189 11.5083 21.0616 11.4431 20.8976 11.4431Z" fill="#505050"/>
<path d="M7.71513 16.244C7.63371 16.2438 7.55305 16.2597 7.4778 16.2908C7.40256 16.3219 7.33421 16.3676 7.27671 16.4253L5.95885 17.7393C5.85099 17.857 5.79273 18.0118 5.79621 18.1715C5.7997 18.3311 5.86467 18.4832 5.97758 18.5961C6.09048 18.709 6.24261 18.774 6.40224 18.7775C6.56187 18.781 6.71669 18.7227 6.83442 18.6148L8.14842 17.3008C8.23537 17.2144 8.29464 17.104 8.31869 16.9837C8.34274 16.8634 8.33049 16.7387 8.28349 16.6254C8.2365 16.5122 8.15688 16.4154 8.05476 16.3475C7.95264 16.2796 7.83264 16.2435 7.70999 16.244H7.71513Z" fill="#505050"/>
<path d="M17.3169 7.87913C17.3983 7.87933 17.4789 7.86341 17.5542 7.8323C17.6294 7.80119 17.6978 7.75549 17.7553 7.69784L19.0731 6.38384C19.181 6.26611 19.2393 6.11129 19.2358 5.95166C19.2323 5.79203 19.1673 5.6399 19.0544 5.527C18.9415 5.4141 18.7894 5.34913 18.6297 5.34564C18.4701 5.34215 18.3153 5.40041 18.1976 5.50827L16.8797 6.82227C16.7928 6.90877 16.7335 7.01916 16.7094 7.13943C16.6854 7.25969 16.6976 7.38439 16.7446 7.49767C16.7916 7.61096 16.8712 7.70771 16.9734 7.77563C17.0755 7.84356 17.1942 7.87958 17.3169 7.87913Z" fill="#505050"/>
<path d="M6.83828 5.5044C6.72055 5.39653 6.56573 5.33827 6.4061 5.34176C6.24647 5.34525 6.09434 5.41022 5.98144 5.52312C5.86853 5.63603 5.80356 5.78815 5.80007 5.94779C5.79659 6.10742 5.85485 6.26224 5.96271 6.37997L7.27671 7.69782C7.39444 7.80569 7.54926 7.86395 7.70889 7.86046C7.86852 7.85697 8.02065 7.792 8.13355 7.6791C8.24646 7.56619 8.31143 7.41407 8.31492 7.25443C8.3184 7.0948 8.26014 6.93998 8.15228 6.82225L6.83828 5.5044Z" fill="#505050"/>
<path d="M17.7553 16.4253C17.6375 16.3174 17.4827 16.2591 17.3231 16.2626C17.1635 16.2661 17.0113 16.3311 16.8984 16.444C16.7855 16.5569 16.7206 16.709 16.7171 16.8687C16.7136 17.0283 16.7718 17.1831 16.8797 17.3008L18.1937 18.6187C18.3114 18.7266 18.4663 18.7848 18.6259 18.7813C18.7855 18.7778 18.9376 18.7129 19.0505 18.6C19.1635 18.4871 19.2284 18.3349 19.2319 18.1753C19.2354 18.0157 19.1771 17.8609 19.0693 17.7431L17.7553 16.4253Z" fill="#505050"/>
<path d="M12.516 8.20441C11.7531 8.20441 11.0074 8.43062 10.3731 8.85445C9.73877 9.27828 9.24439 9.88068 8.95245 10.5855C8.66052 11.2903 8.58413 12.0658 8.73296 12.814C8.88179 13.5623 9.24915 14.2495 9.78858 14.789C10.328 15.3284 11.0153 15.6958 11.7635 15.8446C12.5117 15.9934 13.2873 15.917 13.9921 15.6251C14.6969 15.3331 15.2993 14.8388 15.7231 14.2045C16.1469 13.5702 16.3731 12.8244 16.3731 12.0615C16.3731 11.0386 15.9668 10.0575 15.2434 9.33414C14.52 8.61078 13.539 8.20441 12.516 8.20441Z" fill="#505050"/>
</g>
<defs>
<clipPath id="clip0_394_567">
<rect width="18" height="18" fill="white" transform="translate(3.51599 3.06155)"/>
</clipPath>
</defs>
</svg>
