<svg width="25" height="25" viewBox="0 0 25 25" fill="none" xmlns="http://www.w3.org/2000/svg">
<path d="M7.42199 4.59856C7.3309 4.54455 7.22713 4.51561 7.12123 4.51469C7.01533 4.51376 6.91108 4.54088 6.81905 4.59329C6.72703 4.6457 6.65052 4.72154 6.59729 4.81309C6.54406 4.90465 6.51601 5.00866 6.51599 5.11456V19.0086C6.51601 19.1145 6.54406 19.2185 6.59729 19.31C6.65052 19.4016 6.72703 19.4774 6.81905 19.5298C6.91108 19.5822 7.01533 19.6094 7.12123 19.6084C7.22713 19.6075 7.3309 19.5786 7.42199 19.5246L19.145 12.5776C19.2345 12.5244 19.3087 12.4489 19.3602 12.3585C19.4117 12.268 19.4388 12.1657 19.4388 12.0616C19.4388 11.9575 19.4117 11.8551 19.3602 11.7647C19.3087 11.6742 19.2345 11.5987 19.145 11.5456L7.42199 4.59856Z" fill="#00FF00" stroke="#505050" stroke-width="1.5" stroke-linecap="round" stroke-linejoin="round"/>
</svg>
