<svg width="24" height="24" viewBox="0 0 24 24" fill="none" xmlns="http://www.w3.org/2000/svg">
<path d="M10.5789 12.4938C10.58 9.25247 13.0589 6.55056 16.2878 6.27045V3.94739L20.5641 7.88646L16.2878 12.1681V9.71766C13.531 9.71766 11.7441 11.2405 10.5927 12.9017C10.5822 12.767 10.5789 12.632 10.5789 12.4938Z" fill="#505050"/>
<rect x="5.8421" y="7.73682" width="0.947368" height="10.4211" fill="#505050"/>
<rect x="12.4737" y="17.2106" width="0.947369" height="6.63158" transform="rotate(90 12.4737 17.2106)" fill="#505050"/>
<rect x="9.78949" y="13" width="0.947369" height="3.78947" transform="rotate(90 9.78949 13)" fill="#505050"/>
<path d="M6.31579 3L9.18735 4.65789V7.97368L6.31579 9.63158L3.44423 7.97368V4.65789L6.31579 3Z" fill="#505050"/>
<path d="M15.7895 14.3684L18.661 16.0263V19.3421L15.7895 21L12.9179 19.3421V16.0263L15.7895 14.3684Z" fill="#505050"/>
</svg>
