<svg width="25" height="25" viewBox="0 0 25 25" fill="none" xmlns="http://www.w3.org/2000/svg">
<path d="M12.516 14.0616C13.0464 14.0616 13.5551 13.8508 13.9302 13.4758C14.3053 13.1007 14.516 12.592 14.516 12.0616C14.516 11.5311 14.3053 11.0224 13.9302 10.6473C13.5551 10.2723 13.0464 10.0616 12.516 10.0616C11.9856 10.0616 11.4769 10.2723 11.1018 10.6473C10.7267 11.0224 10.516 11.5311 10.516 12.0616C10.516 12.592 10.7267 13.1007 11.1018 13.4758C11.4769 13.8508 11.9856 14.0616 12.516 14.0616Z" stroke="#505050" stroke-width="1.5" stroke-linecap="round" stroke-linejoin="round"/>
<path d="M21.516 12.0616C19.627 15.0526 16.234 18.0616 12.516 18.0616C8.79799 18.0616 5.40499 15.0526 3.51599 12.0616C5.81499 9.21955 8.50799 6.06155 12.516 6.06155C16.524 6.06155 19.217 9.21955 21.516 12.0616Z" stroke="#505050" stroke-width="1.5" stroke-linecap="round" stroke-linejoin="round"/>
</svg>
