<svg width="25" height="25" viewBox="0 0 25 25" fill="none" xmlns="http://www.w3.org/2000/svg">
<path d="M20.516 9.06155L18.521 20.4076C18.4396 20.8709 18.1975 21.2908 17.8372 21.5933C17.4769 21.8958 17.0214 22.0616 16.551 22.0616H8.48099C8.01053 22.0616 7.55512 21.8958 7.19482 21.5933C6.83451 21.2908 6.59238 20.8709 6.51099 20.4076L4.51599 9.06155M21.516 6.06155H15.891M15.891 6.06155V4.06155C15.891 3.53112 15.6803 3.02241 15.3052 2.64734C14.9301 2.27227 14.4214 2.06155 13.891 2.06155H11.141C10.6106 2.06155 10.1019 2.27227 9.72678 2.64734C9.35171 3.02241 9.14099 3.53112 9.14099 4.06155V6.06155M15.891 6.06155H9.14099M3.51599 6.06155H9.14099" stroke="#505050" stroke-width="1.5" stroke-linecap="round" stroke-linejoin="round"/>
</svg>
