<svg width="25" height="25" viewBox="0 0 25 25" fill="none" xmlns="http://www.w3.org/2000/svg">
<path d="M19.5004 15.0616V11.9986C19.5001 10.9543 19.0851 9.95292 18.3466 9.21461C17.6081 8.47631 16.6066 8.06155 15.5624 8.06155H9.43937C8.92214 8.06142 8.40995 8.16319 7.93205 8.36103C7.45416 8.55887 7.01992 8.84892 6.65413 9.21461C6.28835 9.5803 5.99819 10.0145 5.80022 10.4923C5.60226 10.9702 5.50037 11.4823 5.50037 11.9996V15.0616C5.50037 15.9808 5.68143 16.8911 6.03321 17.7403C6.38499 18.5896 6.90061 19.3613 7.55062 20.0113C8.20063 20.6613 8.9723 21.1769 9.82158 21.5287C10.6709 21.8805 11.5811 22.0616 12.5004 22.0616C13.4196 22.0616 14.3299 21.8805 15.1792 21.5287C16.0284 21.1769 16.8001 20.6613 17.4501 20.0113C18.1001 19.3613 18.6157 18.5896 18.9675 17.7403C19.3193 16.8911 19.5004 15.9808 19.5004 15.0616Z" stroke="#C2C2C2" stroke-width="1.5"/>
<path d="M17.0004 8.56155V7.56155C17.0004 6.36808 16.5263 5.22349 15.6823 4.37957C14.8384 3.53566 13.6938 3.06155 12.5004 3.06155C11.3069 3.06155 10.1623 3.53566 9.31839 4.37957C8.47447 5.22349 8.00037 6.36808 8.00037 7.56155V8.56155" stroke="#C2C2C2" stroke-width="1.5"/>
<path d="M19.5004 14.0616H22.5004M5.50037 14.0616H2.50037M15.0004 3.56155L17.5004 2.06155M10.0004 3.56155L7.50037 2.06155M21.0004 20.0616L19.0004 19.2616M21.0004 8.06155L19.0004 8.86155M4.00037 20.0616L6.00037 19.2616M4.00037 8.06155L6.00037 8.86155M12.5004 21.5616V15.0616" stroke="#C2C2C2" stroke-width="1.5" stroke-linecap="round"/>
</svg>
