<svg width="25" height="25" viewBox="0 0 25 25" fill="none" xmlns="http://www.w3.org/2000/svg">
<path d="M5.50037 22.0616C4.95037 22.0616 4.47937 21.8656 4.08737 21.4736C3.69537 21.0816 3.4997 20.6109 3.50037 20.0616V6.06155C3.50037 5.51155 3.69637 5.04055 4.08837 4.64855C4.48037 4.25655 4.95103 4.06089 5.50037 4.06155H6.50037V2.06155H8.50037V4.06155H16.5004V2.06155H18.5004V4.06155H19.5004C20.0504 4.06155 20.5214 4.25755 20.9134 4.64955C21.3054 5.04155 21.501 5.51222 21.5004 6.06155V12.0616H19.5004V10.0616H5.50037V20.0616H12.5004V22.0616H5.50037ZM22.6254 17.0616L20.5004 14.9366L21.2254 14.2116C21.4087 14.0282 21.642 13.9366 21.9254 13.9366C22.2087 13.9366 22.442 14.0282 22.6254 14.2116L23.3504 14.9366C23.5337 15.1199 23.6254 15.3532 23.6254 15.6366C23.6254 15.9199 23.5337 16.1532 23.3504 16.3366L22.6254 17.0616ZM14.5004 23.0616V20.9366L19.8004 15.6366L21.9254 17.7616L16.6254 23.0616H14.5004ZM5.50037 8.06155H19.5004V6.06155H5.50037V8.06155Z" fill="#C2C2C2"/>
</svg>
