<svg width="25" height="25" viewBox="0 0 25 25" fill="none" xmlns="http://www.w3.org/2000/svg">
<path fill-rule="evenodd" clip-rule="evenodd" d="M7.70034 1.66155C7.91251 1.66155 8.116 1.74584 8.26603 1.89587C8.41606 2.0459 8.50034 2.24938 8.50034 2.46155V3.26155H16.5003V2.46155C16.5003 2.24938 16.5846 2.0459 16.7347 1.89587C16.8847 1.74584 17.0882 1.66155 17.3003 1.66155C17.5125 1.66155 17.716 1.74584 17.866 1.89587C18.0161 2.0459 18.1003 2.24938 18.1003 2.46155V3.26155H20.5003C21.1369 3.26155 21.7473 3.51441 22.1974 3.9645C22.6475 4.41459 22.9003 5.02503 22.9003 5.66155V20.0616C22.9003 20.6981 22.6475 21.3085 22.1974 21.7586C21.7473 22.2087 21.1369 22.4616 20.5003 22.4616H4.50034C3.86382 22.4616 3.25337 22.2087 2.80329 21.7586C2.3532 21.3085 2.10034 20.6981 2.10034 20.0616V5.66155C2.10034 5.02503 2.3532 4.41459 2.80329 3.9645C3.25337 3.51441 3.86382 3.26155 4.50034 3.26155H6.90034V2.46155C6.90034 2.24938 6.98463 2.0459 7.13466 1.89587C7.28469 1.74584 7.48817 1.66155 7.70034 1.66155ZM16.5003 4.86155V5.66155C16.5003 5.87373 16.5846 6.07721 16.7347 6.22724C16.8847 6.37727 17.0882 6.46155 17.3003 6.46155C17.5125 6.46155 17.716 6.37727 17.866 6.22724C18.0161 6.07721 18.1003 5.87373 18.1003 5.66155V4.86155H20.5003C20.7125 4.86155 20.916 4.94584 21.066 5.09587C21.2161 5.2459 21.3003 5.44938 21.3003 5.66155V8.06155H3.70034V5.66155C3.70034 5.44938 3.78463 5.2459 3.93466 5.09587C4.08469 4.94584 4.28817 4.86155 4.50034 4.86155H6.90034V5.66155C6.90034 5.87373 6.98463 6.07721 7.13466 6.22724C7.28469 6.37727 7.48817 6.46155 7.70034 6.46155C7.91251 6.46155 8.116 6.37727 8.26603 6.22724C8.41606 6.07721 8.50034 5.87373 8.50034 5.66155V4.86155H16.5003ZM3.70034 9.66155V20.0616C3.70034 20.2737 3.78463 20.4772 3.93466 20.6272C4.08469 20.7773 4.28817 20.8616 4.50034 20.8616H20.5003C20.7125 20.8616 20.916 20.7773 21.066 20.6272C21.2161 20.4772 21.3003 20.2737 21.3003 20.0616V9.66155H3.70034ZM11.7003 12.0616C11.7003 11.8494 11.7846 11.6459 11.9347 11.4959C12.0847 11.3458 12.2882 11.2616 12.5003 11.2616C12.7125 11.2616 12.916 11.3458 13.066 11.4959C13.2161 11.6459 13.3003 11.8494 13.3003 12.0616C13.3003 12.2737 13.2161 12.4772 13.066 12.6272C12.916 12.7773 12.7125 12.8616 12.5003 12.8616C12.2882 12.8616 12.0847 12.7773 11.9347 12.6272C11.7846 12.4772 11.7003 12.2737 11.7003 12.0616ZM15.7003 11.2616C15.4882 11.2616 15.2847 11.3458 15.1347 11.4959C14.9846 11.6459 14.9003 11.8494 14.9003 12.0616C14.9003 12.2737 14.9846 12.4772 15.1347 12.6272C15.2847 12.7773 15.4882 12.8616 15.7003 12.8616C15.9125 12.8616 16.116 12.7773 16.266 12.6272C16.4161 12.4772 16.5003 12.2737 16.5003 12.0616C16.5003 11.8494 16.4161 11.6459 16.266 11.4959C16.116 11.3458 15.9125 11.2616 15.7003 11.2616ZM18.1003 12.0616C18.1003 11.8494 18.1846 11.6459 18.3347 11.4959C18.4847 11.3458 18.6882 11.2616 18.9003 11.2616C19.1125 11.2616 19.316 11.3458 19.466 11.4959C19.6161 11.6459 19.7003 11.8494 19.7003 12.0616C19.7003 12.2737 19.6161 12.4772 19.466 12.6272C19.316 12.7773 19.1125 12.8616 18.9003 12.8616C18.6882 12.8616 18.4847 12.7773 18.3347 12.6272C18.1846 12.4772 18.1003 12.2737 18.1003 12.0616ZM18.9003 14.4616C18.6882 14.4616 18.4847 14.5458 18.3347 14.6959C18.1846 14.8459 18.1003 15.0494 18.1003 15.2616C18.1003 15.4737 18.1846 15.6772 18.3347 15.8272C18.4847 15.9773 18.6882 16.0616 18.9003 16.0616C19.1125 16.0616 19.316 15.9773 19.466 15.8272C19.6161 15.6772 19.7003 15.4737 19.7003 15.2616C19.7003 15.0494 19.6161 14.8459 19.466 14.6959C19.316 14.5458 19.1125 14.4616 18.9003 14.4616ZM14.9003 15.2616C14.9003 15.0494 14.9846 14.8459 15.1347 14.6959C15.2847 14.5458 15.4882 14.4616 15.7003 14.4616C15.9125 14.4616 16.116 14.5458 16.266 14.6959C16.4161 14.8459 16.5003 15.0494 16.5003 15.2616C16.5003 15.4737 16.4161 15.6772 16.266 15.8272C16.116 15.9773 15.9125 16.0616 15.7003 16.0616C15.4882 16.0616 15.2847 15.9773 15.1347 15.8272C14.9846 15.6772 14.9003 15.4737 14.9003 15.2616ZM12.5003 14.4616C12.2882 14.4616 12.0847 14.5458 11.9347 14.6959C11.7846 14.8459 11.7003 15.0494 11.7003 15.2616C11.7003 15.4737 11.7846 15.6772 11.9347 15.8272C12.0847 15.9773 12.2882 16.0616 12.5003 16.0616C12.7125 16.0616 12.916 15.9773 13.066 15.8272C13.2161 15.6772 13.3003 15.4737 13.3003 15.2616C13.3003 15.0494 13.2161 14.8459 13.066 14.6959C12.916 14.5458 12.7125 14.4616 12.5003 14.4616ZM8.50034 15.2616C8.50034 15.0494 8.58463 14.8459 8.73466 14.6959C8.88469 14.5458 9.08817 14.4616 9.30034 14.4616C9.51251 14.4616 9.716 14.5458 9.86603 14.6959C10.0161 14.8459 10.1003 15.0494 10.1003 15.2616C10.1003 15.4737 10.0161 15.6772 9.86603 15.8272C9.716 15.9773 9.51251 16.0616 9.30034 16.0616C9.08817 16.0616 8.88469 15.9773 8.73466 15.8272C8.58463 15.6772 8.50034 15.4737 8.50034 15.2616ZM6.10034 14.4616C5.88817 14.4616 5.68469 14.5458 5.53466 14.6959C5.38463 14.8459 5.30034 15.0494 5.30034 15.2616C5.30034 15.4737 5.38463 15.6772 5.53466 15.8272C5.68469 15.9773 5.88817 16.0616 6.10034 16.0616C6.31251 16.0616 6.516 15.9773 6.66603 15.8272C6.81606 15.6772 6.90034 15.4737 6.90034 15.2616C6.90034 15.0494 6.81606 14.8459 6.66603 14.6959C6.516 14.5458 6.31251 14.4616 6.10034 14.4616ZM5.30034 18.4616C5.30034 18.2494 5.38463 18.0459 5.53466 17.8959C5.68469 17.7458 5.88817 17.6616 6.10034 17.6616C6.31251 17.6616 6.516 17.7458 6.66603 17.8959C6.81606 18.0459 6.90034 18.2494 6.90034 18.4616C6.90034 18.6737 6.81606 18.8772 6.66603 19.0272C6.516 19.1773 6.31251 19.2616 6.10034 19.2616C5.88817 19.2616 5.68469 19.1773 5.53466 19.0272C5.38463 18.8772 5.30034 18.6737 5.30034 18.4616ZM9.30034 17.6616C9.08817 17.6616 8.88469 17.7458 8.73466 17.8959C8.58463 18.0459 8.50034 18.2494 8.50034 18.4616C8.50034 18.6737 8.58463 18.8772 8.73466 19.0272C8.88469 19.1773 9.08817 19.2616 9.30034 19.2616C9.51251 19.2616 9.716 19.1773 9.86603 19.0272C10.0161 18.8772 10.1003 18.6737 10.1003 18.4616C10.1003 18.2494 10.0161 18.0459 9.86603 17.8959C9.716 17.7458 9.51251 17.6616 9.30034 17.6616ZM11.7003 18.4616C11.7003 18.2494 11.7846 18.0459 11.9347 17.8959C12.0847 17.7458 12.2882 17.6616 12.5003 17.6616C12.7125 17.6616 12.916 17.7458 13.066 17.8959C13.2161 18.0459 13.3003 18.2494 13.3003 18.4616C13.3003 18.6737 13.2161 18.8772 13.066 19.0272C12.916 19.1773 12.7125 19.2616 12.5003 19.2616C12.2882 19.2616 12.0847 19.1773 11.9347 19.0272C11.7846 18.8772 11.7003 18.6737 11.7003 18.4616ZM15.7003 17.6616C15.4882 17.6616 15.2847 17.7458 15.1347 17.8959C14.9846 18.0459 14.9003 18.2494 14.9003 18.4616C14.9003 18.6737 14.9846 18.8772 15.1347 19.0272C15.2847 19.1773 15.4882 19.2616 15.7003 19.2616C15.9125 19.2616 16.116 19.1773 16.266 19.0272C16.4161 18.8772 16.5003 18.6737 16.5003 18.4616C16.5003 18.2494 16.4161 18.0459 16.266 17.8959C16.116 17.7458 15.9125 17.6616 15.7003 17.6616Z" fill="#C2C2C2"/>
</svg>
