<svg width="25" height="25" viewBox="0 0 25 25" fill="none" xmlns="http://www.w3.org/2000/svg">
<path d="M15.5004 4.06155V2.06155M15.5004 4.06155V6.06155M15.5004 4.06155H11.0004M3.50037 10.0616V19.0616C3.50037 19.592 3.71108 20.1007 4.08615 20.4758C4.46123 20.8508 4.96993 21.0616 5.50037 21.0616H19.5004C20.0308 21.0616 20.5395 20.8508 20.9146 20.4758C21.2897 20.1007 21.5004 19.592 21.5004 19.0616V10.0616M3.50037 10.0616H21.5004M3.50037 10.0616V6.06155C3.50037 5.53112 3.71108 5.02241 4.08615 4.64734C4.46123 4.27227 4.96993 4.06155 5.50037 4.06155H7.50037M21.5004 10.0616V6.06155C21.5004 5.53112 21.2897 5.02241 20.9146 4.64734C20.5395 4.27227 20.0308 4.06155 19.5004 4.06155H19.0004M7.50037 2.06155V6.06155" stroke="#C2C2C2" stroke-width="1.5" stroke-linecap="round" stroke-linejoin="round"/>
</svg>
