<svg width="25" height="25" viewBox="0 0 25 25" fill="none" xmlns="http://www.w3.org/2000/svg">
<path d="M10.3794 14.1826L12.5004 12.0616M12.5004 12.0616L14.6214 9.94055M12.5004 12.0616L10.3794 9.94055M12.5004 12.0616L14.6214 14.1826M21.5004 3.66155V20.4616C21.5004 20.6207 21.4372 20.7733 21.3246 20.8858C21.2121 20.9983 21.0595 21.0616 20.9004 21.0616H4.10037C3.94124 21.0616 3.78862 20.9983 3.6761 20.8858C3.56358 20.7733 3.50037 20.6207 3.50037 20.4616V3.66155C3.50037 3.50242 3.56358 3.34981 3.6761 3.23729C3.78862 3.12477 3.94124 3.06155 4.10037 3.06155H20.9004C21.0595 3.06155 21.2121 3.12477 21.3246 3.23729C21.4372 3.34981 21.5004 3.50242 21.5004 3.66155Z" stroke="#C2C2C2" stroke-width="1.5" stroke-linecap="round" stroke-linejoin="round"/>
</svg>
