<svg width="25" height="25" viewBox="0 0 25 25" fill="none" xmlns="http://www.w3.org/2000/svg">
<path d="M12.5004 22.0616C6.97737 22.0616 2.50037 17.5846 2.50037 12.0616C2.50037 6.53855 6.97737 2.06155 12.5004 2.06155C18.0234 2.06155 22.5004 6.53855 22.5004 12.0616C22.5004 17.5846 18.0234 22.0616 12.5004 22.0616Z" stroke="#C2C2C2" stroke-width="1.5" stroke-linecap="round" stroke-linejoin="round"/>
<path d="M12.5004 16.0616C11.4395 16.0616 10.4221 15.6401 9.67194 14.89M12.5004 16.0616C13.5612 16.0616 14.5786 15.6401 15.3288 14.89M12.5004 16.0616V22.0616M9.67194 14.89C8.92179 14.1398 8.50037 13.1224 8.50037 12.0616M9.67194 14.89L5.42937 19.1326M8.50037 12.0616C8.50037 11.0007 8.92179 9.98327 9.67194 9.23313C10.4221 8.48298 11.4395 8.06155 12.5004 8.06155M8.50037 12.0616H2.50037M12.5004 8.06155C13.5612 8.06155 14.5786 8.48298 15.3288 9.23313M12.5004 8.06155V2.06155M15.3288 9.23313C16.0789 9.98327 16.5004 11.0007 16.5004 12.0616M15.3288 9.23313L19.5714 4.99055M16.5004 12.0616C16.5004 13.1224 16.0789 14.1398 15.3288 14.89M16.5004 12.0616H22.5004M15.3288 14.89L19.5714 19.1326M5.42937 4.99055L9.67237 9.23155" stroke="#C2C2C2" stroke-width="1.5" stroke-linecap="round" stroke-linejoin="round"/>
</svg>
