<svg width="25" height="25" viewBox="0 0 25 25" fill="none" xmlns="http://www.w3.org/2000/svg">
<g clip-path="url(#clip0_241_7)">
<path d="M10.5504 10.6686L3.48037 17.7386C3.29442 17.9243 3.1469 18.1449 3.04625 18.3877C2.9456 18.6305 2.8938 18.8907 2.8938 19.1536C2.8938 19.4164 2.9456 19.6767 3.04625 19.9194C3.1469 20.1622 3.29442 20.3828 3.48037 20.5686C3.85543 20.9435 4.36404 21.1541 4.89437 21.1541C5.4247 21.1541 5.93332 20.9435 6.30837 20.5686L13.3784 13.4966M17.6934 13.8616L21.5714 17.7396C21.9463 18.1146 22.1569 18.6232 22.1569 19.1536C22.1569 19.6839 21.9463 20.1925 21.5714 20.5676C21.1963 20.9425 20.6877 21.1531 20.1574 21.1531C19.627 21.1531 19.1184 20.9425 18.7434 20.5676L12.5344 14.3596M7.23337 5.96556L5.11037 6.67157L2.99037 3.13656L4.40437 1.72256L7.94037 3.84356L7.23337 5.96556ZM7.23337 5.96556L10.0634 8.79556" stroke="#C2C2C2" stroke-width="1.5" stroke-linecap="round" stroke-linejoin="round"/>
<path d="M10.5504 10.6685C9.70635 8.51554 9.87135 5.69054 11.6114 3.95054C13.3514 2.21054 16.5614 1.82954 18.3284 2.89054L15.2884 5.93054L15.0054 9.04154L18.1164 8.75954L21.1564 5.71854C22.2184 7.48654 21.8364 10.6965 20.0964 12.4355C18.3564 14.1755 15.5324 14.3405 13.3794 13.4965" stroke="#C2C2C2" stroke-width="1.5" stroke-linecap="round" stroke-linejoin="round"/>
</g>
<defs>
<clipPath id="clip0_241_7">
<rect width="24" height="24" fill="white" transform="translate(0.500366 0.061554)"/>
</clipPath>
</defs>
</svg>
