<svg width="25" height="25" viewBox="0 0 25 25" fill="none" xmlns="http://www.w3.org/2000/svg">
<path d="M12.5004 15.0616C13.296 15.0616 14.0591 14.7455 14.6217 14.1829C15.1843 13.6203 15.5004 12.8572 15.5004 12.0616C15.5004 11.2659 15.1843 10.5028 14.6217 9.94023C14.0591 9.37762 13.296 9.06155 12.5004 9.06155C11.7047 9.06155 10.9417 9.37762 10.379 9.94023C9.81644 10.5028 9.50037 11.2659 9.50037 12.0616C9.50037 12.8572 9.81644 13.6203 10.379 14.1829C10.9417 14.7455 11.7047 15.0616 12.5004 15.0616Z" stroke="#C2C2C2" stroke-width="1.5" stroke-linecap="round" stroke-linejoin="round"/>
<path d="M20.1224 10.4566L19.0254 7.80655L20.5004 6.06155L18.5004 4.06155L16.7654 5.54455L14.0584 4.43155L13.4354 2.06155H11.4814L10.8494 4.46255L8.20437 5.57755L6.50037 4.06155L4.50037 6.06155L5.95337 7.85055L4.87337 10.5076L2.50037 11.0616V13.0616L4.90137 13.7166L6.01637 16.3616L4.50037 18.0616L6.50037 20.0616L8.29137 18.6016L10.8974 19.6736L11.5004 22.0616H13.5004L14.1044 19.6746L16.7554 18.5766C17.1974 18.8926 18.5004 20.0616 18.5004 20.0616L20.5004 18.0616L19.0164 16.3116L20.1144 13.6596L22.5004 13.0396V11.0616L20.1224 10.4566Z" stroke="#C2C2C2" stroke-width="1.5" stroke-linecap="round" stroke-linejoin="round"/>
</svg>
