<svg width="25" height="25" viewBox="0 0 25 25" fill="none" xmlns="http://www.w3.org/2000/svg">
<path d="M19.9004 20.0616H10.1004C9.94124 20.0616 9.78862 19.9983 9.6761 19.8858C9.56358 19.7733 9.50037 19.6207 9.50037 19.4616V9.66155C9.50037 9.50242 9.56358 9.34981 9.6761 9.23729C9.78862 9.12477 9.94124 9.06155 10.1004 9.06155H19.9004C20.0595 9.06155 20.2121 9.12477 20.3246 9.23729C20.4372 9.34981 20.5004 9.50242 20.5004 9.66155V19.4616C20.5004 19.6207 20.4372 19.7733 20.3246 19.8858C20.2121 19.9983 20.0595 20.0616 19.9004 20.0616Z" stroke="#C2C2C2" stroke-width="1.5" stroke-linecap="round" stroke-linejoin="round"/>
<path d="M15.5004 9.06155V4.66155C15.5004 4.50242 15.4372 4.34981 15.3246 4.23729C15.2121 4.12477 15.0595 4.06155 14.9004 4.06155H5.10037C4.94124 4.06155 4.78862 4.12477 4.6761 4.23729C4.56358 4.34981 4.50037 4.50242 4.50037 4.66155V14.4616C4.50037 14.6207 4.56358 14.7733 4.6761 14.8858C4.78862 14.9983 4.94124 15.0616 5.10037 15.0616H9.50037" stroke="#C2C2C2" stroke-width="1.5" stroke-linecap="round" stroke-linejoin="round"/>
</svg>
