<svg width="25" height="25" viewBox="0 0 25 25" fill="none" xmlns="http://www.w3.org/2000/svg">
<g clip-path="url(#clip0_2_5)">
<path d="M17.4887 12.0615H18.4887M22.4887 12.0615H23.4887M6.72475 7.06155C6.99008 6.76835 7.19483 6.42559 7.32723 6.05298C7.45962 5.68037 7.51705 5.28526 7.4962 4.89038C7.47535 4.4955 7.37664 4.10863 7.20574 3.75203C7.03485 3.39544 6.79514 3.07614 6.5004 2.81252C6.20567 2.54889 5.86173 2.34613 5.48835 2.21591C5.11498 2.08568 4.71954 2.03055 4.32479 2.0537C3.93003 2.07684 3.54375 2.1778 3.18815 2.35076C2.83255 2.52373 2.51466 2.76529 2.25275 3.06155C1.72776 3.65539 1.45912 4.43287 1.50551 5.22414C1.5519 6.01541 1.90955 6.75616 2.50034 7.28459C3.09112 7.81302 3.86702 8.08617 4.65855 8.04438C5.45007 8.00259 6.19289 7.64925 6.72475 7.06155ZM6.72475 7.06155L19.4887 18.0616M6.72475 17.0615C6.99008 17.3547 7.19483 17.6975 7.32723 18.0701C7.45962 18.4427 7.51705 18.8378 7.4962 19.2327C7.47535 19.6276 7.37664 20.0145 7.20574 20.3711C7.03485 20.7277 6.79514 21.047 6.5004 21.3106C6.20567 21.5742 5.86173 21.777 5.48835 21.9072C5.11498 22.0374 4.71954 22.0925 4.32479 22.0694C3.93003 22.0463 3.54375 21.9453 3.18815 21.7723C2.83255 21.5994 2.51466 21.3578 2.25275 21.0616C1.72776 20.4677 1.45912 19.6902 1.50551 18.899C1.5519 18.1077 1.90955 17.3669 2.50034 16.8385C3.09112 16.3101 3.86702 16.0369 4.65855 16.0787C5.45007 16.1205 6.19289 16.4738 6.72475 17.0615ZM6.72475 17.0615L19.4887 6.06155" stroke="#C2C2C2" stroke-width="1.5" stroke-linecap="round" stroke-linejoin="round"/>
</g>
<defs>
<clipPath id="clip0_2_5">
<rect width="24" height="24" fill="white" transform="translate(0.500366 0.061554)"/>
</clipPath>
</defs>
</svg>
