<svg width="25" height="25" viewBox="0 0 25 25" fill="none" xmlns="http://www.w3.org/2000/svg">
<path d="M5.50037 12.0616V18.0616C5.50037 18.0616 5.50037 21.0616 12.5004 21.0616C19.5004 21.0616 19.5004 18.0616 19.5004 18.0616V12.0616" stroke="#C2C2C2" stroke-width="1.5"/>
<path d="M5.50037 6.06155V12.0616C5.50037 12.0616 5.50037 15.0616 12.5004 15.0616C19.5004 15.0616 19.5004 12.0616 19.5004 12.0616V6.06155" stroke="#C2C2C2" stroke-width="1.5"/>
<path d="M12.5004 3.06155C19.5004 3.06155 19.5004 6.06155 19.5004 6.06155C19.5004 6.06155 19.5004 9.06155 12.5004 9.06155C5.50037 9.06155 5.50037 6.06155 5.50037 6.06155C5.50037 6.06155 5.50037 3.06155 12.5004 3.06155Z" stroke="#C2C2C2" stroke-width="1.5"/>
</svg>
