<svg width="25" height="25" viewBox="0 0 25 25" fill="none" xmlns="http://www.w3.org/2000/svg">
<path d="M12.5004 12.0615H19.5004M19.5004 12.0615L16.5004 15.0615M19.5004 12.0615L16.5004 9.06152M19.5004 6.06152V5.06152C19.5004 4.53109 19.2897 4.02238 18.9146 3.64731C18.5395 3.27224 18.0308 3.06152 17.5004 3.06152H7.50037C6.96993 3.06152 6.46123 3.27224 6.08615 3.64731C5.71108 4.02238 5.50037 4.53109 5.50037 5.06152V19.0615C5.50037 19.592 5.71108 20.1007 6.08615 20.4757C6.46123 20.8508 6.96993 21.0615 7.50037 21.0615H17.5004C18.0308 21.0615 18.5395 20.8508 18.9146 20.4757C19.2897 20.1007 19.5004 19.592 19.5004 19.0615V18.0615" stroke="#C2C2C2" stroke-width="1.5" stroke-linecap="round" stroke-linejoin="round"/>
</svg>
