<svg width="25" height="25" viewBox="0 0 25 25" fill="none" xmlns="http://www.w3.org/2000/svg">
<path d="M7.0435 19.9615V18.9566H17.4565V17.583H18.4565V19.9615H7.0435ZM11.1695 16.1614C10.7934 16.0041 10.4508 15.776 10.1604 15.49L10.7024 14.8511C10.939 15.0711 11.2101 15.2503 11.5049 15.3821C11.8048 15.5156 12.1298 15.5838 12.4579 15.5821C12.776 15.6023 13.0921 15.5184 13.358 15.3426C13.5592 15.1988 13.6763 14.9649 13.6714 14.7176C13.6752 14.5876 13.6479 14.4586 13.5915 14.3416C13.5364 14.2406 13.4615 14.1511 13.3715 14.0791C13.2678 13.9986 13.1546 13.9314 13.0345 13.8792C12.9045 13.8195 12.7608 13.7591 12.606 13.6951L11.7465 13.3101C11.5851 13.2451 11.4289 13.1681 11.279 13.0796C11.1247 12.9903 10.9832 12.8799 10.8584 12.7522C10.7325 12.6209 10.6303 12.4686 10.5559 12.3023C10.475 12.1141 10.4353 11.9105 10.4395 11.7054C10.4375 11.4744 10.4889 11.2461 10.5895 11.0384C10.6895 10.8304 10.8348 10.6472 11.0146 10.5025C11.2093 10.3471 11.4304 10.2286 11.6675 10.1524C11.9375 10.0652 12.2199 10.0226 12.5036 10.0254C12.8692 10.0228 13.2315 10.0932 13.5691 10.2329C13.8874 10.3617 14.1763 10.5532 14.4191 10.7959L13.9341 11.396C13.7416 11.2249 13.5219 11.0871 13.2841 10.9881C13.0208 10.8853 12.7395 10.8356 12.4566 10.8421C12.1804 10.8286 11.907 10.9044 11.677 11.0581C11.4853 11.193 11.3747 11.4155 11.3831 11.6497C11.3804 11.77 11.4107 11.8887 11.4706 11.9927C11.5325 12.0928 11.6139 12.1796 11.7101 12.2471C11.8162 12.3229 11.9306 12.3861 12.0511 12.4351L12.4471 12.5992L13.2786 12.9651C13.463 13.036 13.6409 13.1227 13.8106 13.2237C13.9672 13.317 14.1107 13.431 14.2371 13.562C14.3596 13.6929 14.456 13.8457 14.5216 14.012C14.5923 14.2028 14.6262 14.4058 14.6216 14.6094C14.6222 14.8491 14.5711 15.0856 14.4716 15.3035C14.3702 15.5255 14.2198 15.7216 14.0317 15.877C13.8243 16.0475 13.5869 16.178 13.3317 16.2615C13.0305 16.3595 12.7151 16.4073 12.3982 16.4026C11.9765 16.4054 11.5585 16.3237 11.169 16.1617L11.1695 16.1614ZM6.14445 16.189C5.81505 16.0493 5.52088 15.838 5.28398 15.5696C5.03078 15.2779 4.83623 14.9397 4.71098 14.574C4.56373 14.1395 4.49272 13.6829 4.50102 13.2239C4.49392 12.7671 4.56503 12.3123 4.71098 11.8794C4.83683 11.5098 5.03356 11.1683 5.28996 10.8738C5.53316 10.6011 5.833 10.3848 6.1685 10.2403C6.52125 10.0901 6.90155 10.0149 7.28495 10.0193C7.63225 10.0126 7.97575 10.0918 8.28495 10.2503C8.5534 10.3846 8.79706 10.5638 9.00541 10.7798L8.48136 11.3714C8.33061 11.2131 8.154 11.0817 7.9589 10.9829C7.74955 10.8817 7.51936 10.8317 7.28691 10.8369C7.02756 10.8329 6.77071 10.8896 6.53691 11.002C6.31206 11.1123 6.11539 11.273 5.96244 11.4715C5.79454 11.6933 5.66956 11.9444 5.59391 12.2124C5.50276 12.5314 5.45877 12.8624 5.46342 13.1944C5.45817 13.5308 5.50216 13.8665 5.59391 14.1905C5.66956 14.4616 5.79602 14.716 5.96647 14.9405C6.12112 15.1405 6.31972 15.3028 6.54692 15.4146C6.78262 15.5274 7.04145 15.5841 7.3029 15.5796C7.5528 15.5838 7.79984 15.5257 8.02189 15.4107C8.24589 15.2882 8.44534 15.1252 8.61039 14.9307L9.13444 15.5047C8.90494 15.7817 8.62013 16.0071 8.29838 16.1673C7.95768 16.3257 7.58524 16.4041 7.20939 16.3963C6.84404 16.4011 6.48158 16.3312 6.14408 16.1909L6.14445 16.189ZM17.483 16.2891L15.55 10.1341H16.54L17.465 13.3382C17.5709 13.6947 17.6649 14.0324 17.7455 14.3487C17.826 14.6652 17.9201 15.0017 18.0246 15.3582H18.063C18.1745 15.0017 18.271 14.6647 18.352 14.3487C18.4329 14.0329 18.5265 13.6947 18.6325 13.3382L19.5485 10.1341H20.5L18.575 16.2891H17.483ZM13.6005 8.13919L16.7295 5.06619H14.674V4.06155H18.4574V7.86649H17.4574V5.75858L14.3009 8.85867L13.6005 8.13919ZM6.5435 8.49881V4.06155H12.5V5.06644H7.54203V8.49832L6.5435 8.49881Z" fill="#C2C2C2"/>
</svg>
