<svg width="25" height="25" viewBox="0 0 25 25" fill="none" xmlns="http://www.w3.org/2000/svg">
<path d="M4.50037 21.4616V2.66155C4.50037 2.50242 4.56358 2.34981 4.6761 2.23729C4.78862 2.12477 4.94124 2.06155 5.10037 2.06155H16.7524C16.9114 2.06169 17.064 2.125 17.1764 2.23755L20.3244 5.38555C20.3803 5.44145 20.4247 5.50787 20.4549 5.58098C20.4851 5.65409 20.5006 5.73245 20.5004 5.81155V21.4616C20.5004 21.5403 20.4848 21.6184 20.4547 21.6912C20.4245 21.764 20.3803 21.8301 20.3246 21.8858C20.2689 21.9415 20.2028 21.9857 20.13 22.0159C20.0572 22.046 19.9792 22.0616 19.9004 22.0616H5.10037C5.02157 22.0616 4.94355 22.046 4.87076 22.0159C4.79796 21.9857 4.73182 21.9415 4.6761 21.8858C4.62039 21.8301 4.57619 21.764 4.54604 21.6912C4.51589 21.6184 4.50037 21.5403 4.50037 21.4616Z" stroke="#C2C2C2" stroke-width="1.5" stroke-linecap="round" stroke-linejoin="round"/>
<path d="M16.5004 2.06155V5.46155C16.5004 5.62068 16.5636 5.7733 16.6761 5.88582C16.7886 5.99834 16.9412 6.06155 17.1004 6.06155H20.5004" stroke="#C2C2C2" stroke-width="1.5" stroke-linecap="round" stroke-linejoin="round"/>
<path d="M15.4612 13.0866C15.2078 14.7704 13.7549 16.0616 12.0004 16.0616C10.0673 16.0616 8.50037 14.4946 8.50037 12.5616C8.50037 10.6285 10.0673 9.06155 12.0004 9.06155C13.4354 9.06155 14.6691 9.92535 15.2092 11.1616" stroke="#C2C2C2" stroke-width="1.2" stroke-linecap="round" stroke-linejoin="round"/>
<path d="M13.7504 11.1616H15.2904C15.3179 11.1616 15.3453 11.1562 15.3707 11.1456C15.3962 11.1351 15.4194 11.1196 15.4389 11.1001C15.4584 11.0806 15.4738 11.0575 15.4844 11.032C15.4949 11.0065 15.5004 10.9792 15.5004 10.9516V9.41162" stroke="#C2C2C2" stroke-width="1.2" stroke-linecap="round" stroke-linejoin="round"/>
</svg>
