<svg width="25" height="25" viewBox="0 0 25 25" fill="none" xmlns="http://www.w3.org/2000/svg">
<path d="M17.4732 7.49262V9.37317L20.7606 6.0858L17.4745 3.06155V4.84586C14.9942 5.05952 13.0893 7.13438 13.0878 9.62378C13.0878 9.73003 13.0878 9.83315 13.0978 9.93627C14.0402 8.42349 15.6934 7.50052 17.4757 7.492" fill="#C2C2C2"/>
<path d="M22.4367 10.1444L18.9419 20.4115C18.8745 20.6121 18.686 20.7469 18.4744 20.7459H8.69481H7.6636H4.97996C4.75167 20.7463 4.553 20.5898 4.49998 20.3678L2.51882 11.7337C2.46914 11.5169 2.521 11.2892 2.65969 11.1152C2.79838 10.9412 3.00879 10.8399 3.23129 10.84H7.73735L8.16046 9.59008C8.37452 8.95629 8.96832 8.5291 9.63727 8.52762H12.4447C12.3696 8.85215 12.3397 9.1855 12.3559 9.5182H9.63727C9.3924 9.51768 9.17487 9.67446 9.09792 9.90694L8.78543 10.8331H8.91043C9.43291 10.8347 9.91556 11.1126 10.1791 11.5637L10.7829 12.5962C10.7948 12.6177 10.8176 12.6309 10.8422 12.6306H16.232C16.7673 12.631 17.2317 13.0003 17.3526 13.5218L18.52 18.5785L21.4993 9.82694C21.5245 9.75664 21.5125 9.67837 21.4674 9.61883C21.4247 9.55758 21.3546 9.52133 21.2799 9.52195H18.4925C18.8438 9.20947 19.2544 8.84073 19.5956 8.53137H21.283C21.676 8.53222 22.0444 8.72227 22.2729 9.04195C22.5014 9.36162 22.5619 9.77177 22.4355 10.1438" fill="#C2C2C2"/>
</svg>
