<svg width="25" height="25" viewBox="0 0 25 25" fill="none" xmlns="http://www.w3.org/2000/svg">
<path d="M4.0617 22.5615C3.85401 22.5603 3.65536 22.4766 3.5093 22.3289C3.36324 22.1812 3.28172 21.9816 3.28277 21.7739V6.28769C3.27854 6.17942 3.29663 6.07118 3.3358 5.97016C3.37496 5.86914 3.43432 5.77748 3.51042 5.70037L7.37286 1.79388C7.4462 1.7192 7.53403 1.66013 7.63079 1.62021C7.72754 1.58029 7.83132 1.56034 7.93598 1.56158H17.4404C17.6481 1.56331 17.8467 1.64703 17.993 1.79452C18.1392 1.94201 18.2214 2.14144 18.2214 2.34916V8.27073C18.222 8.37376 18.2022 8.4759 18.1633 8.57128C18.1243 8.66666 18.067 8.75317 17.9944 8.82633C17.9219 8.89948 17.8356 8.95768 17.7405 8.99743C17.6454 9.03717 17.5435 9.05773 17.4404 9.05799C17.3375 9.05756 17.2359 9.03694 17.141 8.99711C17.0461 8.95728 16.9601 8.89916 16.8877 8.82601C16.8154 8.75286 16.7581 8.66625 16.7193 8.57096C16.6805 8.47566 16.6608 8.37361 16.6615 8.27073V3.13769H8.70498V6.25532C8.70499 6.4627 8.62332 6.66189 8.47748 6.80932C8.33165 6.95675 8.13341 7.04066 7.92605 7.0429H4.8419V20.9787H16.6615V17.8505C16.6615 17.6431 16.7433 17.4442 16.8892 17.2968C17.035 17.1494 17.2331 17.0655 17.4404 17.0632C17.6481 17.0649 17.8467 17.1487 17.993 17.2962C18.1392 17.4436 18.2214 17.6428 18.2214 17.8505V21.7682C18.222 21.8712 18.2021 21.9734 18.1631 22.0687C18.1241 22.1641 18.0668 22.2506 17.9943 22.3238C17.9217 22.3969 17.8355 22.4551 17.7405 22.4949C17.6455 22.5347 17.5434 22.5554 17.4404 22.5558L4.0617 22.5615ZM11.3654 19.1113V16.9286L17.7306 10.4979L19.8874 12.6783L13.5262 19.1132L11.3654 19.1113ZM6.34064 17.0152C6.26143 17.0149 6.18315 16.999 6.1101 16.9684C6.03706 16.9377 5.97081 16.893 5.91513 16.8367C5.85945 16.7803 5.81546 16.7134 5.78568 16.6399C5.75591 16.5665 5.74093 16.4881 5.74163 16.4089C5.74102 16.3297 5.75605 16.251 5.78584 16.1776C5.81563 16.1041 5.85949 16.0373 5.91513 15.9809C5.97077 15.9244 6.03709 15.8797 6.1101 15.8488C6.18312 15.818 6.26139 15.8019 6.34064 15.8014H9.06464C9.22464 15.8026 9.37765 15.8672 9.48999 15.9812C9.60233 16.0951 9.66487 16.2489 9.66382 16.4089C9.66442 16.4881 9.64941 16.5666 9.6196 16.6399C9.58979 16.7133 9.54565 16.78 9.48999 16.8364C9.43433 16.8927 9.36818 16.9377 9.29518 16.9684C9.22218 16.9991 9.14383 17.0148 9.06464 17.0152H6.34064ZM6.34064 14.29C6.26148 14.2898 6.18326 14.2739 6.11026 14.2432C6.03726 14.2126 5.97096 14.1678 5.91529 14.1116C5.85962 14.0553 5.81566 13.9888 5.78584 13.9155C5.75603 13.8421 5.74102 13.7636 5.74163 13.6844C5.74102 13.6052 5.75605 13.5265 5.78584 13.4531C5.81564 13.3797 5.85964 13.3131 5.91529 13.2567C5.97094 13.2003 6.0371 13.1554 6.1101 13.1247C6.18311 13.0939 6.26142 13.0777 6.34064 13.0773H11.3654C11.4447 13.0776 11.5231 13.0937 11.5962 13.1244C11.6694 13.1551 11.7359 13.2 11.7917 13.2564C11.8475 13.3127 11.8916 13.3793 11.9216 13.4528C11.9516 13.5262 11.9667 13.6051 11.9663 13.6844C11.9667 13.7637 11.9515 13.8421 11.9215 13.9155C11.8914 13.9888 11.8472 14.0556 11.7914 14.1119C11.7355 14.1681 11.6692 14.2127 11.5961 14.2432C11.523 14.2738 11.4446 14.2898 11.3654 14.29H6.34064ZM18.3434 9.87376L19.3934 8.80935C19.4461 8.75532 19.5091 8.71242 19.5787 8.6831C19.6483 8.65379 19.723 8.63857 19.7985 8.63857C19.874 8.63857 19.9489 8.65379 20.0185 8.6831C20.0881 8.71242 20.1511 8.75532 20.2038 8.80935L21.5504 10.1692C21.6582 10.2786 21.7186 10.426 21.7186 10.5796C21.7186 10.7332 21.6582 10.8807 21.5504 10.9901L20.5004 12.0548L18.3434 9.87376ZM6.34064 11.6402C6.26137 11.6398 6.18299 11.6239 6.10994 11.5931C6.03689 11.5623 5.97063 11.5172 5.91497 11.4608C5.85931 11.4043 5.81544 11.3375 5.78568 11.264C5.75593 11.1906 5.74093 11.112 5.74163 11.0327C5.74111 10.9536 5.75616 10.875 5.786 10.8017C5.81585 10.7284 5.8598 10.6618 5.91545 10.6056C5.9711 10.5493 6.0373 10.5045 6.11026 10.4739C6.18322 10.4433 6.26151 10.4271 6.34064 10.4268H13.8654C13.9447 10.4271 14.0232 10.443 14.0963 10.4736C14.1694 10.5042 14.2357 10.549 14.2916 10.6053C14.3474 10.6615 14.3916 10.728 14.4216 10.8014C14.4517 10.8747 14.4669 10.9535 14.4665 11.0327C14.4669 11.1121 14.4518 11.1905 14.4218 11.264C14.3918 11.3375 14.3477 11.4043 14.2919 11.4608C14.2361 11.5172 14.1696 11.5623 14.0964 11.5931C14.0233 11.6239 13.9448 11.6398 13.8654 11.6402H6.34064ZM7.86181 8.91765C7.78244 8.91722 7.70395 8.90099 7.63079 8.87022C7.55763 8.83945 7.49115 8.79464 7.43534 8.73821C7.37952 8.68179 7.33538 8.61497 7.30541 8.54148C7.27543 8.46799 7.26028 8.38951 7.26071 8.31014C7.26028 8.2308 7.27543 8.15193 7.30541 8.07848C7.33539 8.00503 7.37967 7.93844 7.4355 7.88207C7.49132 7.82569 7.55763 7.78076 7.63079 7.75006C7.70395 7.71936 7.78247 7.7033 7.86181 7.70296H15.2658C15.3451 7.7033 15.4236 7.71936 15.4968 7.75006C15.57 7.78076 15.6363 7.82569 15.6921 7.88207C15.7479 7.93844 15.7922 8.00503 15.8222 8.07848C15.8522 8.15193 15.8673 8.2308 15.8669 8.31014C15.8673 8.38951 15.8522 8.46799 15.8222 8.54148C15.7922 8.61497 15.7481 8.68179 15.6922 8.73821C15.6364 8.79464 15.57 8.83945 15.4968 8.87022C15.4236 8.90099 15.3451 8.91722 15.2658 8.91765H7.86181Z" fill="#C2C2C2"/>
</svg>
