<svg width="25" height="25" viewBox="0 0 25 25" fill="none" xmlns="http://www.w3.org/2000/svg">
<path d="M4.50037 3.06155H20.5004C20.7656 3.06155 21.0199 3.16691 21.2075 3.35445C21.395 3.54198 21.5004 3.79634 21.5004 4.06155V5.64755C21.5003 5.91275 21.3949 6.16706 21.2074 6.35455L14.7924 12.7686C14.6052 12.9562 14.5002 13.2105 14.5004 13.4756V19.7806C14.5004 19.9326 14.4657 20.0826 14.399 20.2192C14.3324 20.3558 14.2354 20.4754 14.1156 20.5689C13.9957 20.6624 13.8562 20.7274 13.7075 20.7589C13.5587 20.7903 13.4048 20.7875 13.2574 20.7506L11.2574 20.2506C11.0411 20.1964 10.8492 20.0715 10.712 19.8958C10.5749 19.72 10.5004 19.5035 10.5004 19.2806V13.4756C10.5003 13.2104 10.3949 12.956 10.2074 12.7686L3.79237 6.35455C3.60518 6.1669 3.50016 5.91261 3.50037 5.64755V4.06155C3.50037 3.79634 3.60572 3.54198 3.79326 3.35445C3.9808 3.16691 4.23515 3.06155 4.50037 3.06155Z" stroke="#C2C2C2" stroke-width="1.5" stroke-linecap="round" stroke-linejoin="round"/>
</svg>
