<svg width="25" height="25" viewBox="0 0 25 25" fill="none" xmlns="http://www.w3.org/2000/svg">
<path d="M2.50037 11.0616V4.66155C2.50037 4.50242 2.56358 4.34981 2.6761 4.23729C2.78862 4.12477 2.94124 4.06155 3.10037 4.06155H9.27837C9.42137 4.06154 9.55968 4.11261 9.66837 4.20555L12.8324 6.91755C12.9411 7.0105 13.0794 7.06156 13.2224 7.06155H21.9004C21.9792 7.06155 22.0572 7.07707 22.13 7.10723C22.2028 7.13738 22.2689 7.18157 22.3246 7.23729C22.3803 7.29301 22.4245 7.35915 22.4547 7.43194C22.4848 7.50474 22.5004 7.58276 22.5004 7.66155V11.0616M2.50037 11.0616V19.4616C2.50037 19.6207 2.56358 19.7733 2.6761 19.8858C2.78862 19.9983 2.94124 20.0616 3.10037 20.0616H21.9004C22.0595 20.0616 22.2121 19.9983 22.3246 19.8858C22.4372 19.7733 22.5004 19.6207 22.5004 19.4616V11.0616M2.50037 11.0616H22.5004" stroke="#C2C2C2" stroke-width="1.5" stroke-linecap="round" stroke-linejoin="round"/>
</svg>
