<svg width="25" height="25" viewBox="0 0 25 25" fill="none" xmlns="http://www.w3.org/2000/svg">
<path d="M3.50037 3.06155L21.5004 21.0616M11.0004 10.7386C10.6634 11.1201 10.4846 11.6157 10.5004 12.1244C10.5162 12.6332 10.7253 13.1168 11.0852 13.4767C11.4451 13.8366 11.9287 14.0458 12.4375 14.0615C12.9462 14.0773 13.4419 13.8985 13.8234 13.5616" stroke="#C2C2C2" stroke-width="1.5" stroke-linecap="round" stroke-linejoin="round"/>
<path d="M7.86237 7.62255C6.18037 8.80155 4.77937 10.4816 3.50037 12.0616C5.38937 15.0526 8.78237 18.0616 12.5004 18.0616C14.0504 18.0616 15.5434 17.5386 16.8954 16.7116M12.5004 6.06155C16.5084 6.06155 19.2014 9.21955 21.5004 12.0616C21.1709 12.5823 20.8109 13.0832 20.4224 13.5616" stroke="#C2C2C2" stroke-width="1.5" stroke-linecap="round" stroke-linejoin="round"/>
</svg>
