<svg width="25" height="25" viewBox="0 0 25 25" fill="none" xmlns="http://www.w3.org/2000/svg">
<g clip-path="url(#clip0_231_511)">
<path d="M12.5004 17.9681C12.3363 17.9681 12.179 18.0333 12.0631 18.1493C11.9471 18.2652 11.8819 18.4225 11.8819 18.5866V20.4431C11.8819 20.6071 11.9471 20.7644 12.0631 20.8804C12.179 20.9964 12.3363 21.0616 12.5004 21.0616C12.6644 21.0616 12.8217 20.9964 12.9377 20.8804C13.0536 20.7644 13.1188 20.6071 13.1188 20.4431V18.5866C13.1188 18.4225 13.0536 18.2652 12.9377 18.1493C12.8217 18.0333 12.6644 17.9681 12.5004 17.9681Z" fill="#C2C2C2"/>
<path d="M12.5004 3.06155C12.3363 3.06155 12.179 3.12671 12.0631 3.24269C11.9471 3.35867 11.8819 3.51596 11.8819 3.67998V5.53655C11.8819 5.70057 11.9471 5.85787 12.0631 5.97385C12.179 6.08983 12.3363 6.15498 12.5004 6.15498C12.6644 6.15498 12.8217 6.08983 12.9377 5.97385C13.0536 5.85787 13.1188 5.70057 13.1188 5.53655V3.67998C13.1188 3.51596 13.0536 3.35867 12.9377 3.24269C12.8217 3.12671 12.6644 3.06155 12.5004 3.06155Z" fill="#C2C2C2"/>
<path d="M6.59379 12.0616C6.59379 11.8975 6.52864 11.7402 6.41266 11.6243C6.29668 11.5083 6.13938 11.4431 5.97537 11.4431H4.11879C3.95478 11.4431 3.79748 11.5083 3.6815 11.6243C3.56552 11.7402 3.50037 11.8975 3.50037 12.0616C3.50037 12.2256 3.56552 12.3829 3.6815 12.4989C3.79748 12.6148 3.95478 12.68 4.11879 12.68H5.97537C6.13938 12.68 6.29668 12.6148 6.41266 12.4989C6.52864 12.3829 6.59379 12.2256 6.59379 12.0616Z" fill="#C2C2C2"/>
<path d="M20.882 11.4431H19.0254C18.8614 11.4431 18.7041 11.5083 18.5881 11.6243C18.4721 11.7402 18.407 11.8975 18.407 12.0616C18.407 12.2256 18.4721 12.3829 18.5881 12.4989C18.7041 12.6148 18.8614 12.68 19.0254 12.68H20.882C21.046 12.68 21.2033 12.6148 21.3192 12.4989C21.4352 12.3829 21.5004 12.2256 21.5004 12.0616C21.5004 11.8975 21.4352 11.7402 21.3192 11.6243C21.2033 11.5083 21.046 11.4431 20.882 11.4431Z" fill="#C2C2C2"/>
<path d="M7.69949 16.244C7.61807 16.2438 7.53741 16.2597 7.46216 16.2908C7.38692 16.3219 7.31857 16.3676 7.26107 16.4253L5.94321 17.7393C5.83535 17.857 5.77709 18.0118 5.78057 18.1714C5.78406 18.3311 5.84903 18.4832 5.96194 18.5961C6.07484 18.709 6.22697 18.774 6.3866 18.7775C6.54623 18.781 6.70105 18.7227 6.81878 18.6148L8.13278 17.3008C8.21973 17.2143 8.279 17.1039 8.30305 16.9837C8.3271 16.8634 8.31485 16.7387 8.26785 16.6254C8.22086 16.5121 8.14124 16.4154 8.03912 16.3475C7.937 16.2796 7.817 16.2435 7.69435 16.244H7.69949Z" fill="#C2C2C2"/>
<path d="M17.3012 7.87913C17.3826 7.87933 17.4633 7.86341 17.5385 7.8323C17.6138 7.80119 17.6821 7.75549 17.7396 7.69784L19.0575 6.38384C19.1654 6.26611 19.2236 6.11129 19.2201 5.95166C19.2166 5.79203 19.1517 5.6399 19.0388 5.527C18.9259 5.4141 18.7737 5.34913 18.6141 5.34564C18.4545 5.34215 18.2997 5.40041 18.1819 5.50827L16.8641 6.82227C16.7771 6.90877 16.7179 7.01916 16.6938 7.13943C16.6698 7.25969 16.682 7.38439 16.729 7.49767C16.776 7.61096 16.8556 7.70771 16.9577 7.77563C17.0598 7.84356 17.1786 7.87958 17.3012 7.87913Z" fill="#C2C2C2"/>
<path d="M6.82266 5.50441C6.70493 5.39655 6.55011 5.33829 6.39047 5.34178C6.23084 5.34527 6.07872 5.41024 5.96581 5.52314C5.85291 5.63604 5.78794 5.78817 5.78445 5.9478C5.78096 6.10743 5.83922 6.26225 5.94708 6.37998L7.26108 7.69784C7.37881 7.8057 7.53363 7.86396 7.69327 7.86048C7.8529 7.85699 8.00502 7.79202 8.11793 7.67911C8.23083 7.56621 8.2958 7.41408 8.29929 7.25445C8.30278 7.09482 8.24452 6.94 8.13666 6.82227L6.82266 5.50441Z" fill="#C2C2C2"/>
<path d="M17.7396 16.4253C17.6219 16.3174 17.4671 16.2591 17.3075 16.2626C17.1478 16.2661 16.9957 16.3311 16.8828 16.444C16.7699 16.5569 16.7049 16.709 16.7014 16.8687C16.698 17.0283 16.7562 17.1831 16.8641 17.3008L18.1781 18.6187C18.2958 18.7266 18.4506 18.7848 18.6103 18.7813C18.7699 18.7778 18.922 18.7129 19.0349 18.6C19.1478 18.4871 19.2128 18.3349 19.2163 18.1753C19.2198 18.0157 19.1615 17.8609 19.0536 17.7431L17.7396 16.4253Z" fill="#C2C2C2"/>
<path d="M12.5004 8.20441C11.7375 8.20441 10.9918 8.43062 10.3574 8.85445C9.72315 9.27828 9.22877 9.88068 8.93683 10.5855C8.64489 11.2903 8.56851 12.0658 8.71733 12.814C8.86616 13.5623 9.23352 14.2495 9.77295 14.789C10.3124 15.3284 10.9997 15.6958 11.7479 15.8446C12.4961 15.9934 13.2716 15.917 13.9764 15.6251C14.6812 15.3331 15.2836 14.8388 15.7075 14.2045C16.1313 13.5702 16.3575 12.8244 16.3575 12.0615C16.3575 11.0386 15.9511 10.0575 15.2278 9.33414C14.5044 8.61078 13.5233 8.20441 12.5004 8.20441Z" fill="#C2C2C2"/>
</g>
<defs>
<clipPath id="clip0_231_511">
<rect width="18" height="18" fill="white" transform="translate(3.50037 3.06155)"/>
</clipPath>
</defs>
</svg>
