<svg width="25" height="25" viewBox="0 0 25 25" fill="none" xmlns="http://www.w3.org/2000/svg">
<g clip-path="url(#clip0_265_91)">
<path d="M13.7674 15.2718C13.661 15.2718 13.5544 15.268 13.4474 15.2603C12.1539 15.1679 10.9643 14.5179 10.1879 13.4793C10.0387 13.2798 10.0073 13.016 10.1054 12.7871C10.2036 12.5582 10.4164 12.399 10.6637 12.3696C10.911 12.3401 11.1552 12.4448 11.3044 12.6443C11.8389 13.3589 12.6574 13.8061 13.5475 13.8698C14.4376 13.9335 15.3115 13.6075 15.9424 12.9763L18.2059 10.7128C18.9829 9.93574 19.2864 8.80316 19.002 7.74168C18.7176 6.68021 17.8884 5.8511 16.827 5.56668C15.7655 5.28226 14.6329 5.58574 13.8559 6.36279L12.5559 7.65479C12.2805 7.90884 11.8535 7.89968 11.5892 7.63406C11.3249 7.36844 11.3179 6.94141 11.5734 6.66729L12.8734 5.37679C14.6261 3.67387 17.4216 3.69455 19.1489 5.42323C20.8762 7.1519 20.8947 9.94744 19.1904 11.6988L16.9269 13.9623C16.0892 14.8007 14.9526 15.2718 13.7674 15.2718Z" fill="#C2C2C2"/>
<path d="M8.96939 20.0523C7.16183 20.0531 5.5319 18.9646 4.84007 17.2947C4.14824 15.6248 4.53085 13.7025 5.80939 12.4248L8.07289 10.1613C8.98974 9.24418 10.2597 8.7705 11.5532 8.86319C12.8467 8.95589 14.0362 9.60581 14.8129 10.6443C14.962 10.8437 14.9935 11.1076 14.8953 11.3365C14.7972 11.5654 14.5844 11.7245 14.3371 11.754C14.0898 11.7834 13.8455 11.6787 13.6964 11.4793C13.1619 10.7647 12.3433 10.3175 11.4532 10.2538C10.5631 10.1901 9.68924 10.5161 9.05839 11.1473L6.79539 13.4108C6.01834 14.1878 5.71486 15.3204 5.99928 16.3819C6.2837 17.4434 7.11281 18.2725 8.17428 18.5569C9.23576 18.8413 10.3683 18.5378 11.1454 17.7608L12.4349 16.4703C12.707 16.198 13.1484 16.1979 13.4206 16.47C13.6929 16.7422 13.693 17.1835 13.4209 17.4558L12.1289 18.7453C11.2914 19.5838 10.1545 20.0541 8.96939 20.0523Z" fill="#C2C2C2"/>
</g>
<defs>
<clipPath id="clip0_265_91">
<rect width="16" height="16" fill="white" transform="translate(4.50037 4.06152)"/>
</clipPath>
</defs>
</svg>
