<svg width="25" height="25" viewBox="0 0 25 25" fill="none" xmlns="http://www.w3.org/2000/svg">
<path fill-rule="evenodd" clip-rule="evenodd" d="M13.8544 8.81156H4.50037C4.30145 8.81156 4.11069 8.73254 3.97004 8.59189C3.82938 8.45124 3.75037 8.26047 3.75037 8.06156C3.75037 7.86265 3.82938 7.67188 3.97004 7.53123C4.11069 7.39058 4.30145 7.31156 4.50037 7.31156H13.8544C14.0178 6.73564 14.3646 6.22875 14.8423 5.86781C15.3199 5.50687 15.9022 5.31158 16.5009 5.31158C17.0995 5.31158 17.6819 5.50687 18.1595 5.86781C18.6371 6.22875 18.9839 6.73564 19.1474 7.31156H20.5004C20.6993 7.31156 20.89 7.39058 21.0307 7.53123C21.1713 7.67188 21.2504 7.86265 21.2504 8.06156C21.2504 8.26047 21.1713 8.45124 21.0307 8.59189C20.89 8.73254 20.6993 8.81156 20.5004 8.81156H19.1464C18.9829 9.38748 18.6361 9.89437 18.1585 10.2553C17.6809 10.6162 17.0985 10.8115 16.4999 10.8115C15.9012 10.8115 15.3189 10.6162 14.8413 10.2553C14.3636 9.89437 14.0168 9.38748 13.8534 8.81156H13.8544ZM15.2504 8.06156C15.2504 7.73004 15.3821 7.4121 15.6165 7.17768C15.8509 6.94326 16.1688 6.81156 16.5004 6.81156C16.8319 6.81156 17.1498 6.94326 17.3843 7.17768C17.6187 7.4121 17.7504 7.73004 17.7504 8.06156C17.7504 8.39308 17.6187 8.71102 17.3843 8.94544C17.1498 9.17986 16.8319 9.31156 16.5004 9.31156C16.1688 9.31156 15.8509 9.17986 15.6165 8.94544C15.3821 8.71102 15.2504 8.39308 15.2504 8.06156ZM11.1464 16.8116H20.5004C20.6993 16.8116 20.89 16.7325 21.0307 16.5919C21.1713 16.4512 21.2504 16.2605 21.2504 16.0616C21.2504 15.8626 21.1713 15.6719 21.0307 15.5312C20.89 15.3906 20.6993 15.3116 20.5004 15.3116H11.1464C10.9826 14.736 10.6357 14.2296 10.1582 13.869C9.68075 13.5084 9.09872 13.3133 8.50037 13.3133C7.90202 13.3133 7.31998 13.5084 6.84249 13.869C6.365 14.2296 6.0181 14.736 5.85437 15.3116H4.50037C4.30145 15.3116 4.11069 15.3906 3.97004 15.5312C3.82938 15.6719 3.75037 15.8626 3.75037 16.0616C3.75037 16.2605 3.82938 16.4512 3.97004 16.5919C4.11069 16.7325 4.30145 16.8116 4.50037 16.8116H5.85437C6.0181 17.3871 6.365 17.8935 6.84249 18.2541C7.31998 18.6147 7.90202 18.8098 8.50037 18.8098C9.09872 18.8098 9.68075 18.6147 10.1582 18.2541C10.6357 17.8935 10.9826 17.3871 11.1464 16.8116ZM7.25037 16.0616C7.25037 15.73 7.38206 15.4121 7.61648 15.1777C7.8509 14.9433 8.16885 14.8116 8.50037 14.8116C8.83189 14.8116 9.14983 14.9433 9.38425 15.1777C9.61867 15.4121 9.75037 15.73 9.75037 16.0616C9.75037 16.3931 9.61867 16.711 9.38425 16.9454C9.14983 17.1799 8.83189 17.3116 8.50037 17.3116C8.16885 17.3116 7.8509 17.1799 7.61648 16.9454C7.38206 16.711 7.25037 16.3931 7.25037 16.0616Z" fill="#C2C2C2"/>
</svg>
