<svg width="25" height="25" viewBox="0 0 25 25" fill="none" xmlns="http://www.w3.org/2000/svg">
<path d="M6.14879 1.60374C5.59098 1.74436 5.10817 2.27405 5.02379 2.84124L4.99098 3.06155H4.48942C3.65973 3.06155 3.16754 3.24436 2.67535 3.73655C2.36129 4.05061 2.17848 4.36467 2.07067 4.78186C1.96285 5.18498 1.96285 18.9381 2.07067 19.3412C2.29098 20.1803 2.99879 20.8553 3.82379 21.0147C3.97848 21.0428 5.15973 21.0615 6.84723 21.0615H9.61754L9.75817 21.3334C9.9316 21.6709 10.391 22.135 10.7097 22.299C11.2394 22.5662 11.1457 22.5615 15.4582 22.5615C17.9613 22.5615 19.5175 22.5428 19.6769 22.5147C20.5347 22.3506 21.2894 21.5959 21.4535 20.7381C21.5191 20.3912 21.5191 9.73186 21.4535 9.38498C21.3363 8.7803 20.8675 8.13342 20.3379 7.85217C19.8269 7.5803 19.6769 7.56155 17.8816 7.56155H16.2504V6.34748C16.2504 5.68186 16.2269 5.02561 16.2035 4.88498C16.0863 4.2803 15.6175 3.63342 15.0879 3.35217C14.6894 3.13655 14.3379 3.06155 13.7613 3.06155H13.2597L13.2269 2.84124C13.1566 2.38186 12.8379 1.95061 12.3925 1.71155L12.1488 1.58499L9.2191 1.57561C7.6066 1.57092 6.22848 1.58499 6.14879 1.60374ZM11.7504 3.81155V4.56155H9.12535H6.50035V3.81155V3.06155H9.12535H11.7504V3.81155ZM5.02379 4.78186C5.08942 5.24124 5.41754 5.67249 5.86754 5.91155L6.10192 6.03811H9.10192H12.1019L12.3644 5.91623C12.8191 5.70061 13.1566 5.25061 13.2316 4.75842L13.2644 4.55217L13.7707 4.57092C14.3144 4.58499 14.4222 4.62717 14.6285 4.90842C14.7222 5.0303 14.7269 5.10999 14.741 6.30061L14.755 7.56155H13.1238C11.3519 7.56155 11.1925 7.5803 10.7097 7.82405C10.3957 7.98342 9.92223 8.45686 9.76285 8.77092C9.49098 9.3053 9.50035 9.10842 9.50035 14.5553V19.5615L6.73942 19.5522C4.03004 19.5381 3.97379 19.5381 3.84723 19.4397C3.77692 19.3881 3.67379 19.285 3.62223 19.2147C3.52379 19.0881 3.52379 19.0694 3.50973 12.1881C3.50504 8.39124 3.50973 5.22248 3.52379 5.13811C3.5566 4.95061 3.75348 4.71155 3.94567 4.62717C4.03004 4.58967 4.2691 4.56623 4.53629 4.56155H4.99098L5.02379 4.78186ZM19.6535 9.18342C19.7238 9.23499 19.8269 9.33811 19.8785 9.40842C19.9769 9.53499 19.9769 9.55374 19.9769 15.0615C19.9769 20.5694 19.9769 20.5881 19.8785 20.7147C19.8269 20.785 19.7238 20.8881 19.6535 20.9397C19.5269 21.0381 19.4941 21.0381 15.5004 21.0381C11.5066 21.0381 11.4738 21.0381 11.3472 20.9397C11.2769 20.8881 11.1738 20.785 11.1222 20.7147C11.0238 20.5881 11.0238 20.5553 11.0097 15.1881C11.005 12.2162 11.0097 9.72249 11.0238 9.63811C11.0566 9.45061 11.2535 9.21155 11.4457 9.12717C11.5582 9.07561 12.3269 9.06624 15.5566 9.07561C19.4847 9.08498 19.5269 9.08498 19.6535 9.18342Z" fill="#C2C2C2"/>
<path d="M12.9456 10.6272C12.6316 10.7631 12.4535 11.124 12.5191 11.4756C12.5613 11.6959 12.7956 11.9537 13.0066 12.0147C13.1238 12.0522 13.9863 12.0615 15.6035 12.0522C17.966 12.0381 18.0269 12.0334 18.1535 11.9397C18.4019 11.7568 18.4769 11.6068 18.4769 11.3115C18.4769 11.0162 18.4019 10.8662 18.1535 10.6834C18.0269 10.585 17.966 10.585 15.5566 10.5756C13.5738 10.5662 13.0581 10.5756 12.9456 10.6272Z" fill="#C2C2C2"/>
<path d="M12.9456 12.8772C12.6316 13.0131 12.4535 13.374 12.5191 13.7256C12.5613 13.9459 12.7956 14.2037 13.0066 14.2647C13.1238 14.3022 13.9863 14.3115 15.6035 14.3022C17.966 14.2881 18.0269 14.2834 18.1535 14.1897C18.4019 14.0068 18.4769 13.8568 18.4769 13.5615C18.4769 13.2662 18.4019 13.1162 18.1535 12.9334C18.0269 12.835 17.966 12.835 15.5566 12.8256C13.5738 12.8162 13.0581 12.8256 12.9456 12.8772Z" fill="#C2C2C2"/>
<path d="M12.9456 15.1272C12.6316 15.2631 12.4535 15.624 12.5191 15.9756C12.5613 16.1959 12.7956 16.4537 13.0066 16.5147C13.1238 16.5522 13.9863 16.5615 15.6035 16.5522C17.966 16.5381 18.0269 16.5334 18.1535 16.4397C18.4019 16.2568 18.4769 16.1068 18.4769 15.8115C18.4769 15.5162 18.4019 15.3662 18.1535 15.1834C18.0269 15.085 17.966 15.085 15.5566 15.0756C13.5738 15.0662 13.0581 15.0756 12.9456 15.1272Z" fill="#C2C2C2"/>
<path d="M12.9456 17.3772C12.6316 17.5131 12.4535 17.874 12.5191 18.2256C12.5613 18.4459 12.7956 18.7037 13.0066 18.7647C13.1238 18.8022 13.9863 18.8115 15.6035 18.8022C17.966 18.7881 18.0269 18.7834 18.1535 18.6897C18.4019 18.5068 18.4769 18.3568 18.4769 18.0615C18.4769 17.7662 18.4019 17.6162 18.1535 17.4334C18.0269 17.335 17.966 17.335 15.5566 17.3256C13.5738 17.3162 13.0581 17.3256 12.9456 17.3772Z" fill="#C2C2C2"/>
</svg>
