<svg width="25" height="25" viewBox="0 0 25 25" fill="none" xmlns="http://www.w3.org/2000/svg">
<path d="M6.50037 18.4616V5.66155C6.50037 5.50242 6.56358 5.34981 6.6761 5.23729C6.78862 5.12477 6.94124 5.06155 7.10037 5.06155H9.90037C10.0595 5.06155 10.2121 5.12477 10.3246 5.23729C10.4372 5.34981 10.5004 5.50242 10.5004 5.66155V18.4616C10.5004 18.6207 10.4372 18.7733 10.3246 18.8858C10.2121 18.9983 10.0595 19.0616 9.90037 19.0616H7.10037C6.94124 19.0616 6.78862 18.9983 6.6761 18.8858C6.56358 18.7733 6.50037 18.6207 6.50037 18.4616ZM14.5004 18.4616V5.66155C14.5004 5.50242 14.5636 5.34981 14.6761 5.23729C14.7886 5.12477 14.9412 5.06155 15.1004 5.06155H17.9004C18.0595 5.06155 18.2121 5.12477 18.3246 5.23729C18.4372 5.34981 18.5004 5.50242 18.5004 5.66155V18.4616C18.5004 18.6207 18.4372 18.7733 18.3246 18.8858C18.2121 18.9983 18.0595 19.0616 17.9004 19.0616H15.1004C14.9412 19.0616 14.7886 18.9983 14.6761 18.8858C14.5636 18.7733 14.5004 18.6207 14.5004 18.4616Z" stroke="#C2C2C2" stroke-width="1.5"/>
</svg>
