<svg width="25" height="25" viewBox="0 0 25 25" fill="none" xmlns="http://www.w3.org/2000/svg">
<path d="M7.40637 4.59854C7.31527 4.54453 7.2115 4.5156 7.10561 4.51467C6.99971 4.51375 6.89545 4.54087 6.80343 4.59328C6.7114 4.64569 6.63489 4.72152 6.58166 4.81308C6.52843 4.90463 6.50038 5.00864 6.50037 5.11454V19.0085C6.50038 19.1144 6.52843 19.2185 6.58166 19.31C6.63489 19.4016 6.7114 19.4774 6.80343 19.5298C6.89545 19.5822 6.99971 19.6093 7.10561 19.6084C7.2115 19.6075 7.31527 19.5786 7.40637 19.5245L19.1294 12.5775C19.2189 12.5244 19.2931 12.4489 19.3446 12.3584C19.3961 12.268 19.4232 12.1657 19.4232 12.0615C19.4232 11.9574 19.3961 11.8551 19.3446 11.7646C19.2931 11.6742 19.2189 11.5987 19.1294 11.5455L7.40637 4.59854Z" stroke="#C2C2C2" stroke-width="1.5" stroke-linecap="round" stroke-linejoin="round"/>
</svg>
