<svg width="25" height="25" viewBox="0 0 25 25" fill="none" xmlns="http://www.w3.org/2000/svg">
<path d="M18.0714 18.0615H20.9004C21.0595 18.0615 21.2121 17.9983 21.3246 17.8858C21.4372 17.7733 21.5004 17.6207 21.5004 17.4615V11.0615C21.5004 10.0007 21.0789 8.98324 20.3288 8.2331C19.5786 7.48295 18.5612 7.06152 17.5004 7.06152H7.50037C6.4395 7.06152 5.42208 7.48295 4.67194 8.2331C3.92179 8.98324 3.50037 10.0007 3.50037 11.0615V17.4615C3.50037 17.6207 3.56358 17.7733 3.6761 17.8858C3.78862 17.9983 3.94124 18.0615 4.10037 18.0615H6.92937M8.50037 7.06152V3.66152C8.50037 3.50239 8.56358 3.34978 8.6761 3.23726C8.78862 3.12474 8.94124 3.06152 9.10037 3.06152H15.9004C16.0595 3.06152 16.2121 3.12474 16.3246 3.23726C16.4372 3.34978 16.5004 3.50239 16.5004 3.66152V7.06152" stroke="#C2C2C2" stroke-width="1.5"/>
<path d="M6.59834 20.3765L6.92834 18.0615L7.42634 14.5765C7.44679 14.4336 7.51813 14.3028 7.62724 14.2082C7.73635 14.1136 7.87592 14.0615 8.02034 14.0615H16.9803C17.1247 14.0615 17.2643 14.1136 17.3734 14.2082C17.4825 14.3028 17.5539 14.4336 17.5743 14.5765L18.0703 18.0615L18.4013 20.3765C18.4135 20.4616 18.4073 20.5484 18.383 20.6309C18.3587 20.7133 18.317 20.7896 18.2607 20.8546C18.2044 20.9196 18.1347 20.9717 18.0565 21.0074C17.9783 21.0431 17.8933 21.0615 17.8073 21.0615H7.19234C7.10636 21.0615 7.02138 21.0431 6.94316 21.0074C6.86494 20.9717 6.79531 20.9196 6.73898 20.8546C6.68265 20.7896 6.64094 20.7133 6.61668 20.6309C6.59241 20.5484 6.58616 20.4616 6.59834 20.3765Z" stroke="#C2C2C2" stroke-width="1.5"/>
<path d="M17.5004 10.0715L17.5104 10.0605" stroke="#C2C2C2" stroke-width="1.5" stroke-linecap="round" stroke-linejoin="round"/>
</svg>
