<svg width="24" height="24" viewBox="0 0 24 24" fill="none" xmlns="http://www.w3.org/2000/svg">
<g clip-path="url(#clip0_890_25)">
<path d="M3.25 12.6302C3.26752 7.55545 7.38964 3.4528 12.4643 3.45929C14.9554 3.45341 17.3428 4.45805 19.0801 6.24339V3.03037C19.0818 2.57156 19.4533 2.20008 19.912 2.19885C20.3724 2.19824 20.7465 2.57086 20.7475 3.03127V9.50188H14.2469C13.786 9.50267 13.4117 9.13011 13.4107 8.66946C13.4117 8.2088 13.786 7.83618 14.2469 7.83704H18.2666C16.8322 6.11301 14.7042 5.11832 12.4618 5.12383C8.30915 5.11991 4.93624 8.47671 4.92037 12.6297C4.93593 16.7827 8.30884 20.1399 12.4618 20.1361C14.9659 20.1391 17.3086 18.8998 18.7155 16.8282C18.975 16.4468 19.4938 16.3469 19.8764 16.6045C20.0603 16.7274 20.1873 16.9184 20.2295 17.1357C20.2716 17.3526 20.2254 17.5774 20.1012 17.76C18.3834 20.2917 15.5215 21.8067 12.4618 21.803C7.38747 21.8077 3.26648 17.7042 3.25 12.6302Z" fill="#C2C2C2"/>
</g>
<defs>
<clipPath id="clip0_890_25">
<rect width="17.5" height="20" fill="white" transform="translate(3.25 2)"/>
</clipPath>
</defs>
</svg>
