<svg width="24" height="24" viewBox="0 0 24 24" fill="none" xmlns="http://www.w3.org/2000/svg">
<path d="M20.2287 8.4C19.5278 6.79481 18.3738 5.42896 16.9082 4.4698C15.4426 3.51064 13.7291 2.99985 11.9775 3C7.31102 3 3.47252 6.5523 3.02252 11.1" stroke="#C2C2C2" stroke-width="1.5" stroke-linecap="round" stroke-linejoin="round"/>
<path d="M16.4776 8.40002H20.4376C20.5085 8.40002 20.5787 8.38606 20.6443 8.35892C20.7098 8.33178 20.7693 8.29201 20.8194 8.24186C20.8696 8.19172 20.9094 8.13219 20.9365 8.06667C20.9636 8.00116 20.9776 7.93094 20.9776 7.86002V3.90002M3.77051 15.6C5.16011 18.7788 8.33171 21 12.0217 21C16.6891 21 20.5267 17.4477 20.9776 12.9" stroke="#C2C2C2" stroke-width="1.5" stroke-linecap="round" stroke-linejoin="round"/>
<path d="M7.52252 14.4778H3.56252C3.41931 14.4778 3.28195 14.5347 3.18068 14.636C3.07941 14.7373 3.02252 14.8746 3.02252 15.0178V18.9778" stroke="#C2C2C2" stroke-width="1.5" stroke-linecap="round" stroke-linejoin="round"/>
</svg>
