<svg width="25" height="25" viewBox="0 0 25 25" fill="none" xmlns="http://www.w3.org/2000/svg">
<path d="M3.50037 19.0616V5.06155C3.50037 4.53112 3.71108 4.02241 4.08615 3.64734C4.46123 3.27227 4.96993 3.06155 5.50037 3.06155H16.6724C17.2028 3.06167 17.7114 3.27246 18.0864 3.64755L20.9144 6.47555C21.2895 6.85054 21.5003 7.35916 21.5004 7.88955V19.0616C21.5004 19.592 21.2897 20.1007 20.9146 20.4758C20.5395 20.8508 20.0308 21.0616 19.5004 21.0616H5.50037C4.96993 21.0616 4.46123 20.8508 4.08615 20.4758C3.71108 20.1007 3.50037 19.592 3.50037 19.0616Z" stroke="#C2C2C2" stroke-width="1.5"/>
<path d="M9.10037 9.06155H15.9004C16.0595 9.06155 16.2121 8.99834 16.3246 8.88582C16.4372 8.7733 16.5004 8.62068 16.5004 8.46155V3.66155C16.5004 3.50242 16.4372 3.34981 16.3246 3.23729C16.2121 3.12477 16.0595 3.06155 15.9004 3.06155H9.10037C8.94124 3.06155 8.78862 3.12477 8.6761 3.23729C8.56358 3.34981 8.50037 3.50242 8.50037 3.66155V8.46155C8.50037 8.62068 8.56358 8.7733 8.6761 8.88582C8.78862 8.99834 8.94124 9.06155 9.10037 9.06155ZM6.50037 13.6616V21.0616H18.5004V13.6616C18.5004 13.5024 18.4372 13.3498 18.3246 13.2373C18.2121 13.1248 18.0595 13.0616 17.9004 13.0616H7.10037C6.94124 13.0616 6.78862 13.1248 6.6761 13.2373C6.56358 13.3498 6.50037 13.5024 6.50037 13.6616Z" stroke="#C2C2C2" stroke-width="1.5"/>
</svg>
