<svg width="25" height="25" viewBox="0 0 25 25" fill="none" xmlns="http://www.w3.org/2000/svg">
<path d="M12.5004 14.0616C13.0308 14.0616 13.5395 13.8508 13.9146 13.4758C14.2897 13.1007 14.5004 12.592 14.5004 12.0616C14.5004 11.5311 14.2897 11.0224 13.9146 10.6473C13.5395 10.2723 13.0308 10.0616 12.5004 10.0616C11.9699 10.0616 11.4612 10.2723 11.0862 10.6473C10.7111 11.0224 10.5004 11.5311 10.5004 12.0616C10.5004 12.592 10.7111 13.1007 11.0862 13.4758C11.4612 13.8508 11.9699 14.0616 12.5004 14.0616Z" stroke="#C2C2C2" stroke-width="1.5" stroke-linecap="round" stroke-linejoin="round"/>
<path d="M21.5004 12.0616C19.6114 15.0526 16.2184 18.0616 12.5004 18.0616C8.78237 18.0616 5.38937 15.0526 3.50037 12.0616C5.79937 9.21955 8.49237 6.06155 12.5004 6.06155C16.5084 6.06155 19.2014 9.21955 21.5004 12.0616Z" stroke="#C2C2C2" stroke-width="1.5" stroke-linecap="round" stroke-linejoin="round"/>
</svg>
