<svg width="25" height="25" viewBox="0 0 25 25" fill="none" xmlns="http://www.w3.org/2000/svg">
<path d="M20.5004 9.06155L18.5054 20.4076C18.424 20.8709 18.1818 21.2908 17.8215 21.5933C17.4612 21.8958 17.0058 22.0616 16.5354 22.0616H8.46537C7.99491 22.0616 7.53949 21.8958 7.17919 21.5933C6.81889 21.2908 6.57676 20.8709 6.49537 20.4076L4.50037 9.06155M21.5004 6.06155H15.8754M15.8754 6.06155V4.06155C15.8754 3.53112 15.6647 3.02241 15.2896 2.64734C14.9145 2.27227 14.4058 2.06155 13.8754 2.06155H11.1254C10.5949 2.06155 10.0862 2.27227 9.71115 2.64734C9.33608 3.02241 9.12537 3.53112 9.12537 4.06155V6.06155M15.8754 6.06155H9.12537M3.50037 6.06155H9.12537" stroke="#C2C2C2" stroke-width="1.5" stroke-linecap="round" stroke-linejoin="round"/>
</svg>
