<svg width="25" height="25" viewBox="0 0 25 25" fill="none" xmlns="http://www.w3.org/2000/svg">
<path d="M22.5004 12.0616C22.5004 6.53855 18.0234 2.06155 12.5004 2.06155C6.97737 2.06155 2.50037 6.53855 2.50037 12.0616C2.50037 17.5846 6.97737 22.0616 12.5004 22.0616M13.5004 2.11155C13.5004 2.11155 16.5004 6.06155 16.5004 12.0616" stroke="#C2C2C2" stroke-width="1.5" stroke-linecap="round" stroke-linejoin="round"/>
<path d="M11.5004 22.0115C11.5004 22.0115 8.50037 18.0615 8.50037 12.0615C8.50037 6.06154 11.5004 2.11154 11.5004 2.11154M3.13037 15.5615H12.5004M3.13037 8.56154H21.8704" stroke="#C2C2C2" stroke-width="1.5" stroke-linecap="round" stroke-linejoin="round"/>
<path d="M22.3794 17.9785C22.8734 18.2825 22.8424 19.0215 22.3344 19.0795L19.7674 19.3705L18.6164 21.6825C18.3884 22.1415 17.6834 21.9165 17.5664 21.3485L16.3114 15.2325C16.2124 14.7525 16.6444 14.4505 17.0614 14.7075L22.3794 17.9785Z" stroke="#C2C2C2" stroke-width="1.5"/>
</svg>
