<svg width="25" height="25" viewBox="0 0 25 25" fill="none" xmlns="http://www.w3.org/2000/svg">
<path d="M7.27099 17.3446L5.84199 7.34455C5.80144 7.06087 5.82233 6.77178 5.90324 6.49687C5.98415 6.22197 6.12319 5.96765 6.31095 5.75116C6.49871 5.53467 6.7308 5.36106 6.9915 5.24208C7.2522 5.1231 7.53542 5.06154 7.82199 5.06155H11.21C11.4966 5.06154 11.7798 5.1231 12.0405 5.24208C12.3012 5.36106 12.5333 5.53467 12.721 5.75116C12.9088 5.96765 13.0478 6.22197 13.1287 6.49687C13.2097 6.77178 13.2305 7.06087 13.19 7.34455L11.761 17.3446C11.6929 17.8211 11.4551 18.2571 11.0914 18.5726C10.7277 18.888 10.2624 19.0616 9.78099 19.0616H9.25099C8.76957 19.0616 8.30429 18.888 7.94057 18.5726C7.57686 18.2571 7.33911 17.8211 7.27099 17.3446Z" stroke="#505050" stroke-width="1.5"/>
<path d="M2.51599 12.0616H6.51599M22.516 12.0616H12.516" stroke="#505050" stroke-width="1.5" stroke-linecap="round" stroke-linejoin="round"/>
</svg>
