<svg width="25" height="25" viewBox="0 0 25 25" fill="none" xmlns="http://www.w3.org/2000/svg">
<path d="M19.2485 16.6833C19.3184 16.7717 19.3619 16.8781 19.3742 16.9902C19.3864 17.1022 19.3668 17.2155 19.3177 17.3169C19.2685 17.4184 19.1918 17.5039 19.0962 17.5638C19.0007 17.6236 18.8902 17.6553 18.7775 17.6553L6.25348 17.6553C6.14083 17.6551 6.03049 17.6233 5.9351 17.5634C5.83971 17.5035 5.76311 17.4179 5.71407 17.3165C5.66503 17.2151 5.64554 17.1019 5.65781 16.9899C5.67008 16.8779 5.71363 16.7717 5.78348 16.6833L12.0445 8.75229C12.1006 8.68113 12.1722 8.62361 12.2538 8.58407C12.3353 8.54453 12.4248 8.52399 12.5155 8.52399C12.6061 8.52399 12.6956 8.54453 12.7772 8.58407C12.8588 8.62361 12.9303 8.68113 12.9865 8.75229L19.2485 16.6833Z" fill="#505050"/>
<path d="M7.45346 6.46777H17.5785" stroke="#505050" stroke-width="1.5" stroke-linecap="round"/>
</svg>
