<svg width="25" height="25" viewBox="0 0 25 25" fill="none" xmlns="http://www.w3.org/2000/svg">
<path d="M12.516 22.0616C10.5382 22.0616 8.60478 21.4751 6.96029 20.3762C5.3158 19.2774 4.03408 17.7156 3.2772 15.8884C2.52032 14.0611 2.32229 12.0505 2.70814 10.1107C3.094 8.17084 4.0464 6.38901 5.44493 4.99049C6.84345 3.59196 8.62528 2.63956 10.5651 2.2537C12.5049 1.86785 14.5156 2.06588 16.3428 2.82276C18.1701 3.57964 19.7319 4.86136 20.8307 6.50585C21.9295 8.15035 22.516 10.0837 22.516 12.0616C22.516 14.7137 21.4624 17.2573 19.5871 19.1326C17.7117 21.008 15.1682 22.0616 12.516 22.0616ZM14.6022 8.16281C14.7755 7.98835 14.8728 7.75244 14.8728 7.50656C14.8728 7.26067 14.7755 7.02476 14.6022 6.85031C14.5165 6.76437 14.4146 6.69631 14.3024 6.65007C14.1902 6.60382 14.0699 6.58033 13.9485 6.58093C13.7013 6.58126 13.4644 6.67973 13.2897 6.85468L8.77037 11.3884C8.60996 11.5645 8.52347 11.7955 8.52882 12.0336C8.53418 12.2716 8.63097 12.4985 8.79912 12.6672L13.386 17.2684C13.5606 17.4396 13.7958 17.5349 14.0403 17.5337C14.2848 17.5324 14.519 17.4347 14.6919 17.2618C14.8648 17.0889 14.9625 16.8548 14.9637 16.6102C14.965 16.3657 14.8696 16.1306 14.6985 15.9559L10.761 12.0616L14.6022 8.16281Z" fill="#505050"/>
</svg>
