<svg width="25" height="25" viewBox="0 0 25 25" fill="none" xmlns="http://www.w3.org/2000/svg">
<path d="M5.78351 7.43976C5.71361 7.35131 5.67005 7.24495 5.65781 7.13288C5.64558 7.02082 5.66516 6.90757 5.71432 6.80612C5.76348 6.70466 5.84023 6.61911 5.93577 6.55927C6.0313 6.49943 6.14177 6.46771 6.25451 6.46776L18.7785 6.46776C18.8912 6.4679 19.0015 6.49975 19.0969 6.55967C19.1923 6.61959 19.2689 6.70515 19.3179 6.80657C19.3669 6.90798 19.3864 7.02115 19.3742 7.13313C19.3619 7.24511 19.3183 7.35137 19.2485 7.43976L12.9875 15.3708C12.9313 15.4419 12.8598 15.4994 12.7782 15.539C12.6966 15.5785 12.6072 15.5991 12.5165 15.5991C12.4259 15.5991 12.3364 15.5785 12.2548 15.539C12.1732 15.4994 12.1017 15.4419 12.0455 15.3708L5.78351 7.43976Z" fill="#505050"/>
<path d="M17.5785 17.6553L7.45352 17.6553" stroke="#505050" stroke-width="1.5" stroke-linecap="round"/>
</svg>
