<svg width="25" height="25" viewBox="0 0 25 25" fill="none" xmlns="http://www.w3.org/2000/svg">
<path d="M12.516 7.41103L16.2364 11.1314M12.516 7.41103L8.79557 11.2868M12.516 7.41103V15.782M12.1216 2.22476C12.2263 2.12025 12.3681 2.06155 12.516 2.06155C12.6639 2.06155 12.8057 2.12025 12.9104 2.22476L22.3528 11.6672C22.4573 11.7718 22.516 11.9137 22.516 12.0616C22.516 12.2094 22.4573 12.3513 22.3528 12.4559L12.9104 21.8983C12.8057 22.0029 12.6639 22.0616 12.516 22.0616C12.3681 22.0616 12.2263 22.0029 12.1216 21.8983L2.6792 12.4559C2.57469 12.3513 2.51599 12.2094 2.51599 12.0616C2.51599 11.9137 2.57469 11.7718 2.6792 11.6672L12.1216 2.22476Z" stroke="#505050" stroke-width="1.2" stroke-linecap="round" stroke-linejoin="round"/>
</svg>
