<svg width="25" height="25" viewBox="0 0 25 25" fill="none" xmlns="http://www.w3.org/2000/svg">
<path d="M2.51599 19.0616V5.06155C2.51599 4.53112 2.7267 4.02241 3.10178 3.64734C3.47685 3.27227 3.98556 3.06155 4.51599 3.06155H20.516C21.0464 3.06155 21.5551 3.27227 21.9302 3.64734C22.3053 4.02241 22.516 4.53112 22.516 5.06155V19.0616C22.516 19.592 22.3053 20.1007 21.9302 20.4758C21.5551 20.8508 21.0464 21.0616 20.516 21.0616H4.51599C3.98556 21.0616 3.47685 20.8508 3.10178 20.4758C2.7267 20.1007 2.51599 19.592 2.51599 19.0616Z" stroke="#505050" stroke-width="1.5"/>
<path d="M2.51599 7.06155H22.516" stroke="#505050" stroke-width="1.5" stroke-linecap="round" stroke-linejoin="round"/>
<path d="M10.516 16.3036L12.637 14.1826M12.637 14.1826L14.758 12.0616M12.637 14.1826L10.516 12.0616M12.637 14.1826L14.758 16.3036" stroke="#505050" stroke-width="1.5" stroke-linecap="round" stroke-linejoin="round"/>
</svg>
