<svg width="25" height="25" viewBox="0 0 25 25" fill="none" xmlns="http://www.w3.org/2000/svg">
<g clip-path="url(#clip0_394_497)">
<path d="M9.37995 20.0606C9.10386 20.0606 8.87998 19.8367 8.87998 19.5606V19.106C8.87998 18.8298 9.10386 18.6061 9.37995 18.6061H20.0153C20.2914 18.6061 20.5152 18.8298 20.5152 19.106V19.5606C20.5152 19.8367 20.2914 20.0606 20.0153 20.0606H9.37995ZM4.51624 12.7876L8.87949 15.6963L4.51624 18.6056V12.7876ZM9.37995 12.7876C9.10386 12.7876 8.87998 12.5638 8.87998 12.2876V8.92429C8.87998 8.6483 9.10386 8.42432 9.37995 8.42432H20.0153C20.2914 8.42432 20.5152 8.6483 20.5152 8.92429V12.2876C20.5152 12.5638 20.2914 12.7876 20.0153 12.7876H9.37995ZM9.37995 5.51508C9.10386 5.51508 8.87998 5.29134 8.87998 5.01511V4.56006C8.87998 4.28408 9.10386 4.06009 9.37995 4.06009H20.0153C20.2914 4.06009 20.5152 4.28408 20.5152 4.56006V5.01511C20.5152 5.29134 20.2914 5.51508 20.0153 5.51508H9.37995Z" fill="#505050"/>
</g>
<defs>
<clipPath id="clip0_394_497">
<rect width="16" height="16" fill="white" transform="translate(4.51599 4.06155)"/>
</clipPath>
</defs>
</svg>
