<svg width="25" height="25" viewBox="0 0 25 25" fill="none" xmlns="http://www.w3.org/2000/svg">
<g clip-path="url(#clip0_103_22)">
<path d="M9.00037 4.06155H6.50037C5.96993 4.06155 5.46123 4.27227 5.08615 4.64734C4.71108 5.02241 4.50037 5.53112 4.50037 6.06155V20.0616C4.50037 20.592 4.71108 21.1007 5.08615 21.4758C5.46123 21.8508 5.96993 22.0616 6.50037 22.0616H18.5004C19.0308 22.0616 19.5395 21.8508 19.9146 21.4758C20.2897 21.1007 20.5004 20.592 20.5004 20.0616V6.06155C20.5004 5.53112 20.2897 5.02241 19.9146 4.64734C19.5395 4.27227 19.0308 4.06155 18.5004 4.06155H16.0004" stroke="#C2C2C2" stroke-width="1.5" stroke-linecap="round"/>
<path d="M8.50037 6.46155V4.56155C8.50037 4.42895 8.55304 4.30177 8.64681 4.208C8.74058 4.11423 8.86776 4.06155 9.00037 4.06155C9.27637 4.06155 9.50437 3.83755 9.55237 3.56555C9.70037 2.71355 10.2744 1.06155 12.5004 1.06155C14.7264 1.06155 15.3004 2.71355 15.4484 3.56555C15.4964 3.83755 15.7244 4.06155 16.0004 4.06155C16.133 4.06155 16.2602 4.11423 16.3539 4.208C16.4477 4.30177 16.5004 4.42895 16.5004 4.56155V6.46155C16.5004 6.62068 16.4372 6.7733 16.3246 6.88582C16.2121 6.99834 16.0595 7.06155 15.9004 7.06155H9.10037C8.94124 7.06155 8.78862 6.99834 8.6761 6.88582C8.56358 6.7733 8.50037 6.62068 8.50037 6.46155Z" stroke="#C2C2C2" stroke-width="1.5" stroke-linecap="round"/>
</g>
<defs>
<clipPath id="clip0_103_22">
<rect width="24" height="24" fill="white" transform="translate(0.500366 0.061554)"/>
</clipPath>
</defs>
</svg>
