<svg width="25" height="25" viewBox="0 0 25 25" fill="none" xmlns="http://www.w3.org/2000/svg">
<path d="M9.16706 4.91864H6.78611C6.28094 4.91864 5.79645 5.11932 5.43924 5.47653C5.08203 5.83374 4.88135 6.31823 4.88135 6.8234V20.1567C4.88135 20.6619 5.08203 21.1464 5.43924 21.5036C5.79645 21.8608 6.28094 22.0615 6.78611 22.0615H18.2147C18.7199 22.0615 19.2043 21.8608 19.5616 21.5036C19.9188 21.1464 20.1194 20.6619 20.1194 20.1567V6.8234C20.1194 6.31823 19.9188 5.83374 19.5616 5.47653C19.2043 5.11932 18.7199 4.91864 18.2147 4.91864H15.8337" stroke="#C2C2C2" stroke-width="1.5" stroke-linecap="round"/>
<path d="M8.69086 7.20438V5.39486C8.69086 5.26856 8.74103 5.14744 8.83033 5.05814C8.91963 4.96884 9.04075 4.91867 9.16705 4.91867C9.4299 4.91867 9.64705 4.70533 9.69276 4.44629C9.83371 3.63486 10.3804 2.06152 12.5004 2.06152C14.6204 2.06152 15.167 3.63486 15.308 4.44629C15.3537 4.70533 15.5709 4.91867 15.8337 4.91867C15.96 4.91867 16.0811 4.96884 16.1704 5.05814C16.2597 5.14744 16.3099 5.26856 16.3099 5.39486V7.20438C16.3099 7.35593 16.2497 7.50128 16.1425 7.60844C16.0354 7.71561 15.89 7.77581 15.7385 7.77581H9.26229C9.11073 7.77581 8.96539 7.71561 8.85822 7.60844C8.75106 7.50128 8.69086 7.35593 8.69086 7.20438Z" stroke="#C2C2C2" stroke-width="1.5" stroke-linecap="round"/>
</svg>
