<svg width="25" height="25" viewBox="0 0 25 25" fill="none" xmlns="http://www.w3.org/2000/svg">
<path d="M16.0004 16.5615L12.5004 13.0615L9.00037 16.5615M16.0004 10.5615L12.5004 7.06152L9.00037 10.5615" stroke="#C2C2C2" stroke-width="1.5" stroke-linecap="round" stroke-linejoin="round"/>
<path d="M3.50037 20.4615V3.66152C3.50037 3.50239 3.56358 3.34978 3.6761 3.23726C3.78862 3.12474 3.94124 3.06152 4.10037 3.06152H20.9004C21.0595 3.06152 21.2121 3.12474 21.3246 3.23726C21.4372 3.34978 21.5004 3.50239 21.5004 3.66152V20.4615C21.5004 20.6207 21.4372 20.7733 21.3246 20.8858C21.2121 20.9983 21.0595 21.0615 20.9004 21.0615H4.10037C3.94124 21.0615 3.78862 20.9983 3.6761 20.8858C3.56358 20.7733 3.50037 20.6207 3.50037 20.4615Z" stroke="#C2C2C2" stroke-width="1.5"/>
</svg>
