<svg width="24" height="24" viewBox="0 0 24 24" fill="none" xmlns="http://www.w3.org/2000/svg">
<path d="M1.09262 12C1.09262 12.1053 1.12034 12.2088 1.173 12.3H1.174L6.327 21.226C6.37969 21.3173 6.4555 21.393 6.54678 21.4457C6.63807 21.4984 6.74161 21.5261 6.847 21.526H17.153C17.2584 21.5261 17.3619 21.4984 17.4532 21.4457C17.5445 21.393 17.6203 21.3173 17.673 21.226L22.827 12.3C22.8797 12.2088 22.9074 12.1053 22.9074 12C22.9074 11.8947 22.8797 11.7912 22.827 11.7L17.674 2.774C17.6213 2.68273 17.5455 2.60695 17.4542 2.55429C17.3629 2.50162 17.2594 2.47393 17.154 2.474H6.847C6.74161 2.47393 6.63807 2.50162 6.54678 2.55429C6.4555 2.60695 6.37969 2.68273 6.327 2.774L1.173 11.7C1.12034 11.7912 1.09262 11.8947 1.09262 12Z" stroke="#FF9900" stroke-width="1.5" stroke-linecap="round" stroke-linejoin="round"/>
<path d="M11.99 7.995V11.995M11.99 16.005L12 15.994" stroke="#FF9900" stroke-width="1.5625" stroke-linecap="round" stroke-linejoin="round"/>
</svg>
