<svg width="24" height="24" viewBox="0 0 24 24" fill="none" xmlns="http://www.w3.org/2000/svg">
<path d="M1.09265 12C1.09265 12.1053 1.12038 12.2088 1.17304 12.3H1.17404L6.32704 21.226C6.37973 21.3173 6.45553 21.393 6.54682 21.4457C6.6381 21.4984 6.74165 21.5261 6.84704 21.526H17.153C17.2584 21.5261 17.362 21.4984 17.4533 21.4457C17.5445 21.393 17.6203 21.3173 17.673 21.226L22.827 12.3C22.8797 12.2088 22.9074 12.1053 22.9074 12C22.9074 11.8947 22.8797 11.7912 22.827 11.7L17.674 2.774C17.6213 2.68273 17.5455 2.60695 17.4543 2.55429C17.363 2.50162 17.2594 2.47393 17.154 2.474H6.84704C6.74165 2.47393 6.6381 2.50162 6.54682 2.55429C6.45553 2.60695 6.37973 2.68273 6.32704 2.774L1.17304 11.7C1.12038 11.7912 1.09265 11.8947 1.09265 12Z" fill="#FF9900" stroke="#C2C2C2" stroke-width="1.5" stroke-linecap="round" stroke-linejoin="round"/>
<path d="M11.99 7.995V11.995M11.99 16.005L12 15.994" stroke="#505050" stroke-width="1.5625" stroke-linecap="round" stroke-linejoin="round"/>
</svg>
