<svg width="24" height="25" viewBox="0 0 24 25" fill="none" xmlns="http://www.w3.org/2000/svg">
<path d="M1.09265 12.392C1.09265 12.4973 1.12038 12.6008 1.17304 12.692H1.17404L6.32704 21.618C6.37973 21.7093 6.45553 21.785 6.54682 21.8377C6.6381 21.8904 6.74165 21.9181 6.84704 21.918H17.153C17.2584 21.9181 17.362 21.8904 17.4533 21.8377C17.5445 21.785 17.6203 21.7093 17.673 21.618L22.827 12.692C22.8797 12.6008 22.9074 12.4973 22.9074 12.392C22.9074 12.2867 22.8797 12.1832 22.827 12.092L17.674 3.166C17.6213 3.07473 17.5455 2.99895 17.4543 2.94629C17.363 2.89362 17.2594 2.86593 17.154 2.866H6.84704C6.74165 2.86593 6.6381 2.89362 6.54682 2.94629C6.45553 2.99895 6.37973 3.07473 6.32704 3.166L1.17304 12.092C1.12038 12.1832 1.09265 12.2867 1.09265 12.392Z" stroke="#C2C2C2" stroke-width="1.5" stroke-linecap="round" stroke-linejoin="round"/>
<path d="M11.99 8.38699V12.387M11.99 16.397L12 16.386" stroke="#C2C2C2" stroke-width="1.5625" stroke-linecap="round" stroke-linejoin="round"/>
</svg>
