<svg width="24" height="25" viewBox="0 0 24 25" fill="none" xmlns="http://www.w3.org/2000/svg">
<path d="M12 22.1959C17.523 22.1959 22 17.7189 22 12.1959C22 6.67286 17.523 2.19586 12 2.19586C6.477 2.19586 2 6.67286 2 12.1959C2 17.7189 6.477 22.1959 12 22.1959Z" fill="#0099FF" stroke="#C2C2C2" stroke-width="1.5" stroke-linecap="round" stroke-linejoin="round"/>
<path d="M9.41553 9.663C9.41553 6.37348 14.5845 6.37348 14.5845 9.663C14.5845 12.0125 12.235 11.5424 12.235 14.3619M12.2412 17.1959L12.2481 17.1883Z" fill="#0099FF"/>
<path d="M9.41553 9.663C9.41553 6.37348 14.5845 6.37348 14.5845 9.663C14.5845 12.0125 12.235 11.5424 12.235 14.3619M12.2412 17.1959L12.2481 17.1883" stroke="#505050" stroke-width="1.2" stroke-linecap="round" stroke-linejoin="round"/>
</svg>
