<svg width="25" height="25" viewBox="0 0 25 25" fill="none" xmlns="http://www.w3.org/2000/svg">
<g clip-path="url(#clip0_12_16)">
<path d="M6.50037 11.0616H9.50037M9.50037 11.0616H12.5004M9.50037 11.0616V8.06155M9.50037 11.0616V14.0616M15.5004 17.0616L19.5004 21.0616M1.50037 11.0616C1.50037 13.1833 2.34322 15.2181 3.84351 16.7184C5.3438 18.2187 7.37863 19.0616 9.50037 19.0616C11.6221 19.0616 13.6569 18.2187 15.1572 16.7184C16.6575 15.2181 17.5004 13.1833 17.5004 11.0616C17.5004 8.93982 16.6575 6.90499 15.1572 5.4047C13.6569 3.90441 11.6221 3.06155 9.50037 3.06155C7.37863 3.06155 5.3438 3.90441 3.84351 5.4047C2.34322 6.90499 1.50037 8.93982 1.50037 11.0616Z" stroke="#C2C2C2" stroke-width="1.5" stroke-linecap="round" stroke-linejoin="round"/>
</g>
<defs>
<clipPath id="clip0_12_16">
<rect width="24" height="24" fill="white" transform="translate(0.500366 0.061554)"/>
</clipPath>
</defs>
</svg>
