<svg width="24" height="25" viewBox="0 0 24 25" fill="none" xmlns="http://www.w3.org/2000/svg">
<path d="M1.09262 12.938C1.09262 13.0433 1.12034 13.1468 1.173 13.238H1.174L6.327 22.164C6.37969 22.2553 6.4555 22.331 6.54678 22.3837C6.63807 22.4364 6.74161 22.4641 6.847 22.464H17.153C17.2584 22.4641 17.3619 22.4364 17.4532 22.3837C17.5445 22.331 17.6203 22.2553 17.673 22.164L22.827 13.238C22.8797 13.1468 22.9074 13.0433 22.9074 12.938C22.9074 12.8327 22.8797 12.7292 22.827 12.638L17.674 3.71199C17.6213 3.62072 17.5455 3.54494 17.4542 3.49228C17.3629 3.43961 17.2594 3.41192 17.154 3.41199H6.847C6.74161 3.41192 6.63807 3.43961 6.54678 3.49228C6.4555 3.54494 6.37969 3.62072 6.327 3.71199L1.173 12.638C1.12034 12.7292 1.09262 12.8327 1.09262 12.938Z" fill="#FF9900" stroke="#505050" stroke-width="1.5" stroke-linecap="round" stroke-linejoin="round"/>
<path d="M11.99 8.93298V12.933M11.99 16.943L12 16.932" stroke="#505050" stroke-width="1.5625" stroke-linecap="round" stroke-linejoin="round"/>
</svg>
