<svg width="24" height="25" viewBox="0 0 24 25" fill="none" xmlns="http://www.w3.org/2000/svg">
<path d="M12 12.2731V17.2731ZM12 8.28313L12.01 8.27213ZM12 22.7731C17.523 22.7731 22 18.2961 22 12.7731C22 7.25013 17.523 2.77313 12 2.77313C6.477 2.77313 2 7.25013 2 12.7731C2 18.2961 6.477 22.7731 12 22.7731Z" fill="#00CC99"/>
<path d="M12 12.2731V17.2731M12 8.28313L12.01 8.27213M12 22.7731C17.523 22.7731 22 18.2961 22 12.7731C22 7.25013 17.523 2.77313 12 2.77313C6.477 2.77313 2 7.25013 2 12.7731C2 18.2961 6.477 22.7731 12 22.7731Z" stroke="#505050" stroke-width="1.5" stroke-linecap="round" stroke-linejoin="round"/>
</svg>
