<svg width="24" height="25" viewBox="0 0 24 25" fill="none" xmlns="http://www.w3.org/2000/svg">
<path d="M12 22.7731C17.523 22.7731 22 18.2961 22 12.7731C22 7.25013 17.523 2.77313 12 2.77313C6.477 2.77313 2 7.25013 2 12.7731C2 18.2961 6.477 22.7731 12 22.7731Z" fill="#0099FF" stroke="#505050" stroke-width="1.5" stroke-linecap="round" stroke-linejoin="round"/>
<path d="M9.41553 10.2403C9.41553 6.95075 14.5845 6.95075 14.5845 10.2403C14.5845 12.5897 12.235 12.1197 12.235 14.9392M12.2412 17.7731L12.2481 17.7656L12.2412 17.7731Z" fill="#0099FF"/>
<path d="M9.41553 10.2403C9.41553 6.95075 14.5845 6.95075 14.5845 10.2403C14.5845 12.5897 12.235 12.1197 12.235 14.9392M12.2412 17.7731L12.2481 17.7656" stroke="white" stroke-width="1.2" stroke-linecap="round" stroke-linejoin="round"/>
</svg>
