<svg width="25" height="25" viewBox="0 0 25 25" fill="none" xmlns="http://www.w3.org/2000/svg">
<g clip-path="url(#clip0_394_127)">
<path d="M6.51599 11.0616H9.51599M9.51599 11.0616H12.516M9.51599 11.0616V8.06155M9.51599 11.0616V14.0616M15.516 17.0616L19.516 21.0616M1.51599 11.0616C1.51599 13.1833 2.35885 15.2181 3.85914 16.7184C5.35943 18.2187 7.39426 19.0616 9.51599 19.0616C11.6377 19.0616 13.6726 18.2187 15.1728 16.7184C16.6731 15.2181 17.516 13.1833 17.516 11.0616C17.516 8.93982 16.6731 6.90499 15.1728 5.4047C13.6726 3.90441 11.6377 3.06155 9.51599 3.06155C7.39426 3.06155 5.35943 3.90441 3.85914 5.4047C2.35885 6.90499 1.51599 8.93982 1.51599 11.0616Z" stroke="#505050" stroke-width="1.5" stroke-linecap="round" stroke-linejoin="round"/>
</g>
<defs>
<clipPath id="clip0_394_127">
<rect width="24" height="24" fill="white" transform="translate(0.515991 0.061554)"/>
</clipPath>
</defs>
</svg>
