<svg width="25" height="25" viewBox="0 0 25 25" fill="none" xmlns="http://www.w3.org/2000/svg">
<path d="M21.5004 20.4615V3.66152C21.5004 3.50239 21.4372 3.34978 21.3246 3.23726C21.2121 3.12474 21.0595 3.06152 20.9004 3.06152H4.10037C3.94124 3.06152 3.78862 3.12474 3.6761 3.23726C3.56358 3.34978 3.50037 3.50239 3.50037 3.66152V20.4615C3.50037 20.6207 3.56358 20.7733 3.6761 20.8858C3.78862 20.9983 3.94124 21.0615 4.10037 21.0615H20.9004C21.0595 21.0615 21.2121 20.9983 21.3246 20.8858C21.4372 20.7733 21.5004 20.6207 21.5004 20.4615Z" stroke="#C2C2C2" stroke-width="1.5" stroke-linecap="round" stroke-linejoin="round"/>
<path d="M8.41705 12.6448L10.7504 14.9782L16.5837 9.14484" stroke="#C2C2C2" stroke-width="1.2" stroke-linecap="round" stroke-linejoin="round"/>
</svg>
