<svg width="25" height="25" viewBox="0 0 25 25" fill="none" xmlns="http://www.w3.org/2000/svg">
<path d="M7.25534 17.3446L5.82634 7.34455C5.78579 7.06087 5.80667 6.77178 5.88758 6.49687C5.96849 6.22197 6.10754 5.96765 6.29529 5.75116C6.48305 5.53467 6.71514 5.36106 6.97584 5.24208C7.23654 5.1231 7.51977 5.06154 7.80634 5.06155H11.1943C11.4809 5.06154 11.7641 5.1231 12.0248 5.24208C12.2855 5.36106 12.5176 5.53467 12.7054 5.75116C12.8931 5.96765 13.0322 6.22197 13.1131 6.49687C13.194 6.77178 13.2149 7.06087 13.1743 7.34455L11.7453 17.3446C11.6772 17.8211 11.4395 18.2571 11.0758 18.5726C10.712 18.888 10.2468 19.0616 9.76534 19.0616H9.23534C8.75391 19.0616 8.28863 18.888 7.92492 18.5726C7.5612 18.2571 7.32346 17.8211 7.25534 17.3446Z" stroke="#C2C2C2" stroke-width="1.5"/>
<path d="M2.50037 12.0616H6.50037M22.5004 12.0616H12.5004" stroke="#C2C2C2" stroke-width="1.5" stroke-linecap="round" stroke-linejoin="round"/>
</svg>
