<svg width="25" height="25" viewBox="0 0 25 25" fill="none" xmlns="http://www.w3.org/2000/svg">
<g clip-path="url(#clip0_254_22)">
<path d="M16.0004 14.0616C16.8288 14.0616 17.5004 13.39 17.5004 12.5616C17.5004 11.7331 16.8288 11.0616 16.0004 11.0616C15.1719 11.0616 14.5004 11.7331 14.5004 12.5616C14.5004 13.39 15.1719 14.0616 16.0004 14.0616Z" fill="#C2C2C2"/>
<path d="M12.0004 14.0616C12.8288 14.0616 13.5004 13.39 13.5004 12.5616C13.5004 11.7331 12.8288 11.0616 12.0004 11.0616C11.1719 11.0616 10.5004 11.7331 10.5004 12.5616C10.5004 13.39 11.1719 14.0616 12.0004 14.0616Z" fill="#C2C2C2"/>
<path d="M8.00037 14.0616C8.82879 14.0616 9.50037 13.39 9.50037 12.5616C9.50037 11.7331 8.82879 11.0616 8.00037 11.0616C7.17194 11.0616 6.50037 11.7331 6.50037 12.5616C6.50037 13.39 7.17194 14.0616 8.00037 14.0616Z" fill="#C2C2C2"/>
</g>
<defs>
<clipPath id="clip0_254_22">
<rect width="11" height="3" fill="white" transform="translate(6.50037 11.0616)"/>
</clipPath>
</defs>
</svg>
