<svg width="25" height="25" viewBox="0 0 25 25" fill="none" xmlns="http://www.w3.org/2000/svg">
<g clip-path="url(#clip0_394_471)">
<path d="M16.016 14.0616C16.8444 14.0616 17.516 13.39 17.516 12.5616C17.516 11.7331 16.8444 11.0616 16.016 11.0616C15.1876 11.0616 14.516 11.7331 14.516 12.5616C14.516 13.39 15.1876 14.0616 16.016 14.0616Z" fill="#505050"/>
<path d="M12.016 14.0616C12.8444 14.0616 13.516 13.39 13.516 12.5616C13.516 11.7331 12.8444 11.0616 12.016 11.0616C11.1876 11.0616 10.516 11.7331 10.516 12.5616C10.516 13.39 11.1876 14.0616 12.016 14.0616Z" fill="#505050"/>
<path d="M8.01599 14.0616C8.84442 14.0616 9.51599 13.39 9.51599 12.5616C9.51599 11.7331 8.84442 11.0616 8.01599 11.0616C7.18756 11.0616 6.51599 11.7331 6.51599 12.5616C6.51599 13.39 7.18756 14.0616 8.01599 14.0616Z" fill="#505050"/>
</g>
<defs>
<clipPath id="clip0_394_471">
<rect width="11" height="3" fill="white" transform="translate(6.51599 11.0616)"/>
</clipPath>
</defs>
</svg>
